%TF.GenerationSoftware,KiCad,Pcbnew,8.0.0*%
%TF.CreationDate,2024-03-20T19:58:24+09:00*%
%TF.ProjectId,USB-to-RS485-Converter-Small,5553422d-746f-42d5-9253-3438352d436f,1.0*%
%TF.SameCoordinates,Original*%
%TF.FileFunction,Copper,L2,Inr*%
%TF.FilePolarity,Positive*%
%FSLAX46Y46*%
G04 Gerber Fmt 4.6, Leading zero omitted, Abs format (unit mm)*
G04 Created by KiCad (PCBNEW 8.0.0) date 2024-03-20 19:58:24*
%MOMM*%
%LPD*%
G01*
G04 APERTURE LIST*
%TA.AperFunction,ComponentPad*%
%ADD10R,1.600000X1.600000*%
%TD*%
%TA.AperFunction,ComponentPad*%
%ADD11C,1.600000*%
%TD*%
%TA.AperFunction,ComponentPad*%
%ADD12C,4.000000*%
%TD*%
%TA.AperFunction,ComponentPad*%
%ADD13R,1.700000X1.700000*%
%TD*%
%TA.AperFunction,ComponentPad*%
%ADD14O,1.700000X1.700000*%
%TD*%
%TA.AperFunction,ViaPad*%
%ADD15C,0.600000*%
%TD*%
G04 APERTURE END LIST*
D10*
%TO.N,/VCC*%
%TO.C,J2*%
X124187500Y-102087500D03*
D11*
%TO.N,Net-(J2-D-)*%
X124187500Y-99587500D03*
%TO.N,Net-(J2-D+)*%
X122187500Y-99587500D03*
%TO.N,/GND*%
X122187500Y-102087500D03*
D12*
X119327500Y-106837500D03*
X119327500Y-94837500D03*
%TD*%
D13*
%TO.N,Net-(J1-Pin_1)*%
%TO.C,J1*%
X159687500Y-88812500D03*
D14*
%TO.N,Net-(J1-Pin_2)*%
X159687500Y-91352500D03*
%TD*%
D12*
%TO.N,/GND*%
%TO.C,J3*%
X172407169Y-113077500D03*
X172407169Y-88077500D03*
D10*
%TO.N,unconnected-(J3-Pad1)*%
X172107169Y-95037500D03*
D11*
%TO.N,unconnected-(J3-Pad2)*%
X172107169Y-97807500D03*
%TO.N,Net-(J1-Pin_1)*%
X172107169Y-100577500D03*
%TO.N,unconnected-(J3-Pad4)*%
X172107169Y-103347500D03*
%TO.N,/GND*%
X172107169Y-106117500D03*
%TO.N,unconnected-(J3-Pad6)*%
X174947169Y-96422500D03*
%TO.N,Net-(D1-Pad1)*%
X174947169Y-99192500D03*
%TO.N,unconnected-(J3-Pad8)*%
X174947169Y-101962500D03*
%TO.N,unconnected-(J3-Pad9)*%
X174947169Y-104732500D03*
%TD*%
D15*
%TO.N,/GND*%
X148687500Y-96087500D03*
X162687500Y-100087500D03*
X158187500Y-93587500D03*
X138687500Y-98587500D03*
X158187500Y-95587500D03*
X144187500Y-99087500D03*
X138687500Y-99587500D03*
X158687500Y-100087500D03*
X145187500Y-99087500D03*
X158187500Y-94587500D03*
X158687500Y-101087500D03*
X162687500Y-101087500D03*
X148687500Y-97087500D03*
%TO.N,Net-(U1-3V3OUT)*%
X142687500Y-103587500D03*
X142687500Y-107087500D03*
%TO.N,{slash}TXLED*%
X142687500Y-96587500D03*
X133687500Y-86587500D03*
%TO.N,{slash}RXLED*%
X144187500Y-97587500D03*
X134687500Y-89587500D03*
%TO.N,Net-(J2-D+)*%
X126687500Y-97587500D03*
X138187500Y-104087500D03*
%TO.N,Net-(J2-D-)*%
X138187500Y-103087500D03*
X126687500Y-99587500D03*
%TD*%
%TA.AperFunction,Conductor*%
%TO.N,/VCC*%
G36*
X178191918Y-84588316D02*
G01*
X178392061Y-84602630D01*
X178409563Y-84605147D01*
X178601297Y-84646855D01*
X178618255Y-84651834D01*
X178802109Y-84720409D01*
X178818201Y-84727759D01*
X178990404Y-84821788D01*
X179005284Y-84831349D01*
X179162367Y-84948941D01*
X179175737Y-84960527D01*
X179314472Y-85099262D01*
X179326058Y-85112632D01*
X179443646Y-85269710D01*
X179453211Y-85284595D01*
X179547240Y-85456798D01*
X179554590Y-85472890D01*
X179623162Y-85656736D01*
X179628146Y-85673712D01*
X179669851Y-85865431D01*
X179672369Y-85882942D01*
X179686684Y-86083080D01*
X179687000Y-86091927D01*
X179687000Y-115083072D01*
X179686684Y-115091919D01*
X179672369Y-115292057D01*
X179669851Y-115309568D01*
X179628146Y-115501287D01*
X179623162Y-115518263D01*
X179554590Y-115702109D01*
X179547240Y-115718201D01*
X179453211Y-115890404D01*
X179443646Y-115905289D01*
X179326058Y-116062367D01*
X179314472Y-116075737D01*
X179175737Y-116214472D01*
X179162367Y-116226058D01*
X179005289Y-116343646D01*
X178990404Y-116353211D01*
X178818201Y-116447240D01*
X178802109Y-116454590D01*
X178618263Y-116523162D01*
X178601287Y-116528146D01*
X178409568Y-116569851D01*
X178392057Y-116572369D01*
X178211279Y-116585299D01*
X178191917Y-116586684D01*
X178183072Y-116587000D01*
X110691928Y-116587000D01*
X110683082Y-116586684D01*
X110661122Y-116585113D01*
X110482942Y-116572369D01*
X110465431Y-116569851D01*
X110273712Y-116528146D01*
X110256736Y-116523162D01*
X110072890Y-116454590D01*
X110056798Y-116447240D01*
X109884595Y-116353211D01*
X109869710Y-116343646D01*
X109712632Y-116226058D01*
X109699262Y-116214472D01*
X109560527Y-116075737D01*
X109548941Y-116062367D01*
X109431349Y-115905284D01*
X109421788Y-115890404D01*
X109327759Y-115718201D01*
X109320409Y-115702109D01*
X109259591Y-115539051D01*
X109251834Y-115518255D01*
X109246855Y-115501297D01*
X109205147Y-115309563D01*
X109202630Y-115292056D01*
X109195539Y-115192916D01*
X109188316Y-115091918D01*
X109188000Y-115083072D01*
X109188000Y-113077505D01*
X169901725Y-113077505D01*
X169921479Y-113391504D01*
X169921480Y-113391511D01*
X169980439Y-113700583D01*
X170077666Y-113999816D01*
X170077668Y-113999821D01*
X170211630Y-114284503D01*
X170211633Y-114284509D01*
X170380220Y-114550161D01*
X170380223Y-114550165D01*
X170580775Y-114792590D01*
X170580777Y-114792592D01*
X170810137Y-115007976D01*
X170810147Y-115007984D01*
X171064673Y-115192908D01*
X171064678Y-115192910D01*
X171064685Y-115192916D01*
X171340403Y-115344494D01*
X171340408Y-115344496D01*
X171340410Y-115344497D01*
X171340411Y-115344498D01*
X171632940Y-115460318D01*
X171632943Y-115460319D01*
X171826275Y-115509958D01*
X171937696Y-115538566D01*
X172003179Y-115546838D01*
X172249839Y-115577999D01*
X172249848Y-115577999D01*
X172249851Y-115578000D01*
X172249853Y-115578000D01*
X172564485Y-115578000D01*
X172564487Y-115578000D01*
X172564490Y-115577999D01*
X172564498Y-115577999D01*
X172750762Y-115554468D01*
X172876642Y-115538566D01*
X173181394Y-115460319D01*
X173181397Y-115460318D01*
X173473926Y-115344498D01*
X173473927Y-115344497D01*
X173473925Y-115344497D01*
X173473935Y-115344494D01*
X173749653Y-115192916D01*
X174004199Y-115007978D01*
X174233559Y-114792594D01*
X174434116Y-114550163D01*
X174602706Y-114284507D01*
X174736672Y-113999815D01*
X174833900Y-113700579D01*
X174892857Y-113391515D01*
X174912613Y-113077500D01*
X174892857Y-112763485D01*
X174833900Y-112454421D01*
X174736672Y-112155185D01*
X174602706Y-111870493D01*
X174434116Y-111604837D01*
X174434114Y-111604834D01*
X174233562Y-111362409D01*
X174233560Y-111362407D01*
X174004200Y-111147023D01*
X174004190Y-111147015D01*
X173749664Y-110962091D01*
X173749657Y-110962086D01*
X173749653Y-110962084D01*
X173473935Y-110810506D01*
X173473932Y-110810504D01*
X173473927Y-110810502D01*
X173473926Y-110810501D01*
X173181397Y-110694681D01*
X173181394Y-110694680D01*
X172876645Y-110616434D01*
X172876632Y-110616432D01*
X172564498Y-110577000D01*
X172564487Y-110577000D01*
X172249851Y-110577000D01*
X172249839Y-110577000D01*
X171937705Y-110616432D01*
X171937692Y-110616434D01*
X171632943Y-110694680D01*
X171632940Y-110694681D01*
X171340411Y-110810501D01*
X171340410Y-110810502D01*
X171064685Y-110962084D01*
X171064673Y-110962091D01*
X170810147Y-111147015D01*
X170810137Y-111147023D01*
X170580777Y-111362407D01*
X170580775Y-111362409D01*
X170380223Y-111604834D01*
X170380220Y-111604838D01*
X170211633Y-111870490D01*
X170211630Y-111870496D01*
X170077668Y-112155178D01*
X170077666Y-112155183D01*
X169980439Y-112454416D01*
X169921480Y-112763488D01*
X169921479Y-112763495D01*
X169901725Y-113077494D01*
X169901725Y-113077505D01*
X109188000Y-113077505D01*
X109188000Y-106837505D01*
X116822056Y-106837505D01*
X116841810Y-107151504D01*
X116841811Y-107151511D01*
X116841812Y-107151515D01*
X116896275Y-107437023D01*
X116900770Y-107460583D01*
X116997997Y-107759816D01*
X116997999Y-107759821D01*
X117131961Y-108044503D01*
X117131964Y-108044509D01*
X117300551Y-108310161D01*
X117300554Y-108310165D01*
X117501106Y-108552590D01*
X117501108Y-108552592D01*
X117730468Y-108767976D01*
X117730478Y-108767984D01*
X117985004Y-108952908D01*
X117985009Y-108952910D01*
X117985016Y-108952916D01*
X118260734Y-109104494D01*
X118260739Y-109104496D01*
X118260741Y-109104497D01*
X118260742Y-109104498D01*
X118553271Y-109220318D01*
X118553274Y-109220319D01*
X118858023Y-109298565D01*
X118858027Y-109298566D01*
X118923510Y-109306838D01*
X119170170Y-109337999D01*
X119170179Y-109337999D01*
X119170182Y-109338000D01*
X119170184Y-109338000D01*
X119484816Y-109338000D01*
X119484818Y-109338000D01*
X119484821Y-109337999D01*
X119484829Y-109337999D01*
X119671093Y-109314468D01*
X119796973Y-109298566D01*
X120101725Y-109220319D01*
X120101728Y-109220318D01*
X120394257Y-109104498D01*
X120394258Y-109104497D01*
X120394256Y-109104497D01*
X120394266Y-109104494D01*
X120669984Y-108952916D01*
X120924530Y-108767978D01*
X121153890Y-108552594D01*
X121354447Y-108310163D01*
X121523037Y-108044507D01*
X121657003Y-107759815D01*
X121754231Y-107460579D01*
X121813188Y-107151515D01*
X121815325Y-107117547D01*
X121817215Y-107087503D01*
X141881935Y-107087503D01*
X141902130Y-107266749D01*
X141902131Y-107266754D01*
X141961711Y-107437023D01*
X141976515Y-107460583D01*
X142057684Y-107589762D01*
X142185238Y-107717316D01*
X142337978Y-107813289D01*
X142508245Y-107872868D01*
X142508250Y-107872869D01*
X142687496Y-107893065D01*
X142687500Y-107893065D01*
X142687504Y-107893065D01*
X142866749Y-107872869D01*
X142866752Y-107872868D01*
X142866755Y-107872868D01*
X143037022Y-107813289D01*
X143189762Y-107717316D01*
X143317316Y-107589762D01*
X143413289Y-107437022D01*
X143472868Y-107266755D01*
X143472869Y-107266749D01*
X143493065Y-107087503D01*
X143493065Y-107087496D01*
X143472869Y-106908250D01*
X143472868Y-106908245D01*
X143413288Y-106737976D01*
X143317315Y-106585237D01*
X143189762Y-106457684D01*
X143037023Y-106361711D01*
X142866754Y-106302131D01*
X142866749Y-106302130D01*
X142687504Y-106281935D01*
X142687496Y-106281935D01*
X142508250Y-106302130D01*
X142508245Y-106302131D01*
X142337976Y-106361711D01*
X142185237Y-106457684D01*
X142057684Y-106585237D01*
X141961711Y-106737976D01*
X141902131Y-106908245D01*
X141902130Y-106908250D01*
X141881935Y-107087496D01*
X141881935Y-107087503D01*
X121817215Y-107087503D01*
X121832944Y-106837505D01*
X121832944Y-106837494D01*
X121813189Y-106523495D01*
X121813188Y-106523488D01*
X121813188Y-106523485D01*
X121754231Y-106214421D01*
X121722740Y-106117501D01*
X170801701Y-106117501D01*
X170821533Y-106344186D01*
X170821535Y-106344197D01*
X170880427Y-106563988D01*
X170880430Y-106563997D01*
X170976600Y-106770232D01*
X170976601Y-106770234D01*
X171107123Y-106956641D01*
X171268027Y-107117545D01*
X171268030Y-107117547D01*
X171454435Y-107248068D01*
X171660673Y-107344239D01*
X171880477Y-107403135D01*
X172042399Y-107417301D01*
X172107167Y-107422968D01*
X172107169Y-107422968D01*
X172107171Y-107422968D01*
X172163842Y-107418009D01*
X172333861Y-107403135D01*
X172553665Y-107344239D01*
X172759903Y-107248068D01*
X172946308Y-107117547D01*
X173107216Y-106956639D01*
X173237737Y-106770234D01*
X173333908Y-106563996D01*
X173392804Y-106344192D01*
X173412637Y-106117500D01*
X173392804Y-105890808D01*
X173333908Y-105671004D01*
X173237737Y-105464766D01*
X173107216Y-105278361D01*
X173107214Y-105278358D01*
X172946310Y-105117454D01*
X172759903Y-104986932D01*
X172759901Y-104986931D01*
X172553666Y-104890761D01*
X172553657Y-104890758D01*
X172431135Y-104857929D01*
X172410031Y-104852274D01*
X172350371Y-104815910D01*
X172319842Y-104753063D01*
X172322301Y-104732501D01*
X173641701Y-104732501D01*
X173661533Y-104959186D01*
X173661535Y-104959197D01*
X173720427Y-105178988D01*
X173720430Y-105178997D01*
X173816600Y-105385232D01*
X173816601Y-105385234D01*
X173947123Y-105571641D01*
X174108027Y-105732545D01*
X174108030Y-105732547D01*
X174294435Y-105863068D01*
X174500673Y-105959239D01*
X174720477Y-106018135D01*
X174882399Y-106032301D01*
X174947167Y-106037968D01*
X174947169Y-106037968D01*
X174947171Y-106037968D01*
X175003842Y-106033009D01*
X175173861Y-106018135D01*
X175393665Y-105959239D01*
X175599903Y-105863068D01*
X175786308Y-105732547D01*
X175947216Y-105571639D01*
X176077737Y-105385234D01*
X176173908Y-105178996D01*
X176232804Y-104959192D01*
X176252637Y-104732500D01*
X176251308Y-104717315D01*
X176232804Y-104505813D01*
X176232804Y-104505808D01*
X176173908Y-104286004D01*
X176077737Y-104079766D01*
X175947216Y-103893361D01*
X175947214Y-103893358D01*
X175786310Y-103732454D01*
X175599903Y-103601932D01*
X175599901Y-103601931D01*
X175393666Y-103505761D01*
X175393657Y-103505758D01*
X175271135Y-103472929D01*
X175250031Y-103467274D01*
X175190371Y-103430910D01*
X175159842Y-103368063D01*
X175168137Y-103298688D01*
X175212622Y-103244810D01*
X175250031Y-103227725D01*
X175393665Y-103189239D01*
X175599903Y-103093068D01*
X175786308Y-102962547D01*
X175947216Y-102801639D01*
X176077737Y-102615234D01*
X176173908Y-102408996D01*
X176232804Y-102189192D01*
X176252637Y-101962500D01*
X176248366Y-101913688D01*
X176243944Y-101863135D01*
X176232804Y-101735808D01*
X176173908Y-101516004D01*
X176077737Y-101309766D01*
X175947216Y-101123361D01*
X175947214Y-101123358D01*
X175786310Y-100962454D01*
X175599903Y-100831932D01*
X175599901Y-100831931D01*
X175393666Y-100735761D01*
X175393657Y-100735758D01*
X175271135Y-100702929D01*
X175250031Y-100697274D01*
X175190371Y-100660910D01*
X175159842Y-100598063D01*
X175168137Y-100528688D01*
X175212622Y-100474810D01*
X175250031Y-100457725D01*
X175393665Y-100419239D01*
X175599903Y-100323068D01*
X175786308Y-100192547D01*
X175947216Y-100031639D01*
X176077737Y-99845234D01*
X176173908Y-99638996D01*
X176232804Y-99419192D01*
X176252637Y-99192500D01*
X176248366Y-99143688D01*
X176237679Y-99021529D01*
X176232804Y-98965808D01*
X176173908Y-98746004D01*
X176077737Y-98539766D01*
X175953063Y-98361711D01*
X175947214Y-98353358D01*
X175786310Y-98192454D01*
X175599903Y-98061932D01*
X175599901Y-98061931D01*
X175393666Y-97965761D01*
X175393657Y-97965758D01*
X175271135Y-97932929D01*
X175250031Y-97927274D01*
X175190371Y-97890910D01*
X175159842Y-97828063D01*
X175168137Y-97758688D01*
X175212622Y-97704810D01*
X175250031Y-97687725D01*
X175393665Y-97649239D01*
X175599903Y-97553068D01*
X175786308Y-97422547D01*
X175947216Y-97261639D01*
X176077737Y-97075234D01*
X176173908Y-96868996D01*
X176232804Y-96649192D01*
X176251366Y-96437024D01*
X176252637Y-96422501D01*
X176252637Y-96422498D01*
X176242809Y-96310163D01*
X176232804Y-96195808D01*
X176173908Y-95976004D01*
X176077737Y-95769766D01*
X175947216Y-95583361D01*
X175947214Y-95583358D01*
X175786310Y-95422454D01*
X175599903Y-95291932D01*
X175599901Y-95291931D01*
X175393666Y-95195761D01*
X175393657Y-95195758D01*
X175173866Y-95136866D01*
X175173862Y-95136865D01*
X175173861Y-95136865D01*
X175173860Y-95136864D01*
X175173855Y-95136864D01*
X174947171Y-95117032D01*
X174947167Y-95117032D01*
X174720482Y-95136864D01*
X174720471Y-95136866D01*
X174500680Y-95195758D01*
X174500671Y-95195761D01*
X174294436Y-95291931D01*
X174294434Y-95291932D01*
X174108027Y-95422454D01*
X173947123Y-95583358D01*
X173816601Y-95769765D01*
X173816600Y-95769767D01*
X173720430Y-95976002D01*
X173720427Y-95976011D01*
X173661535Y-96195802D01*
X173661533Y-96195813D01*
X173641701Y-96422498D01*
X173641701Y-96422501D01*
X173661533Y-96649186D01*
X173661535Y-96649197D01*
X173720427Y-96868988D01*
X173720430Y-96868997D01*
X173816600Y-97075232D01*
X173816601Y-97075234D01*
X173947123Y-97261641D01*
X174108027Y-97422545D01*
X174108030Y-97422547D01*
X174294435Y-97553068D01*
X174500673Y-97649239D01*
X174500678Y-97649240D01*
X174500680Y-97649241D01*
X174644305Y-97687725D01*
X174703966Y-97724090D01*
X174734495Y-97786937D01*
X174726200Y-97856312D01*
X174681715Y-97910190D01*
X174644305Y-97927275D01*
X174500680Y-97965758D01*
X174500671Y-97965761D01*
X174294436Y-98061931D01*
X174294434Y-98061932D01*
X174108027Y-98192454D01*
X173947123Y-98353358D01*
X173816601Y-98539765D01*
X173816600Y-98539767D01*
X173720430Y-98746002D01*
X173720427Y-98746011D01*
X173661535Y-98965802D01*
X173661533Y-98965813D01*
X173641701Y-99192498D01*
X173641701Y-99192501D01*
X173661533Y-99419186D01*
X173661535Y-99419197D01*
X173720427Y-99638988D01*
X173720430Y-99638997D01*
X173816600Y-99845232D01*
X173816601Y-99845234D01*
X173947123Y-100031641D01*
X174108027Y-100192545D01*
X174108030Y-100192547D01*
X174294435Y-100323068D01*
X174500673Y-100419239D01*
X174500678Y-100419240D01*
X174500680Y-100419241D01*
X174644305Y-100457725D01*
X174703966Y-100494090D01*
X174734495Y-100556937D01*
X174726200Y-100626312D01*
X174681715Y-100680190D01*
X174644305Y-100697275D01*
X174500680Y-100735758D01*
X174500671Y-100735761D01*
X174294436Y-100831931D01*
X174294434Y-100831932D01*
X174108027Y-100962454D01*
X173947123Y-101123358D01*
X173816601Y-101309765D01*
X173816600Y-101309767D01*
X173720430Y-101516002D01*
X173720427Y-101516011D01*
X173661535Y-101735802D01*
X173661533Y-101735813D01*
X173641701Y-101962498D01*
X173641701Y-101962501D01*
X173661533Y-102189186D01*
X173661535Y-102189197D01*
X173720427Y-102408988D01*
X173720430Y-102408997D01*
X173816600Y-102615232D01*
X173816601Y-102615234D01*
X173947123Y-102801641D01*
X174108027Y-102962545D01*
X174108030Y-102962547D01*
X174294435Y-103093068D01*
X174500673Y-103189239D01*
X174500678Y-103189240D01*
X174500680Y-103189241D01*
X174644305Y-103227725D01*
X174703966Y-103264090D01*
X174734495Y-103326937D01*
X174726200Y-103396312D01*
X174681715Y-103450190D01*
X174644305Y-103467275D01*
X174500680Y-103505758D01*
X174500671Y-103505761D01*
X174294436Y-103601931D01*
X174294434Y-103601932D01*
X174108027Y-103732454D01*
X173947123Y-103893358D01*
X173816601Y-104079765D01*
X173816600Y-104079767D01*
X173720430Y-104286002D01*
X173720427Y-104286011D01*
X173661535Y-104505802D01*
X173661533Y-104505813D01*
X173641701Y-104732498D01*
X173641701Y-104732501D01*
X172322301Y-104732501D01*
X172328137Y-104683688D01*
X172372622Y-104629810D01*
X172410031Y-104612725D01*
X172553665Y-104574239D01*
X172759903Y-104478068D01*
X172946308Y-104347547D01*
X173107216Y-104186639D01*
X173237737Y-104000234D01*
X173333908Y-103793996D01*
X173392804Y-103574192D01*
X173412637Y-103347500D01*
X173408366Y-103298688D01*
X173398549Y-103186475D01*
X173392804Y-103120808D01*
X173333908Y-102901004D01*
X173237737Y-102694766D01*
X173107216Y-102508361D01*
X173107214Y-102508358D01*
X172946310Y-102347454D01*
X172759903Y-102216932D01*
X172759901Y-102216931D01*
X172553666Y-102120761D01*
X172553657Y-102120758D01*
X172429525Y-102087498D01*
X172410031Y-102082274D01*
X172350371Y-102045910D01*
X172319842Y-101983063D01*
X172328137Y-101913688D01*
X172372622Y-101859810D01*
X172410031Y-101842725D01*
X172553665Y-101804239D01*
X172759903Y-101708068D01*
X172946308Y-101577547D01*
X173107216Y-101416639D01*
X173237737Y-101230234D01*
X173333908Y-101023996D01*
X173392804Y-100804192D01*
X173411873Y-100586236D01*
X173412637Y-100577501D01*
X173412637Y-100577498D01*
X173400347Y-100437022D01*
X173392804Y-100350808D01*
X173333908Y-100131004D01*
X173237737Y-99924766D01*
X173107216Y-99738361D01*
X173107214Y-99738358D01*
X172946310Y-99577454D01*
X172759903Y-99446932D01*
X172759901Y-99446931D01*
X172553666Y-99350761D01*
X172553657Y-99350758D01*
X172431135Y-99317929D01*
X172410031Y-99312274D01*
X172350371Y-99275910D01*
X172319842Y-99213063D01*
X172328137Y-99143688D01*
X172372622Y-99089810D01*
X172410031Y-99072725D01*
X172553665Y-99034239D01*
X172759903Y-98938068D01*
X172946308Y-98807547D01*
X173107216Y-98646639D01*
X173237737Y-98460234D01*
X173333908Y-98253996D01*
X173392804Y-98034192D01*
X173412637Y-97807500D01*
X173412167Y-97802132D01*
X173393587Y-97589762D01*
X173392804Y-97580808D01*
X173333908Y-97361004D01*
X173237737Y-97154766D01*
X173107216Y-96968361D01*
X173107214Y-96968358D01*
X172946310Y-96807454D01*
X172759903Y-96676932D01*
X172759901Y-96676931D01*
X172553666Y-96580761D01*
X172548571Y-96578907D01*
X172549328Y-96576825D01*
X172497786Y-96545408D01*
X172467257Y-96482561D01*
X172475552Y-96413186D01*
X172520038Y-96359308D01*
X172586590Y-96338034D01*
X172589521Y-96337999D01*
X172955041Y-96337999D01*
X173014652Y-96331591D01*
X173149500Y-96281296D01*
X173264715Y-96195046D01*
X173350965Y-96079831D01*
X173401260Y-95944983D01*
X173407669Y-95885373D01*
X173407668Y-94189628D01*
X173401260Y-94130017D01*
X173385874Y-94088766D01*
X173350966Y-93995171D01*
X173350962Y-93995164D01*
X173264716Y-93879955D01*
X173264713Y-93879952D01*
X173149504Y-93793706D01*
X173149497Y-93793702D01*
X173014651Y-93743408D01*
X173014652Y-93743408D01*
X172955052Y-93737001D01*
X172955050Y-93737000D01*
X172955042Y-93737000D01*
X172955033Y-93737000D01*
X171259298Y-93737000D01*
X171259292Y-93737001D01*
X171199685Y-93743408D01*
X171064840Y-93793702D01*
X171064833Y-93793706D01*
X170949624Y-93879952D01*
X170949621Y-93879955D01*
X170863375Y-93995164D01*
X170863371Y-93995171D01*
X170813077Y-94130017D01*
X170806670Y-94189616D01*
X170806670Y-94189623D01*
X170806669Y-94189635D01*
X170806669Y-95885370D01*
X170806670Y-95885376D01*
X170813077Y-95944983D01*
X170863371Y-96079828D01*
X170863375Y-96079835D01*
X170949621Y-96195044D01*
X170949624Y-96195047D01*
X171064833Y-96281293D01*
X171064840Y-96281297D01*
X171199686Y-96331591D01*
X171199685Y-96331591D01*
X171206613Y-96332335D01*
X171259296Y-96338000D01*
X171624797Y-96337999D01*
X171691834Y-96357683D01*
X171737589Y-96410487D01*
X171747533Y-96479646D01*
X171718508Y-96543201D01*
X171665232Y-96577439D01*
X171665767Y-96578907D01*
X171660671Y-96580761D01*
X171454436Y-96676931D01*
X171454434Y-96676932D01*
X171268027Y-96807454D01*
X171107123Y-96968358D01*
X170976601Y-97154765D01*
X170976600Y-97154767D01*
X170880430Y-97361002D01*
X170880427Y-97361011D01*
X170821535Y-97580802D01*
X170821533Y-97580813D01*
X170801701Y-97807498D01*
X170801701Y-97807501D01*
X170821533Y-98034186D01*
X170821535Y-98034197D01*
X170880427Y-98253988D01*
X170880430Y-98253997D01*
X170976600Y-98460232D01*
X170976601Y-98460234D01*
X171107123Y-98646641D01*
X171268027Y-98807545D01*
X171268030Y-98807547D01*
X171454435Y-98938068D01*
X171660673Y-99034239D01*
X171660678Y-99034240D01*
X171660680Y-99034241D01*
X171804305Y-99072725D01*
X171863966Y-99109090D01*
X171894495Y-99171937D01*
X171886200Y-99241312D01*
X171841715Y-99295190D01*
X171804305Y-99312275D01*
X171660680Y-99350758D01*
X171660671Y-99350761D01*
X171454436Y-99446931D01*
X171454434Y-99446932D01*
X171268027Y-99577454D01*
X171107123Y-99738358D01*
X170976601Y-99924765D01*
X170976600Y-99924767D01*
X170880430Y-100131002D01*
X170880427Y-100131011D01*
X170821535Y-100350802D01*
X170821533Y-100350813D01*
X170801701Y-100577498D01*
X170801701Y-100577501D01*
X170821533Y-100804186D01*
X170821535Y-100804197D01*
X170880427Y-101023988D01*
X170880430Y-101023997D01*
X170976600Y-101230232D01*
X170976601Y-101230234D01*
X171107123Y-101416641D01*
X171268027Y-101577545D01*
X171268030Y-101577547D01*
X171454435Y-101708068D01*
X171660673Y-101804239D01*
X171660678Y-101804240D01*
X171660680Y-101804241D01*
X171804305Y-101842725D01*
X171863966Y-101879090D01*
X171894495Y-101941937D01*
X171886200Y-102011312D01*
X171841715Y-102065190D01*
X171804305Y-102082275D01*
X171660680Y-102120758D01*
X171660671Y-102120761D01*
X171454436Y-102216931D01*
X171454434Y-102216932D01*
X171268027Y-102347454D01*
X171107123Y-102508358D01*
X170976601Y-102694765D01*
X170976600Y-102694767D01*
X170880430Y-102901002D01*
X170880427Y-102901011D01*
X170821535Y-103120802D01*
X170821533Y-103120813D01*
X170801701Y-103347498D01*
X170801701Y-103347501D01*
X170821533Y-103574186D01*
X170821535Y-103574197D01*
X170880427Y-103793988D01*
X170880430Y-103793997D01*
X170976600Y-104000232D01*
X170976601Y-104000234D01*
X171107123Y-104186641D01*
X171268027Y-104347545D01*
X171268030Y-104347547D01*
X171454435Y-104478068D01*
X171660673Y-104574239D01*
X171660678Y-104574240D01*
X171660680Y-104574241D01*
X171804305Y-104612725D01*
X171863966Y-104649090D01*
X171894495Y-104711937D01*
X171886200Y-104781312D01*
X171841715Y-104835190D01*
X171804305Y-104852275D01*
X171660680Y-104890758D01*
X171660671Y-104890761D01*
X171454436Y-104986931D01*
X171454434Y-104986932D01*
X171268027Y-105117454D01*
X171107123Y-105278358D01*
X170976601Y-105464765D01*
X170976600Y-105464767D01*
X170880430Y-105671002D01*
X170880427Y-105671011D01*
X170821535Y-105890802D01*
X170821533Y-105890813D01*
X170801701Y-106117498D01*
X170801701Y-106117501D01*
X121722740Y-106117501D01*
X121657003Y-105915185D01*
X121645534Y-105890813D01*
X121523038Y-105630496D01*
X121523037Y-105630493D01*
X121485687Y-105571639D01*
X121354448Y-105364838D01*
X121354445Y-105364834D01*
X121153893Y-105122409D01*
X121153891Y-105122407D01*
X120924531Y-104907023D01*
X120924521Y-104907015D01*
X120669995Y-104722091D01*
X120669988Y-104722086D01*
X120669984Y-104722084D01*
X120394266Y-104570506D01*
X120394263Y-104570504D01*
X120394258Y-104570502D01*
X120394257Y-104570501D01*
X120101728Y-104454681D01*
X120101725Y-104454680D01*
X119796976Y-104376434D01*
X119796963Y-104376432D01*
X119484829Y-104337000D01*
X119484818Y-104337000D01*
X119170182Y-104337000D01*
X119170170Y-104337000D01*
X118858036Y-104376432D01*
X118858023Y-104376434D01*
X118553274Y-104454680D01*
X118553271Y-104454681D01*
X118260742Y-104570501D01*
X118260741Y-104570502D01*
X117985016Y-104722084D01*
X117985004Y-104722091D01*
X117730478Y-104907015D01*
X117730468Y-104907023D01*
X117501108Y-105122407D01*
X117501106Y-105122409D01*
X117300554Y-105364834D01*
X117300551Y-105364838D01*
X117131964Y-105630490D01*
X117131961Y-105630496D01*
X116997999Y-105915178D01*
X116997997Y-105915183D01*
X116900770Y-106214416D01*
X116841811Y-106523488D01*
X116841810Y-106523495D01*
X116822056Y-106837494D01*
X116822056Y-106837505D01*
X109188000Y-106837505D01*
X109188000Y-104087503D01*
X137381935Y-104087503D01*
X137402130Y-104266749D01*
X137402131Y-104266754D01*
X137461711Y-104437023D01*
X137504928Y-104505802D01*
X137557684Y-104589762D01*
X137685238Y-104717316D01*
X137837978Y-104813289D01*
X137949394Y-104852275D01*
X138008245Y-104872868D01*
X138008250Y-104872869D01*
X138187496Y-104893065D01*
X138187500Y-104893065D01*
X138187504Y-104893065D01*
X138366749Y-104872869D01*
X138366752Y-104872868D01*
X138366755Y-104872868D01*
X138537022Y-104813289D01*
X138689762Y-104717316D01*
X138817316Y-104589762D01*
X138913289Y-104437022D01*
X138972868Y-104266755D01*
X138972869Y-104266749D01*
X138993065Y-104087503D01*
X138993065Y-104087496D01*
X138972869Y-103908250D01*
X138972868Y-103908245D01*
X138913288Y-103737975D01*
X138860191Y-103653473D01*
X138841548Y-103587503D01*
X141881935Y-103587503D01*
X141902130Y-103766749D01*
X141902131Y-103766754D01*
X141961711Y-103937023D01*
X142051402Y-104079765D01*
X142057684Y-104089762D01*
X142185238Y-104217316D01*
X142337978Y-104313289D01*
X142435876Y-104347545D01*
X142508245Y-104372868D01*
X142508250Y-104372869D01*
X142687496Y-104393065D01*
X142687500Y-104393065D01*
X142687504Y-104393065D01*
X142866749Y-104372869D01*
X142866752Y-104372868D01*
X142866755Y-104372868D01*
X143037022Y-104313289D01*
X143189762Y-104217316D01*
X143317316Y-104089762D01*
X143413289Y-103937022D01*
X143472868Y-103766755D01*
X143472869Y-103766749D01*
X143493065Y-103587503D01*
X143493065Y-103587496D01*
X143472869Y-103408250D01*
X143472868Y-103408245D01*
X143444417Y-103326937D01*
X143413289Y-103237978D01*
X143400779Y-103218069D01*
X143322235Y-103093067D01*
X143317316Y-103085238D01*
X143189762Y-102957684D01*
X143154181Y-102935327D01*
X143037023Y-102861711D01*
X142866754Y-102802131D01*
X142866749Y-102802130D01*
X142687504Y-102781935D01*
X142687496Y-102781935D01*
X142508250Y-102802130D01*
X142508245Y-102802131D01*
X142337976Y-102861711D01*
X142185237Y-102957684D01*
X142057684Y-103085237D01*
X141961711Y-103237976D01*
X141902131Y-103408245D01*
X141902130Y-103408250D01*
X141881935Y-103587496D01*
X141881935Y-103587503D01*
X138841548Y-103587503D01*
X138841190Y-103586236D01*
X138860191Y-103521527D01*
X138913288Y-103437024D01*
X138913289Y-103437022D01*
X138972868Y-103266755D01*
X138972869Y-103266749D01*
X138993065Y-103087503D01*
X138993065Y-103087496D01*
X138972869Y-102908250D01*
X138972868Y-102908245D01*
X138935737Y-102802130D01*
X138913289Y-102737978D01*
X138886136Y-102694765D01*
X138817315Y-102585237D01*
X138689762Y-102457684D01*
X138537023Y-102361711D01*
X138366754Y-102302131D01*
X138366749Y-102302130D01*
X138187504Y-102281935D01*
X138187496Y-102281935D01*
X138008250Y-102302130D01*
X138008245Y-102302131D01*
X137837976Y-102361711D01*
X137685237Y-102457684D01*
X137557684Y-102585237D01*
X137461711Y-102737976D01*
X137402131Y-102908245D01*
X137402130Y-102908250D01*
X137381935Y-103087496D01*
X137381935Y-103087503D01*
X137402130Y-103266749D01*
X137402133Y-103266762D01*
X137461709Y-103437020D01*
X137514809Y-103521529D01*
X137533809Y-103588766D01*
X137514809Y-103653471D01*
X137461709Y-103737979D01*
X137402133Y-103908237D01*
X137402130Y-103908250D01*
X137381935Y-104087496D01*
X137381935Y-104087503D01*
X109188000Y-104087503D01*
X109188000Y-102087501D01*
X120882032Y-102087501D01*
X120901864Y-102314186D01*
X120901866Y-102314197D01*
X120960758Y-102533988D01*
X120960761Y-102533997D01*
X121056931Y-102740232D01*
X121056932Y-102740234D01*
X121187454Y-102926641D01*
X121348358Y-103087545D01*
X121348361Y-103087547D01*
X121534766Y-103218068D01*
X121741004Y-103314239D01*
X121960808Y-103373135D01*
X122122730Y-103387301D01*
X122187498Y-103392968D01*
X122187500Y-103392968D01*
X122187502Y-103392968D01*
X122250011Y-103387499D01*
X122414192Y-103373135D01*
X122633996Y-103314239D01*
X122840234Y-103218068D01*
X122853464Y-103208803D01*
X122919666Y-103186475D01*
X122987434Y-103203482D01*
X123023856Y-103236067D01*
X123030306Y-103244684D01*
X123030314Y-103244691D01*
X123145406Y-103330850D01*
X123145413Y-103330854D01*
X123280120Y-103381096D01*
X123280127Y-103381098D01*
X123339655Y-103387499D01*
X123339672Y-103387500D01*
X123937500Y-103387500D01*
X123937500Y-102491645D01*
X124004157Y-102530130D01*
X124124965Y-102562500D01*
X124250035Y-102562500D01*
X124370843Y-102530130D01*
X124437500Y-102491645D01*
X124437500Y-103387500D01*
X125035328Y-103387500D01*
X125035344Y-103387499D01*
X125094872Y-103381098D01*
X125094879Y-103381096D01*
X125229586Y-103330854D01*
X125229593Y-103330850D01*
X125344687Y-103244690D01*
X125344690Y-103244687D01*
X125430850Y-103129593D01*
X125430854Y-103129586D01*
X125481096Y-102994879D01*
X125481098Y-102994872D01*
X125487499Y-102935344D01*
X125487500Y-102935327D01*
X125487500Y-102337500D01*
X124591646Y-102337500D01*
X124630130Y-102270843D01*
X124662500Y-102150035D01*
X124662500Y-102024965D01*
X124630130Y-101904157D01*
X124591646Y-101837500D01*
X125487500Y-101837500D01*
X125487500Y-101239672D01*
X125487499Y-101239655D01*
X125481098Y-101180127D01*
X125481096Y-101180120D01*
X125446552Y-101087503D01*
X157881935Y-101087503D01*
X157902130Y-101266749D01*
X157902131Y-101266754D01*
X157961711Y-101437023D01*
X158050009Y-101577547D01*
X158057684Y-101589762D01*
X158185238Y-101717316D01*
X158337978Y-101813289D01*
X158473780Y-101860808D01*
X158508245Y-101872868D01*
X158508250Y-101872869D01*
X158687496Y-101893065D01*
X158687500Y-101893065D01*
X158687504Y-101893065D01*
X158866749Y-101872869D01*
X158866752Y-101872868D01*
X158866755Y-101872868D01*
X159037022Y-101813289D01*
X159189762Y-101717316D01*
X159317316Y-101589762D01*
X159413289Y-101437022D01*
X159472868Y-101266755D01*
X159472869Y-101266749D01*
X159493065Y-101087503D01*
X161881935Y-101087503D01*
X161902130Y-101266749D01*
X161902131Y-101266754D01*
X161961711Y-101437023D01*
X162050009Y-101577547D01*
X162057684Y-101589762D01*
X162185238Y-101717316D01*
X162337978Y-101813289D01*
X162473780Y-101860808D01*
X162508245Y-101872868D01*
X162508250Y-101872869D01*
X162687496Y-101893065D01*
X162687500Y-101893065D01*
X162687504Y-101893065D01*
X162866749Y-101872869D01*
X162866752Y-101872868D01*
X162866755Y-101872868D01*
X163037022Y-101813289D01*
X163189762Y-101717316D01*
X163317316Y-101589762D01*
X163413289Y-101437022D01*
X163472868Y-101266755D01*
X163472869Y-101266749D01*
X163493065Y-101087503D01*
X163493065Y-101087496D01*
X163472869Y-100908250D01*
X163472868Y-100908245D01*
X163413288Y-100737975D01*
X163360191Y-100653473D01*
X163341190Y-100586236D01*
X163360191Y-100521527D01*
X163413288Y-100437024D01*
X163413289Y-100437022D01*
X163472868Y-100266755D01*
X163475856Y-100240234D01*
X163493065Y-100087503D01*
X163493065Y-100087496D01*
X163472869Y-99908250D01*
X163472868Y-99908245D01*
X163439641Y-99813288D01*
X163413289Y-99737978D01*
X163317316Y-99585238D01*
X163189762Y-99457684D01*
X163156879Y-99437022D01*
X163037023Y-99361711D01*
X162866754Y-99302131D01*
X162866749Y-99302130D01*
X162687504Y-99281935D01*
X162687496Y-99281935D01*
X162508250Y-99302130D01*
X162508245Y-99302131D01*
X162337976Y-99361711D01*
X162185237Y-99457684D01*
X162057684Y-99585237D01*
X161961711Y-99737976D01*
X161902131Y-99908245D01*
X161902130Y-99908250D01*
X161881935Y-100087496D01*
X161881935Y-100087503D01*
X161902130Y-100266749D01*
X161902133Y-100266762D01*
X161961709Y-100437020D01*
X162014809Y-100521529D01*
X162033809Y-100588766D01*
X162014809Y-100653471D01*
X161961709Y-100737979D01*
X161902133Y-100908237D01*
X161902130Y-100908250D01*
X161881935Y-101087496D01*
X161881935Y-101087503D01*
X159493065Y-101087503D01*
X159493065Y-101087496D01*
X159472869Y-100908250D01*
X159472868Y-100908245D01*
X159413288Y-100737975D01*
X159360191Y-100653473D01*
X159341190Y-100586236D01*
X159360191Y-100521527D01*
X159413288Y-100437024D01*
X159413289Y-100437022D01*
X159472868Y-100266755D01*
X159475856Y-100240234D01*
X159493065Y-100087503D01*
X159493065Y-100087496D01*
X159472869Y-99908250D01*
X159472868Y-99908245D01*
X159439641Y-99813288D01*
X159413289Y-99737978D01*
X159317316Y-99585238D01*
X159189762Y-99457684D01*
X159156879Y-99437022D01*
X159037023Y-99361711D01*
X158866754Y-99302131D01*
X158866749Y-99302130D01*
X158687504Y-99281935D01*
X158687496Y-99281935D01*
X158508250Y-99302130D01*
X158508245Y-99302131D01*
X158337976Y-99361711D01*
X158185237Y-99457684D01*
X158057684Y-99585237D01*
X157961711Y-99737976D01*
X157902131Y-99908245D01*
X157902130Y-99908250D01*
X157881935Y-100087496D01*
X157881935Y-100087503D01*
X157902130Y-100266749D01*
X157902133Y-100266762D01*
X157961709Y-100437020D01*
X158014809Y-100521529D01*
X158033809Y-100588766D01*
X158014809Y-100653471D01*
X157961709Y-100737979D01*
X157902133Y-100908237D01*
X157902130Y-100908250D01*
X157881935Y-101087496D01*
X157881935Y-101087503D01*
X125446552Y-101087503D01*
X125430854Y-101045413D01*
X125430850Y-101045406D01*
X125344690Y-100930312D01*
X125344687Y-100930309D01*
X125229593Y-100844149D01*
X125229586Y-100844145D01*
X125094878Y-100793902D01*
X125089158Y-100792551D01*
X125028442Y-100757977D01*
X124996057Y-100696066D01*
X125002284Y-100626474D01*
X125029991Y-100584194D01*
X125187547Y-100426639D01*
X125318068Y-100240234D01*
X125414239Y-100033996D01*
X125473135Y-99814192D01*
X125492968Y-99587503D01*
X125881935Y-99587503D01*
X125902130Y-99766749D01*
X125902131Y-99766754D01*
X125961711Y-99937023D01*
X126021163Y-100031639D01*
X126057684Y-100089762D01*
X126185238Y-100217316D01*
X126337978Y-100313289D01*
X126508245Y-100372868D01*
X126508250Y-100372869D01*
X126687496Y-100393065D01*
X126687500Y-100393065D01*
X126687504Y-100393065D01*
X126866749Y-100372869D01*
X126866752Y-100372868D01*
X126866755Y-100372868D01*
X127037022Y-100313289D01*
X127189762Y-100217316D01*
X127317316Y-100089762D01*
X127413289Y-99937022D01*
X127472868Y-99766755D01*
X127473608Y-99760191D01*
X127493065Y-99587503D01*
X137881935Y-99587503D01*
X137902130Y-99766749D01*
X137902131Y-99766754D01*
X137961711Y-99937023D01*
X138021163Y-100031639D01*
X138057684Y-100089762D01*
X138185238Y-100217316D01*
X138337978Y-100313289D01*
X138508245Y-100372868D01*
X138508250Y-100372869D01*
X138687496Y-100393065D01*
X138687500Y-100393065D01*
X138687504Y-100393065D01*
X138866749Y-100372869D01*
X138866752Y-100372868D01*
X138866755Y-100372868D01*
X139037022Y-100313289D01*
X139189762Y-100217316D01*
X139317316Y-100089762D01*
X139413289Y-99937022D01*
X139472868Y-99766755D01*
X139473608Y-99760191D01*
X139493065Y-99587503D01*
X139493065Y-99587496D01*
X139472869Y-99408250D01*
X139472868Y-99408245D01*
X139413288Y-99237975D01*
X139360191Y-99153473D01*
X139341190Y-99086236D01*
X139360191Y-99021527D01*
X139413288Y-98937024D01*
X139413289Y-98937022D01*
X139472868Y-98766755D01*
X139472869Y-98766749D01*
X139493065Y-98587503D01*
X139493065Y-98587496D01*
X139472869Y-98408250D01*
X139472868Y-98408245D01*
X139456253Y-98360761D01*
X139413289Y-98237978D01*
X139317316Y-98085238D01*
X139189762Y-97957684D01*
X139156879Y-97937022D01*
X139037023Y-97861711D01*
X138866754Y-97802131D01*
X138866749Y-97802130D01*
X138687504Y-97781935D01*
X138687496Y-97781935D01*
X138508250Y-97802130D01*
X138508245Y-97802131D01*
X138337976Y-97861711D01*
X138185237Y-97957684D01*
X138057684Y-98085237D01*
X137961711Y-98237976D01*
X137902131Y-98408245D01*
X137902130Y-98408250D01*
X137881935Y-98587496D01*
X137881935Y-98587503D01*
X137902130Y-98766749D01*
X137902133Y-98766762D01*
X137961709Y-98937020D01*
X138014809Y-99021529D01*
X138033809Y-99088766D01*
X138014809Y-99153471D01*
X137961709Y-99237979D01*
X137902133Y-99408237D01*
X137902130Y-99408250D01*
X137881935Y-99587496D01*
X137881935Y-99587503D01*
X127493065Y-99587503D01*
X127493065Y-99587496D01*
X127472869Y-99408250D01*
X127472868Y-99408245D01*
X127452752Y-99350758D01*
X127413289Y-99237978D01*
X127317316Y-99085238D01*
X127189762Y-98957684D01*
X127037023Y-98861711D01*
X126866754Y-98802131D01*
X126866749Y-98802130D01*
X126687504Y-98781935D01*
X126687496Y-98781935D01*
X126508250Y-98802130D01*
X126508245Y-98802131D01*
X126337976Y-98861711D01*
X126185237Y-98957684D01*
X126057684Y-99085237D01*
X125961711Y-99237976D01*
X125902131Y-99408245D01*
X125902130Y-99408250D01*
X125881935Y-99587496D01*
X125881935Y-99587503D01*
X125492968Y-99587503D01*
X125492968Y-99587500D01*
X125473135Y-99360808D01*
X125414239Y-99141004D01*
X125318068Y-98934766D01*
X125187547Y-98748361D01*
X125187545Y-98748358D01*
X125026641Y-98587454D01*
X124840234Y-98456932D01*
X124840232Y-98456931D01*
X124633997Y-98360761D01*
X124633988Y-98360758D01*
X124414197Y-98301866D01*
X124414193Y-98301865D01*
X124414192Y-98301865D01*
X124414191Y-98301864D01*
X124414186Y-98301864D01*
X124187502Y-98282032D01*
X124187498Y-98282032D01*
X123960813Y-98301864D01*
X123960802Y-98301866D01*
X123741011Y-98360758D01*
X123741002Y-98360761D01*
X123534767Y-98456931D01*
X123534765Y-98456932D01*
X123348358Y-98587454D01*
X123275181Y-98660632D01*
X123213858Y-98694117D01*
X123144166Y-98689133D01*
X123099819Y-98660632D01*
X123026641Y-98587454D01*
X122840234Y-98456932D01*
X122840232Y-98456931D01*
X122633997Y-98360761D01*
X122633988Y-98360758D01*
X122414197Y-98301866D01*
X122414193Y-98301865D01*
X122414192Y-98301865D01*
X122414191Y-98301864D01*
X122414186Y-98301864D01*
X122187502Y-98282032D01*
X122187498Y-98282032D01*
X121960813Y-98301864D01*
X121960802Y-98301866D01*
X121741011Y-98360758D01*
X121741002Y-98360761D01*
X121534767Y-98456931D01*
X121534765Y-98456932D01*
X121348358Y-98587454D01*
X121187454Y-98748358D01*
X121056932Y-98934765D01*
X121056931Y-98934767D01*
X120960761Y-99141002D01*
X120960758Y-99141011D01*
X120901866Y-99360802D01*
X120901864Y-99360813D01*
X120882032Y-99587498D01*
X120882032Y-99587501D01*
X120901864Y-99814186D01*
X120901866Y-99814197D01*
X120960758Y-100033988D01*
X120960761Y-100033997D01*
X121056931Y-100240232D01*
X121056932Y-100240234D01*
X121187454Y-100426641D01*
X121348358Y-100587545D01*
X121375140Y-100606298D01*
X121534766Y-100718068D01*
X121549887Y-100725119D01*
X121602325Y-100771291D01*
X121621476Y-100838485D01*
X121601260Y-100905366D01*
X121549887Y-100949880D01*
X121534766Y-100956932D01*
X121534764Y-100956933D01*
X121348358Y-101087454D01*
X121187454Y-101248358D01*
X121056932Y-101434765D01*
X121056931Y-101434767D01*
X120960761Y-101641002D01*
X120960758Y-101641011D01*
X120901866Y-101860802D01*
X120901864Y-101860813D01*
X120882032Y-102087498D01*
X120882032Y-102087501D01*
X109188000Y-102087501D01*
X109188000Y-97587503D01*
X125881935Y-97587503D01*
X125902130Y-97766749D01*
X125902131Y-97766754D01*
X125961711Y-97937023D01*
X126040197Y-98061932D01*
X126057684Y-98089762D01*
X126185238Y-98217316D01*
X126275580Y-98274082D01*
X126320221Y-98302132D01*
X126337978Y-98313289D01*
X126473637Y-98360758D01*
X126508245Y-98372868D01*
X126508250Y-98372869D01*
X126687496Y-98393065D01*
X126687500Y-98393065D01*
X126687504Y-98393065D01*
X126866749Y-98372869D01*
X126866752Y-98372868D01*
X126866755Y-98372868D01*
X127037022Y-98313289D01*
X127189762Y-98217316D01*
X127317316Y-98089762D01*
X127413289Y-97937022D01*
X127472868Y-97766755D01*
X127473777Y-97758688D01*
X127493065Y-97587503D01*
X127493065Y-97587496D01*
X127472869Y-97408250D01*
X127472868Y-97408245D01*
X127439641Y-97313288D01*
X127413289Y-97237978D01*
X127402192Y-97220318D01*
X127353938Y-97143522D01*
X127317316Y-97085238D01*
X127189762Y-96957684D01*
X127136377Y-96924140D01*
X127037023Y-96861711D01*
X126866754Y-96802131D01*
X126866749Y-96802130D01*
X126687504Y-96781935D01*
X126687496Y-96781935D01*
X126508250Y-96802130D01*
X126508245Y-96802131D01*
X126337976Y-96861711D01*
X126185237Y-96957684D01*
X126057684Y-97085237D01*
X125961711Y-97237976D01*
X125902131Y-97408245D01*
X125902130Y-97408250D01*
X125881935Y-97587496D01*
X125881935Y-97587503D01*
X109188000Y-97587503D01*
X109188000Y-94837505D01*
X116822056Y-94837505D01*
X116841810Y-95151504D01*
X116841811Y-95151511D01*
X116900770Y-95460583D01*
X116997997Y-95759816D01*
X116997999Y-95759821D01*
X117131961Y-96044503D01*
X117131964Y-96044509D01*
X117300551Y-96310161D01*
X117300554Y-96310165D01*
X117501106Y-96552590D01*
X117501108Y-96552592D01*
X117501110Y-96552594D01*
X117698525Y-96737979D01*
X117730468Y-96767976D01*
X117730478Y-96767984D01*
X117985004Y-96952908D01*
X117985009Y-96952910D01*
X117985016Y-96952916D01*
X118260734Y-97104494D01*
X118260739Y-97104496D01*
X118260741Y-97104497D01*
X118260742Y-97104498D01*
X118553271Y-97220318D01*
X118553274Y-97220319D01*
X118734127Y-97266754D01*
X118858027Y-97298566D01*
X118923510Y-97306838D01*
X119170170Y-97337999D01*
X119170179Y-97337999D01*
X119170182Y-97338000D01*
X119170184Y-97338000D01*
X119484816Y-97338000D01*
X119484818Y-97338000D01*
X119484821Y-97337999D01*
X119484829Y-97337999D01*
X119680435Y-97313288D01*
X119796973Y-97298566D01*
X120101725Y-97220319D01*
X120109310Y-97217316D01*
X120394257Y-97104498D01*
X120394258Y-97104497D01*
X120394256Y-97104497D01*
X120394266Y-97104494D01*
X120669984Y-96952916D01*
X120924530Y-96767978D01*
X121116716Y-96587503D01*
X141881935Y-96587503D01*
X141902130Y-96766749D01*
X141902131Y-96766754D01*
X141961711Y-96937023D01*
X141994750Y-96989604D01*
X142057684Y-97089762D01*
X142185238Y-97217316D01*
X142238618Y-97250857D01*
X142314546Y-97298566D01*
X142337978Y-97313289D01*
X142408598Y-97338000D01*
X142508245Y-97372868D01*
X142508250Y-97372869D01*
X142687496Y-97393065D01*
X142687500Y-97393065D01*
X142687504Y-97393065D01*
X142866749Y-97372869D01*
X142866752Y-97372868D01*
X142866755Y-97372868D01*
X143037022Y-97313289D01*
X143189762Y-97217316D01*
X143235055Y-97172022D01*
X143296376Y-97138538D01*
X143366067Y-97143522D01*
X143422001Y-97185393D01*
X143446419Y-97250857D01*
X143439777Y-97300658D01*
X143402132Y-97408242D01*
X143402130Y-97408250D01*
X143381935Y-97587496D01*
X143381935Y-97587503D01*
X143402130Y-97766749D01*
X143402131Y-97766754D01*
X143461711Y-97937023D01*
X143540197Y-98061932D01*
X143557684Y-98089762D01*
X143685238Y-98217316D01*
X143709413Y-98232506D01*
X143755704Y-98284841D01*
X143766352Y-98353895D01*
X143737977Y-98417743D01*
X143709413Y-98442494D01*
X143685237Y-98457684D01*
X143557684Y-98585237D01*
X143461711Y-98737976D01*
X143402131Y-98908245D01*
X143402130Y-98908250D01*
X143381935Y-99087496D01*
X143381935Y-99087503D01*
X143402130Y-99266749D01*
X143402131Y-99266754D01*
X143461711Y-99437023D01*
X143549950Y-99577453D01*
X143557684Y-99589762D01*
X143685238Y-99717316D01*
X143837978Y-99813289D01*
X143929266Y-99845232D01*
X144008245Y-99872868D01*
X144008250Y-99872869D01*
X144187496Y-99893065D01*
X144187500Y-99893065D01*
X144187504Y-99893065D01*
X144366749Y-99872869D01*
X144366752Y-99872868D01*
X144366755Y-99872868D01*
X144537022Y-99813289D01*
X144611081Y-99766755D01*
X144621527Y-99760191D01*
X144688764Y-99741190D01*
X144753473Y-99760191D01*
X144837975Y-99813288D01*
X145008245Y-99872868D01*
X145008250Y-99872869D01*
X145187496Y-99893065D01*
X145187500Y-99893065D01*
X145187504Y-99893065D01*
X145366749Y-99872869D01*
X145366752Y-99872868D01*
X145366755Y-99872868D01*
X145537022Y-99813289D01*
X145689762Y-99717316D01*
X145817316Y-99589762D01*
X145913289Y-99437022D01*
X145972868Y-99266755D01*
X145975735Y-99241312D01*
X145993065Y-99087503D01*
X145993065Y-99087496D01*
X145972869Y-98908250D01*
X145972868Y-98908245D01*
X145937632Y-98807547D01*
X145913289Y-98737978D01*
X145817316Y-98585238D01*
X145689762Y-98457684D01*
X145665587Y-98442494D01*
X145537023Y-98361711D01*
X145366754Y-98302131D01*
X145366749Y-98302130D01*
X145187504Y-98281935D01*
X145187496Y-98281935D01*
X145008250Y-98302130D01*
X145008242Y-98302132D01*
X144900657Y-98339778D01*
X144830878Y-98343339D01*
X144770251Y-98308610D01*
X144738024Y-98246617D01*
X144744429Y-98177041D01*
X144772021Y-98135056D01*
X144817316Y-98089762D01*
X144913289Y-97937022D01*
X144972868Y-97766755D01*
X144973777Y-97758688D01*
X144993065Y-97587503D01*
X144993065Y-97587496D01*
X144972869Y-97408250D01*
X144972868Y-97408245D01*
X144939641Y-97313288D01*
X144913289Y-97237978D01*
X144902192Y-97220318D01*
X144853938Y-97143522D01*
X144818739Y-97087503D01*
X147881935Y-97087503D01*
X147902130Y-97266749D01*
X147902131Y-97266754D01*
X147961711Y-97437023D01*
X148052054Y-97580802D01*
X148057684Y-97589762D01*
X148185238Y-97717316D01*
X148196019Y-97724090D01*
X148328761Y-97807498D01*
X148337978Y-97813289D01*
X148380200Y-97828063D01*
X148508245Y-97872868D01*
X148508250Y-97872869D01*
X148687496Y-97893065D01*
X148687500Y-97893065D01*
X148687504Y-97893065D01*
X148866749Y-97872869D01*
X148866752Y-97872868D01*
X148866755Y-97872868D01*
X149037022Y-97813289D01*
X149189762Y-97717316D01*
X149317316Y-97589762D01*
X149413289Y-97437022D01*
X149472868Y-97266755D01*
X149472869Y-97266749D01*
X149493065Y-97087503D01*
X149493065Y-97087496D01*
X149472869Y-96908250D01*
X149472868Y-96908245D01*
X149413288Y-96737975D01*
X149360191Y-96653473D01*
X149341190Y-96586236D01*
X149360191Y-96521527D01*
X149413288Y-96437024D01*
X149413289Y-96437022D01*
X149472868Y-96266755D01*
X149472869Y-96266749D01*
X149493065Y-96087503D01*
X149493065Y-96087496D01*
X149472869Y-95908250D01*
X149472868Y-95908245D01*
X149424412Y-95769765D01*
X149413289Y-95737978D01*
X149318739Y-95587503D01*
X157381935Y-95587503D01*
X157402130Y-95766749D01*
X157402131Y-95766754D01*
X157461711Y-95937023D01*
X157551442Y-96079828D01*
X157557684Y-96089762D01*
X157685238Y-96217316D01*
X157763910Y-96266749D01*
X157832999Y-96310161D01*
X157837978Y-96313289D01*
X157964849Y-96357683D01*
X158008245Y-96372868D01*
X158008250Y-96372869D01*
X158187496Y-96393065D01*
X158187500Y-96393065D01*
X158187504Y-96393065D01*
X158366749Y-96372869D01*
X158366752Y-96372868D01*
X158366755Y-96372868D01*
X158537022Y-96313289D01*
X158689762Y-96217316D01*
X158817316Y-96089762D01*
X158913289Y-95937022D01*
X158972868Y-95766755D01*
X158972869Y-95766749D01*
X158993065Y-95587503D01*
X158993065Y-95587496D01*
X158972869Y-95408250D01*
X158972868Y-95408245D01*
X158913288Y-95237975D01*
X158860191Y-95153473D01*
X158841190Y-95086236D01*
X158860191Y-95021527D01*
X158913288Y-94937024D01*
X158913289Y-94937022D01*
X158972868Y-94766755D01*
X158993065Y-94587500D01*
X158985853Y-94523495D01*
X158972869Y-94408250D01*
X158972868Y-94408245D01*
X158913288Y-94237975D01*
X158860191Y-94153473D01*
X158841190Y-94086236D01*
X158860191Y-94021527D01*
X158913288Y-93937024D01*
X158913289Y-93937022D01*
X158972868Y-93766755D01*
X158972869Y-93766749D01*
X158993065Y-93587503D01*
X158993065Y-93587496D01*
X158972869Y-93408250D01*
X158972868Y-93408245D01*
X158913288Y-93237976D01*
X158817315Y-93085237D01*
X158689762Y-92957684D01*
X158537023Y-92861711D01*
X158366754Y-92802131D01*
X158366749Y-92802130D01*
X158187504Y-92781935D01*
X158187496Y-92781935D01*
X158008250Y-92802130D01*
X158008245Y-92802131D01*
X157837976Y-92861711D01*
X157685237Y-92957684D01*
X157557684Y-93085237D01*
X157461711Y-93237976D01*
X157402131Y-93408245D01*
X157402130Y-93408250D01*
X157381935Y-93587496D01*
X157381935Y-93587503D01*
X157402130Y-93766749D01*
X157402133Y-93766762D01*
X157461709Y-93937020D01*
X157514809Y-94021529D01*
X157533809Y-94088766D01*
X157514809Y-94153471D01*
X157461709Y-94237979D01*
X157402133Y-94408237D01*
X157402130Y-94408250D01*
X157381935Y-94587496D01*
X157381935Y-94587503D01*
X157402130Y-94766749D01*
X157402133Y-94766762D01*
X157461709Y-94937020D01*
X157514809Y-95021529D01*
X157533809Y-95088766D01*
X157514809Y-95153471D01*
X157461709Y-95237979D01*
X157402133Y-95408237D01*
X157402130Y-95408250D01*
X157381935Y-95587496D01*
X157381935Y-95587503D01*
X149318739Y-95587503D01*
X149317316Y-95585238D01*
X149189762Y-95457684D01*
X149133694Y-95422454D01*
X149037023Y-95361711D01*
X148866754Y-95302131D01*
X148866749Y-95302130D01*
X148687504Y-95281935D01*
X148687496Y-95281935D01*
X148508250Y-95302130D01*
X148508245Y-95302131D01*
X148337976Y-95361711D01*
X148185237Y-95457684D01*
X148057684Y-95585237D01*
X147961711Y-95737976D01*
X147902131Y-95908245D01*
X147902130Y-95908250D01*
X147881935Y-96087496D01*
X147881935Y-96087503D01*
X147902130Y-96266749D01*
X147902133Y-96266762D01*
X147961709Y-96437020D01*
X148014809Y-96521529D01*
X148033809Y-96588766D01*
X148014809Y-96653471D01*
X147961709Y-96737979D01*
X147902133Y-96908237D01*
X147902130Y-96908250D01*
X147881935Y-97087496D01*
X147881935Y-97087503D01*
X144818739Y-97087503D01*
X144817316Y-97085238D01*
X144689762Y-96957684D01*
X144636377Y-96924140D01*
X144537023Y-96861711D01*
X144366754Y-96802131D01*
X144366749Y-96802130D01*
X144187504Y-96781935D01*
X144187496Y-96781935D01*
X144008250Y-96802130D01*
X144008245Y-96802131D01*
X143837976Y-96861711D01*
X143685237Y-96957684D01*
X143639944Y-97002977D01*
X143578621Y-97036461D01*
X143508929Y-97031476D01*
X143452996Y-96989604D01*
X143428580Y-96924140D01*
X143435223Y-96874340D01*
X143472866Y-96766762D01*
X143472869Y-96766749D01*
X143493065Y-96587503D01*
X143493065Y-96587496D01*
X143472869Y-96408250D01*
X143472868Y-96408245D01*
X143448288Y-96337999D01*
X143413289Y-96237978D01*
X143317316Y-96085238D01*
X143189762Y-95957684D01*
X143037023Y-95861711D01*
X142866754Y-95802131D01*
X142866749Y-95802130D01*
X142687504Y-95781935D01*
X142687496Y-95781935D01*
X142508250Y-95802130D01*
X142508245Y-95802131D01*
X142337976Y-95861711D01*
X142185237Y-95957684D01*
X142057684Y-96085237D01*
X141961711Y-96237976D01*
X141902131Y-96408245D01*
X141902130Y-96408250D01*
X141881935Y-96587496D01*
X141881935Y-96587503D01*
X121116716Y-96587503D01*
X121153890Y-96552594D01*
X121354447Y-96310163D01*
X121523037Y-96044507D01*
X121657003Y-95759815D01*
X121754231Y-95460579D01*
X121813188Y-95151515D01*
X121814110Y-95136864D01*
X121832944Y-94837505D01*
X121832944Y-94837494D01*
X121813189Y-94523495D01*
X121813188Y-94523488D01*
X121813188Y-94523485D01*
X121754231Y-94214421D01*
X121657003Y-93915185D01*
X121523037Y-93630493D01*
X121381998Y-93408250D01*
X121354448Y-93364838D01*
X121354445Y-93364834D01*
X121153893Y-93122409D01*
X121153891Y-93122407D01*
X120924531Y-92907023D01*
X120924521Y-92907015D01*
X120669995Y-92722091D01*
X120669988Y-92722086D01*
X120669984Y-92722084D01*
X120394266Y-92570506D01*
X120394263Y-92570504D01*
X120394258Y-92570502D01*
X120394257Y-92570501D01*
X120101728Y-92454681D01*
X120101725Y-92454680D01*
X119796976Y-92376434D01*
X119796963Y-92376432D01*
X119484829Y-92337000D01*
X119484818Y-92337000D01*
X119170182Y-92337000D01*
X119170170Y-92337000D01*
X118858036Y-92376432D01*
X118858023Y-92376434D01*
X118553274Y-92454680D01*
X118553271Y-92454681D01*
X118260742Y-92570501D01*
X118260741Y-92570502D01*
X117985016Y-92722084D01*
X117985004Y-92722091D01*
X117730478Y-92907015D01*
X117730468Y-92907023D01*
X117501108Y-93122407D01*
X117501106Y-93122409D01*
X117300554Y-93364834D01*
X117300551Y-93364838D01*
X117131964Y-93630490D01*
X117131961Y-93630496D01*
X116997999Y-93915178D01*
X116997997Y-93915183D01*
X116900770Y-94214416D01*
X116841811Y-94523488D01*
X116841810Y-94523495D01*
X116822056Y-94837494D01*
X116822056Y-94837505D01*
X109188000Y-94837505D01*
X109188000Y-91352500D01*
X158331841Y-91352500D01*
X158352436Y-91587903D01*
X158352438Y-91587913D01*
X158413594Y-91816155D01*
X158413596Y-91816159D01*
X158413597Y-91816163D01*
X158513465Y-92030330D01*
X158513467Y-92030334D01*
X158621781Y-92185021D01*
X158649005Y-92223901D01*
X158816099Y-92390995D01*
X158907051Y-92454680D01*
X159009665Y-92526532D01*
X159009667Y-92526533D01*
X159009670Y-92526535D01*
X159223837Y-92626403D01*
X159452092Y-92687563D01*
X159640418Y-92704039D01*
X159687499Y-92708159D01*
X159687500Y-92708159D01*
X159687501Y-92708159D01*
X159726734Y-92704726D01*
X159922908Y-92687563D01*
X160151163Y-92626403D01*
X160365330Y-92526535D01*
X160558901Y-92390995D01*
X160725995Y-92223901D01*
X160861535Y-92030330D01*
X160961403Y-91816163D01*
X161022563Y-91587908D01*
X161043159Y-91352500D01*
X161022563Y-91117092D01*
X160961403Y-90888837D01*
X160861535Y-90674671D01*
X160766234Y-90538567D01*
X160725996Y-90481100D01*
X160705214Y-90460318D01*
X160604067Y-90359171D01*
X160570584Y-90297851D01*
X160575568Y-90228159D01*
X160617439Y-90172225D01*
X160648415Y-90155310D01*
X160779831Y-90106296D01*
X160895046Y-90020046D01*
X160981296Y-89904831D01*
X161031591Y-89769983D01*
X161038000Y-89710373D01*
X161037999Y-88077505D01*
X169901725Y-88077505D01*
X169921479Y-88391504D01*
X169921480Y-88391511D01*
X169980439Y-88700583D01*
X170077666Y-88999816D01*
X170077668Y-88999821D01*
X170211630Y-89284503D01*
X170211633Y-89284509D01*
X170380220Y-89550161D01*
X170380223Y-89550165D01*
X170580775Y-89792590D01*
X170580777Y-89792592D01*
X170810137Y-90007976D01*
X170810147Y-90007984D01*
X171064673Y-90192908D01*
X171064678Y-90192910D01*
X171064685Y-90192916D01*
X171340403Y-90344494D01*
X171340408Y-90344496D01*
X171340410Y-90344497D01*
X171340411Y-90344498D01*
X171632940Y-90460318D01*
X171632943Y-90460319D01*
X171937692Y-90538565D01*
X171937696Y-90538566D01*
X172003179Y-90546838D01*
X172249839Y-90577999D01*
X172249848Y-90577999D01*
X172249851Y-90578000D01*
X172249853Y-90578000D01*
X172564485Y-90578000D01*
X172564487Y-90578000D01*
X172564490Y-90577999D01*
X172564498Y-90577999D01*
X172750762Y-90554468D01*
X172876642Y-90538566D01*
X173181394Y-90460319D01*
X173181397Y-90460318D01*
X173473926Y-90344498D01*
X173473927Y-90344497D01*
X173473925Y-90344497D01*
X173473935Y-90344494D01*
X173749653Y-90192916D01*
X174004199Y-90007978D01*
X174233559Y-89792594D01*
X174434116Y-89550163D01*
X174602706Y-89284507D01*
X174736672Y-88999815D01*
X174833900Y-88700579D01*
X174892857Y-88391515D01*
X174912613Y-88077500D01*
X174902366Y-87914635D01*
X174892858Y-87763495D01*
X174892857Y-87763488D01*
X174892857Y-87763485D01*
X174833900Y-87454421D01*
X174736672Y-87155185D01*
X174602706Y-86870493D01*
X174434116Y-86604837D01*
X174434114Y-86604834D01*
X174233562Y-86362409D01*
X174233560Y-86362407D01*
X174004200Y-86147023D01*
X174004190Y-86147015D01*
X173749664Y-85962091D01*
X173749657Y-85962086D01*
X173749653Y-85962084D01*
X173473935Y-85810506D01*
X173473932Y-85810504D01*
X173473927Y-85810502D01*
X173473926Y-85810501D01*
X173181397Y-85694681D01*
X173181394Y-85694680D01*
X172876645Y-85616434D01*
X172876632Y-85616432D01*
X172564498Y-85577000D01*
X172564487Y-85577000D01*
X172249851Y-85577000D01*
X172249839Y-85577000D01*
X171937705Y-85616432D01*
X171937692Y-85616434D01*
X171632943Y-85694680D01*
X171632940Y-85694681D01*
X171340411Y-85810501D01*
X171340410Y-85810502D01*
X171064685Y-85962084D01*
X171064673Y-85962091D01*
X170810147Y-86147015D01*
X170810137Y-86147023D01*
X170580777Y-86362407D01*
X170580775Y-86362409D01*
X170380223Y-86604834D01*
X170380220Y-86604838D01*
X170211633Y-86870490D01*
X170211630Y-86870496D01*
X170077668Y-87155178D01*
X170077666Y-87155183D01*
X169980439Y-87454416D01*
X169921480Y-87763488D01*
X169921479Y-87763495D01*
X169901725Y-88077494D01*
X169901725Y-88077505D01*
X161037999Y-88077505D01*
X161037999Y-87914628D01*
X161031591Y-87855017D01*
X160981296Y-87720169D01*
X160981295Y-87720168D01*
X160981293Y-87720164D01*
X160895047Y-87604955D01*
X160895044Y-87604952D01*
X160779835Y-87518706D01*
X160779828Y-87518702D01*
X160644982Y-87468408D01*
X160644983Y-87468408D01*
X160585383Y-87462001D01*
X160585381Y-87462000D01*
X160585373Y-87462000D01*
X160585364Y-87462000D01*
X158789629Y-87462000D01*
X158789623Y-87462001D01*
X158730016Y-87468408D01*
X158595171Y-87518702D01*
X158595164Y-87518706D01*
X158479955Y-87604952D01*
X158479952Y-87604955D01*
X158393706Y-87720164D01*
X158393702Y-87720171D01*
X158343408Y-87855017D01*
X158337001Y-87914616D01*
X158337001Y-87914623D01*
X158337000Y-87914635D01*
X158337000Y-89710370D01*
X158337001Y-89710376D01*
X158343408Y-89769983D01*
X158393702Y-89904828D01*
X158393706Y-89904835D01*
X158479952Y-90020044D01*
X158479955Y-90020047D01*
X158595164Y-90106293D01*
X158595171Y-90106297D01*
X158726581Y-90155310D01*
X158782515Y-90197181D01*
X158806932Y-90262645D01*
X158792080Y-90330918D01*
X158770930Y-90359173D01*
X158649003Y-90481100D01*
X158513465Y-90674669D01*
X158513464Y-90674671D01*
X158413598Y-90888835D01*
X158413594Y-90888844D01*
X158352438Y-91117086D01*
X158352436Y-91117096D01*
X158331841Y-91352499D01*
X158331841Y-91352500D01*
X109188000Y-91352500D01*
X109188000Y-89587503D01*
X133881935Y-89587503D01*
X133902130Y-89766749D01*
X133902131Y-89766754D01*
X133961711Y-89937023D01*
X134006299Y-90007984D01*
X134057684Y-90089762D01*
X134185238Y-90217316D01*
X134202495Y-90228159D01*
X134313408Y-90297851D01*
X134337978Y-90313289D01*
X134469107Y-90359173D01*
X134508245Y-90372868D01*
X134508250Y-90372869D01*
X134687496Y-90393065D01*
X134687500Y-90393065D01*
X134687504Y-90393065D01*
X134866749Y-90372869D01*
X134866752Y-90372868D01*
X134866755Y-90372868D01*
X135037022Y-90313289D01*
X135189762Y-90217316D01*
X135317316Y-90089762D01*
X135413289Y-89937022D01*
X135472868Y-89766755D01*
X135479220Y-89710383D01*
X135493065Y-89587503D01*
X135493065Y-89587496D01*
X135472869Y-89408250D01*
X135472868Y-89408245D01*
X135413288Y-89237976D01*
X135317315Y-89085237D01*
X135189762Y-88957684D01*
X135037023Y-88861711D01*
X134866754Y-88802131D01*
X134866749Y-88802130D01*
X134687504Y-88781935D01*
X134687496Y-88781935D01*
X134508250Y-88802130D01*
X134508245Y-88802131D01*
X134337976Y-88861711D01*
X134185237Y-88957684D01*
X134057684Y-89085237D01*
X133961711Y-89237976D01*
X133902131Y-89408245D01*
X133902130Y-89408250D01*
X133881935Y-89587496D01*
X133881935Y-89587503D01*
X109188000Y-89587503D01*
X109188000Y-86587503D01*
X132881935Y-86587503D01*
X132902130Y-86766749D01*
X132902131Y-86766754D01*
X132961711Y-86937023D01*
X133057684Y-87089762D01*
X133185238Y-87217316D01*
X133337978Y-87313289D01*
X133508245Y-87372868D01*
X133508250Y-87372869D01*
X133687496Y-87393065D01*
X133687500Y-87393065D01*
X133687504Y-87393065D01*
X133866749Y-87372869D01*
X133866752Y-87372868D01*
X133866755Y-87372868D01*
X134037022Y-87313289D01*
X134189762Y-87217316D01*
X134317316Y-87089762D01*
X134413289Y-86937022D01*
X134472868Y-86766755D01*
X134472869Y-86766749D01*
X134493065Y-86587503D01*
X134493065Y-86587496D01*
X134472869Y-86408250D01*
X134472868Y-86408245D01*
X134413288Y-86237976D01*
X134317315Y-86085237D01*
X134189762Y-85957684D01*
X134037023Y-85861711D01*
X133866754Y-85802131D01*
X133866749Y-85802130D01*
X133687504Y-85781935D01*
X133687496Y-85781935D01*
X133508250Y-85802130D01*
X133508245Y-85802131D01*
X133337976Y-85861711D01*
X133185237Y-85957684D01*
X133057684Y-86085237D01*
X132961711Y-86237976D01*
X132902131Y-86408245D01*
X132902130Y-86408250D01*
X132881935Y-86587496D01*
X132881935Y-86587503D01*
X109188000Y-86587503D01*
X109188000Y-86091927D01*
X109188316Y-86083081D01*
X109192713Y-86021608D01*
X109202630Y-85882936D01*
X109205146Y-85865438D01*
X109246856Y-85673699D01*
X109251833Y-85656748D01*
X109320411Y-85472885D01*
X109327759Y-85456798D01*
X109390315Y-85342234D01*
X109421791Y-85284589D01*
X109431345Y-85269721D01*
X109548948Y-85112623D01*
X109560520Y-85099269D01*
X109699269Y-84960520D01*
X109712623Y-84948948D01*
X109869721Y-84831345D01*
X109884589Y-84821791D01*
X110056798Y-84727758D01*
X110072885Y-84720411D01*
X110256748Y-84651833D01*
X110273699Y-84646856D01*
X110465438Y-84605146D01*
X110482936Y-84602630D01*
X110683082Y-84588316D01*
X110691928Y-84588000D01*
X110753392Y-84588000D01*
X178121608Y-84588000D01*
X178183072Y-84588000D01*
X178191918Y-84588316D01*
G37*
%TD.AperFunction*%
%TD*%
M02*
