M48
; DRILL file {KiCad 8.0.0} date 2024-03-20T19:52:00+0900
; FORMAT={-:-/ absolute / inch / decimal}
; #@! TF.CreationDate,2024-03-20T19:52:00+09:00
; #@! TF.GenerationSoftware,Kicad,Pcbnew,8.0.0
; #@! TF.FileFunction,Plated,1,4,PTH
FMAT,2
INCH
; #@! TA.AperFunction,Plated,PTH,ViaDrill
T1C0.0118
; #@! TA.AperFunction,Plated,PTH,ComponentDrill
T2C0.0374
; #@! TA.AperFunction,Plated,PTH,ComponentDrill
T3C0.0394
; #@! TA.AperFunction,Plated,PTH,ComponentDrill
T4C0.0906
; #@! TA.AperFunction,Plated,PTH,ComponentDrill
T5C0.1260
%
G90
G05
T1
X4.9877Y-3.842
X4.9877Y-3.9208
X5.2633Y-3.409
X5.3027Y-3.5271
X5.4405Y-4.0586
X5.4405Y-4.0979
X5.4601Y-3.8814
X5.4601Y-3.9208
X5.6176Y-3.8027
X5.6176Y-4.0782
X5.6176Y-4.216
X5.6767Y-3.842
X5.6767Y-3.9011
X5.716Y-3.9011
X5.8538Y-3.783
X5.8538Y-3.8223
X6.2279Y-3.6845
X6.2279Y-3.7239
X6.2279Y-3.7633
X6.2475Y-3.9405
X6.2475Y-3.9798
X6.405Y-3.9405
X6.405Y-3.9798
T2
X4.8105Y-3.9208
X4.8105Y-4.0192
X4.8893Y-3.9208
X4.8893Y-4.0192
T3
X6.2869Y-3.4966
X6.2869Y-3.5966
X6.7759Y-3.7416
X6.7759Y-3.8507
X6.7759Y-3.9597
X6.7759Y-4.0688
X6.7759Y-4.1779
X6.8877Y-3.7962
X6.8877Y-3.9052
X6.8877Y-4.0143
X6.8877Y-4.1233
T4
X4.6979Y-3.7338
X4.6979Y-4.2062
T5
X6.7877Y-3.4676
X6.7877Y-4.4519
M30
