%TF.GenerationSoftware,KiCad,Pcbnew,8.0.1*%
%TF.CreationDate,2024-05-21T16:03:15+09:00*%
%TF.ProjectId,USB-to-RS485-Converter-Small,5553422d-746f-42d5-9253-3438352d436f,1.0*%
%TF.SameCoordinates,Original*%
%TF.FileFunction,Other,Comment*%
%FSLAX46Y46*%
G04 Gerber Fmt 4.6, Leading zero omitted, Abs format (unit mm)*
G04 Created by KiCad (PCBNEW 8.0.1) date 2024-05-21 16:03:15*
%MOMM*%
%LPD*%
G01*
G04 APERTURE LIST*
%ADD10C,0.150000*%
%ADD11C,0.100000*%
G04 APERTURE END LIST*
D10*
X192804819Y-105254165D02*
X192804819Y-104635118D01*
X192804819Y-104635118D02*
X193185771Y-104968451D01*
X193185771Y-104968451D02*
X193185771Y-104825594D01*
X193185771Y-104825594D02*
X193233390Y-104730356D01*
X193233390Y-104730356D02*
X193281009Y-104682737D01*
X193281009Y-104682737D02*
X193376247Y-104635118D01*
X193376247Y-104635118D02*
X193614342Y-104635118D01*
X193614342Y-104635118D02*
X193709580Y-104682737D01*
X193709580Y-104682737D02*
X193757200Y-104730356D01*
X193757200Y-104730356D02*
X193804819Y-104825594D01*
X193804819Y-104825594D02*
X193804819Y-105111308D01*
X193804819Y-105111308D02*
X193757200Y-105206546D01*
X193757200Y-105206546D02*
X193709580Y-105254165D01*
X192804819Y-104301784D02*
X192804819Y-103682737D01*
X192804819Y-103682737D02*
X193185771Y-104016070D01*
X193185771Y-104016070D02*
X193185771Y-103873213D01*
X193185771Y-103873213D02*
X193233390Y-103777975D01*
X193233390Y-103777975D02*
X193281009Y-103730356D01*
X193281009Y-103730356D02*
X193376247Y-103682737D01*
X193376247Y-103682737D02*
X193614342Y-103682737D01*
X193614342Y-103682737D02*
X193709580Y-103730356D01*
X193709580Y-103730356D02*
X193757200Y-103777975D01*
X193757200Y-103777975D02*
X193804819Y-103873213D01*
X193804819Y-103873213D02*
X193804819Y-104158927D01*
X193804819Y-104158927D02*
X193757200Y-104254165D01*
X193757200Y-104254165D02*
X193709580Y-104301784D01*
X193709580Y-103254165D02*
X193757200Y-103206546D01*
X193757200Y-103206546D02*
X193804819Y-103254165D01*
X193804819Y-103254165D02*
X193757200Y-103301784D01*
X193757200Y-103301784D02*
X193709580Y-103254165D01*
X193709580Y-103254165D02*
X193804819Y-103254165D01*
X192804819Y-102587499D02*
X192804819Y-102492261D01*
X192804819Y-102492261D02*
X192852438Y-102397023D01*
X192852438Y-102397023D02*
X192900057Y-102349404D01*
X192900057Y-102349404D02*
X192995295Y-102301785D01*
X192995295Y-102301785D02*
X193185771Y-102254166D01*
X193185771Y-102254166D02*
X193423866Y-102254166D01*
X193423866Y-102254166D02*
X193614342Y-102301785D01*
X193614342Y-102301785D02*
X193709580Y-102349404D01*
X193709580Y-102349404D02*
X193757200Y-102397023D01*
X193757200Y-102397023D02*
X193804819Y-102492261D01*
X193804819Y-102492261D02*
X193804819Y-102587499D01*
X193804819Y-102587499D02*
X193757200Y-102682737D01*
X193757200Y-102682737D02*
X193709580Y-102730356D01*
X193709580Y-102730356D02*
X193614342Y-102777975D01*
X193614342Y-102777975D02*
X193423866Y-102825594D01*
X193423866Y-102825594D02*
X193185771Y-102825594D01*
X193185771Y-102825594D02*
X192995295Y-102777975D01*
X192995295Y-102777975D02*
X192900057Y-102730356D01*
X192900057Y-102730356D02*
X192852438Y-102682737D01*
X192852438Y-102682737D02*
X192804819Y-102587499D01*
X192804819Y-101635118D02*
X192804819Y-101539880D01*
X192804819Y-101539880D02*
X192852438Y-101444642D01*
X192852438Y-101444642D02*
X192900057Y-101397023D01*
X192900057Y-101397023D02*
X192995295Y-101349404D01*
X192995295Y-101349404D02*
X193185771Y-101301785D01*
X193185771Y-101301785D02*
X193423866Y-101301785D01*
X193423866Y-101301785D02*
X193614342Y-101349404D01*
X193614342Y-101349404D02*
X193709580Y-101397023D01*
X193709580Y-101397023D02*
X193757200Y-101444642D01*
X193757200Y-101444642D02*
X193804819Y-101539880D01*
X193804819Y-101539880D02*
X193804819Y-101635118D01*
X193804819Y-101635118D02*
X193757200Y-101730356D01*
X193757200Y-101730356D02*
X193709580Y-101777975D01*
X193709580Y-101777975D02*
X193614342Y-101825594D01*
X193614342Y-101825594D02*
X193423866Y-101873213D01*
X193423866Y-101873213D02*
X193185771Y-101873213D01*
X193185771Y-101873213D02*
X192995295Y-101825594D01*
X192995295Y-101825594D02*
X192900057Y-101777975D01*
X192900057Y-101777975D02*
X192852438Y-101730356D01*
X192852438Y-101730356D02*
X192804819Y-101635118D01*
X192804819Y-100682737D02*
X192804819Y-100587499D01*
X192804819Y-100587499D02*
X192852438Y-100492261D01*
X192852438Y-100492261D02*
X192900057Y-100444642D01*
X192900057Y-100444642D02*
X192995295Y-100397023D01*
X192995295Y-100397023D02*
X193185771Y-100349404D01*
X193185771Y-100349404D02*
X193423866Y-100349404D01*
X193423866Y-100349404D02*
X193614342Y-100397023D01*
X193614342Y-100397023D02*
X193709580Y-100444642D01*
X193709580Y-100444642D02*
X193757200Y-100492261D01*
X193757200Y-100492261D02*
X193804819Y-100587499D01*
X193804819Y-100587499D02*
X193804819Y-100682737D01*
X193804819Y-100682737D02*
X193757200Y-100777975D01*
X193757200Y-100777975D02*
X193709580Y-100825594D01*
X193709580Y-100825594D02*
X193614342Y-100873213D01*
X193614342Y-100873213D02*
X193423866Y-100920832D01*
X193423866Y-100920832D02*
X193185771Y-100920832D01*
X193185771Y-100920832D02*
X192995295Y-100873213D01*
X192995295Y-100873213D02*
X192900057Y-100825594D01*
X192900057Y-100825594D02*
X192852438Y-100777975D01*
X192852438Y-100777975D02*
X192804819Y-100682737D01*
X192804819Y-99730356D02*
X192804819Y-99635118D01*
X192804819Y-99635118D02*
X192852438Y-99539880D01*
X192852438Y-99539880D02*
X192900057Y-99492261D01*
X192900057Y-99492261D02*
X192995295Y-99444642D01*
X192995295Y-99444642D02*
X193185771Y-99397023D01*
X193185771Y-99397023D02*
X193423866Y-99397023D01*
X193423866Y-99397023D02*
X193614342Y-99444642D01*
X193614342Y-99444642D02*
X193709580Y-99492261D01*
X193709580Y-99492261D02*
X193757200Y-99539880D01*
X193757200Y-99539880D02*
X193804819Y-99635118D01*
X193804819Y-99635118D02*
X193804819Y-99730356D01*
X193804819Y-99730356D02*
X193757200Y-99825594D01*
X193757200Y-99825594D02*
X193709580Y-99873213D01*
X193709580Y-99873213D02*
X193614342Y-99920832D01*
X193614342Y-99920832D02*
X193423866Y-99968451D01*
X193423866Y-99968451D02*
X193185771Y-99968451D01*
X193185771Y-99968451D02*
X192995295Y-99920832D01*
X192995295Y-99920832D02*
X192900057Y-99873213D01*
X192900057Y-99873213D02*
X192852438Y-99825594D01*
X192852438Y-99825594D02*
X192804819Y-99730356D01*
X193804819Y-98206546D02*
X193138152Y-98206546D01*
X193233390Y-98206546D02*
X193185771Y-98158927D01*
X193185771Y-98158927D02*
X193138152Y-98063689D01*
X193138152Y-98063689D02*
X193138152Y-97920832D01*
X193138152Y-97920832D02*
X193185771Y-97825594D01*
X193185771Y-97825594D02*
X193281009Y-97777975D01*
X193281009Y-97777975D02*
X193804819Y-97777975D01*
X193281009Y-97777975D02*
X193185771Y-97730356D01*
X193185771Y-97730356D02*
X193138152Y-97635118D01*
X193138152Y-97635118D02*
X193138152Y-97492261D01*
X193138152Y-97492261D02*
X193185771Y-97397022D01*
X193185771Y-97397022D02*
X193281009Y-97349403D01*
X193281009Y-97349403D02*
X193804819Y-97349403D01*
X193804819Y-96873213D02*
X193138152Y-96873213D01*
X193233390Y-96873213D02*
X193185771Y-96825594D01*
X193185771Y-96825594D02*
X193138152Y-96730356D01*
X193138152Y-96730356D02*
X193138152Y-96587499D01*
X193138152Y-96587499D02*
X193185771Y-96492261D01*
X193185771Y-96492261D02*
X193281009Y-96444642D01*
X193281009Y-96444642D02*
X193804819Y-96444642D01*
X193281009Y-96444642D02*
X193185771Y-96397023D01*
X193185771Y-96397023D02*
X193138152Y-96301785D01*
X193138152Y-96301785D02*
X193138152Y-96158928D01*
X193138152Y-96158928D02*
X193185771Y-96063689D01*
X193185771Y-96063689D02*
X193281009Y-96016070D01*
X193281009Y-96016070D02*
X193804819Y-96016070D01*
D11*
X180687500Y-84087500D02*
X195086420Y-84087500D01*
X180687500Y-117087500D02*
X195086420Y-117087500D01*
X194500000Y-84087500D02*
X194500000Y-117087500D01*
X194500000Y-84087500D02*
X194500000Y-117087500D01*
X194500000Y-84087500D02*
X195086421Y-85214004D01*
X194500000Y-84087500D02*
X193913579Y-85214004D01*
X194500000Y-117087500D02*
X193913579Y-115960996D01*
X194500000Y-117087500D02*
X195086421Y-115960996D01*
D10*
X139770834Y-78804819D02*
X140437500Y-78804819D01*
X140437500Y-78804819D02*
X140008929Y-79804819D01*
X141342262Y-79804819D02*
X140770834Y-79804819D01*
X141056548Y-79804819D02*
X141056548Y-78804819D01*
X141056548Y-78804819D02*
X140961310Y-78947676D01*
X140961310Y-78947676D02*
X140866072Y-79042914D01*
X140866072Y-79042914D02*
X140770834Y-79090533D01*
X141770834Y-79709580D02*
X141818453Y-79757200D01*
X141818453Y-79757200D02*
X141770834Y-79804819D01*
X141770834Y-79804819D02*
X141723215Y-79757200D01*
X141723215Y-79757200D02*
X141770834Y-79709580D01*
X141770834Y-79709580D02*
X141770834Y-79804819D01*
X142723214Y-78804819D02*
X142247024Y-78804819D01*
X142247024Y-78804819D02*
X142199405Y-79281009D01*
X142199405Y-79281009D02*
X142247024Y-79233390D01*
X142247024Y-79233390D02*
X142342262Y-79185771D01*
X142342262Y-79185771D02*
X142580357Y-79185771D01*
X142580357Y-79185771D02*
X142675595Y-79233390D01*
X142675595Y-79233390D02*
X142723214Y-79281009D01*
X142723214Y-79281009D02*
X142770833Y-79376247D01*
X142770833Y-79376247D02*
X142770833Y-79614342D01*
X142770833Y-79614342D02*
X142723214Y-79709580D01*
X142723214Y-79709580D02*
X142675595Y-79757200D01*
X142675595Y-79757200D02*
X142580357Y-79804819D01*
X142580357Y-79804819D02*
X142342262Y-79804819D01*
X142342262Y-79804819D02*
X142247024Y-79757200D01*
X142247024Y-79757200D02*
X142199405Y-79709580D01*
X143389881Y-78804819D02*
X143485119Y-78804819D01*
X143485119Y-78804819D02*
X143580357Y-78852438D01*
X143580357Y-78852438D02*
X143627976Y-78900057D01*
X143627976Y-78900057D02*
X143675595Y-78995295D01*
X143675595Y-78995295D02*
X143723214Y-79185771D01*
X143723214Y-79185771D02*
X143723214Y-79423866D01*
X143723214Y-79423866D02*
X143675595Y-79614342D01*
X143675595Y-79614342D02*
X143627976Y-79709580D01*
X143627976Y-79709580D02*
X143580357Y-79757200D01*
X143580357Y-79757200D02*
X143485119Y-79804819D01*
X143485119Y-79804819D02*
X143389881Y-79804819D01*
X143389881Y-79804819D02*
X143294643Y-79757200D01*
X143294643Y-79757200D02*
X143247024Y-79709580D01*
X143247024Y-79709580D02*
X143199405Y-79614342D01*
X143199405Y-79614342D02*
X143151786Y-79423866D01*
X143151786Y-79423866D02*
X143151786Y-79185771D01*
X143151786Y-79185771D02*
X143199405Y-78995295D01*
X143199405Y-78995295D02*
X143247024Y-78900057D01*
X143247024Y-78900057D02*
X143294643Y-78852438D01*
X143294643Y-78852438D02*
X143389881Y-78804819D01*
X144342262Y-78804819D02*
X144437500Y-78804819D01*
X144437500Y-78804819D02*
X144532738Y-78852438D01*
X144532738Y-78852438D02*
X144580357Y-78900057D01*
X144580357Y-78900057D02*
X144627976Y-78995295D01*
X144627976Y-78995295D02*
X144675595Y-79185771D01*
X144675595Y-79185771D02*
X144675595Y-79423866D01*
X144675595Y-79423866D02*
X144627976Y-79614342D01*
X144627976Y-79614342D02*
X144580357Y-79709580D01*
X144580357Y-79709580D02*
X144532738Y-79757200D01*
X144532738Y-79757200D02*
X144437500Y-79804819D01*
X144437500Y-79804819D02*
X144342262Y-79804819D01*
X144342262Y-79804819D02*
X144247024Y-79757200D01*
X144247024Y-79757200D02*
X144199405Y-79709580D01*
X144199405Y-79709580D02*
X144151786Y-79614342D01*
X144151786Y-79614342D02*
X144104167Y-79423866D01*
X144104167Y-79423866D02*
X144104167Y-79185771D01*
X144104167Y-79185771D02*
X144151786Y-78995295D01*
X144151786Y-78995295D02*
X144199405Y-78900057D01*
X144199405Y-78900057D02*
X144247024Y-78852438D01*
X144247024Y-78852438D02*
X144342262Y-78804819D01*
X145294643Y-78804819D02*
X145389881Y-78804819D01*
X145389881Y-78804819D02*
X145485119Y-78852438D01*
X145485119Y-78852438D02*
X145532738Y-78900057D01*
X145532738Y-78900057D02*
X145580357Y-78995295D01*
X145580357Y-78995295D02*
X145627976Y-79185771D01*
X145627976Y-79185771D02*
X145627976Y-79423866D01*
X145627976Y-79423866D02*
X145580357Y-79614342D01*
X145580357Y-79614342D02*
X145532738Y-79709580D01*
X145532738Y-79709580D02*
X145485119Y-79757200D01*
X145485119Y-79757200D02*
X145389881Y-79804819D01*
X145389881Y-79804819D02*
X145294643Y-79804819D01*
X145294643Y-79804819D02*
X145199405Y-79757200D01*
X145199405Y-79757200D02*
X145151786Y-79709580D01*
X145151786Y-79709580D02*
X145104167Y-79614342D01*
X145104167Y-79614342D02*
X145056548Y-79423866D01*
X145056548Y-79423866D02*
X145056548Y-79185771D01*
X145056548Y-79185771D02*
X145104167Y-78995295D01*
X145104167Y-78995295D02*
X145151786Y-78900057D01*
X145151786Y-78900057D02*
X145199405Y-78852438D01*
X145199405Y-78852438D02*
X145294643Y-78804819D01*
X146818453Y-79804819D02*
X146818453Y-79138152D01*
X146818453Y-79233390D02*
X146866072Y-79185771D01*
X146866072Y-79185771D02*
X146961310Y-79138152D01*
X146961310Y-79138152D02*
X147104167Y-79138152D01*
X147104167Y-79138152D02*
X147199405Y-79185771D01*
X147199405Y-79185771D02*
X147247024Y-79281009D01*
X147247024Y-79281009D02*
X147247024Y-79804819D01*
X147247024Y-79281009D02*
X147294643Y-79185771D01*
X147294643Y-79185771D02*
X147389881Y-79138152D01*
X147389881Y-79138152D02*
X147532738Y-79138152D01*
X147532738Y-79138152D02*
X147627977Y-79185771D01*
X147627977Y-79185771D02*
X147675596Y-79281009D01*
X147675596Y-79281009D02*
X147675596Y-79804819D01*
X148151786Y-79804819D02*
X148151786Y-79138152D01*
X148151786Y-79233390D02*
X148199405Y-79185771D01*
X148199405Y-79185771D02*
X148294643Y-79138152D01*
X148294643Y-79138152D02*
X148437500Y-79138152D01*
X148437500Y-79138152D02*
X148532738Y-79185771D01*
X148532738Y-79185771D02*
X148580357Y-79281009D01*
X148580357Y-79281009D02*
X148580357Y-79804819D01*
X148580357Y-79281009D02*
X148627976Y-79185771D01*
X148627976Y-79185771D02*
X148723214Y-79138152D01*
X148723214Y-79138152D02*
X148866071Y-79138152D01*
X148866071Y-79138152D02*
X148961310Y-79185771D01*
X148961310Y-79185771D02*
X149008929Y-79281009D01*
X149008929Y-79281009D02*
X149008929Y-79804819D01*
D11*
X180187500Y-83587500D02*
X180187500Y-79913580D01*
X108687500Y-83587500D02*
X108687500Y-79913580D01*
X180187500Y-80500000D02*
X108687500Y-80500000D01*
X180187500Y-80500000D02*
X108687500Y-80500000D01*
X180187500Y-80500000D02*
X179060996Y-81086421D01*
X180187500Y-80500000D02*
X179060996Y-79913579D01*
X108687500Y-80500000D02*
X109814004Y-79913579D01*
X108687500Y-80500000D02*
X109814004Y-81086421D01*
M02*
