%TF.GenerationSoftware,KiCad,Pcbnew,8.0.1*%
%TF.CreationDate,2024-05-21T16:03:15+09:00*%
%TF.ProjectId,USB-to-RS485-Converter-Small,5553422d-746f-42d5-9253-3438352d436f,1.0*%
%TF.SameCoordinates,Original*%
%TF.FileFunction,Copper,L1,Top*%
%TF.FilePolarity,Positive*%
%FSLAX46Y46*%
G04 Gerber Fmt 4.6, Leading zero omitted, Abs format (unit mm)*
G04 Created by KiCad (PCBNEW 8.0.1) date 2024-05-21 16:03:15*
%MOMM*%
%LPD*%
G01*
G04 APERTURE LIST*
G04 Aperture macros list*
%AMRoundRect*
0 Rectangle with rounded corners*
0 $1 Rounding radius*
0 $2 $3 $4 $5 $6 $7 $8 $9 X,Y pos of 4 corners*
0 Add a 4 corners polygon primitive as box body*
4,1,4,$2,$3,$4,$5,$6,$7,$8,$9,$2,$3,0*
0 Add four circle primitives for the rounded corners*
1,1,$1+$1,$2,$3*
1,1,$1+$1,$4,$5*
1,1,$1+$1,$6,$7*
1,1,$1+$1,$8,$9*
0 Add four rect primitives between the rounded corners*
20,1,$1+$1,$2,$3,$4,$5,0*
20,1,$1+$1,$4,$5,$6,$7,0*
20,1,$1+$1,$6,$7,$8,$9,0*
20,1,$1+$1,$8,$9,$2,$3,0*%
G04 Aperture macros list end*
%TA.AperFunction,SMDPad,CuDef*%
%ADD10RoundRect,0.150000X-0.150000X0.587500X-0.150000X-0.587500X0.150000X-0.587500X0.150000X0.587500X0*%
%TD*%
%TA.AperFunction,ComponentPad*%
%ADD11R,1.600000X1.600000*%
%TD*%
%TA.AperFunction,ComponentPad*%
%ADD12C,1.600000*%
%TD*%
%TA.AperFunction,ComponentPad*%
%ADD13C,4.000000*%
%TD*%
%TA.AperFunction,SMDPad,CuDef*%
%ADD14RoundRect,0.237500X-0.237500X0.300000X-0.237500X-0.300000X0.237500X-0.300000X0.237500X0.300000X0*%
%TD*%
%TA.AperFunction,SMDPad,CuDef*%
%ADD15RoundRect,0.237500X0.237500X-0.250000X0.237500X0.250000X-0.237500X0.250000X-0.237500X-0.250000X0*%
%TD*%
%TA.AperFunction,SMDPad,CuDef*%
%ADD16RoundRect,0.237500X-0.237500X0.250000X-0.237500X-0.250000X0.237500X-0.250000X0.237500X0.250000X0*%
%TD*%
%TA.AperFunction,SMDPad,CuDef*%
%ADD17RoundRect,0.237500X0.250000X0.237500X-0.250000X0.237500X-0.250000X-0.237500X0.250000X-0.237500X0*%
%TD*%
%TA.AperFunction,SMDPad,CuDef*%
%ADD18RoundRect,0.237500X-0.250000X-0.237500X0.250000X-0.237500X0.250000X0.237500X-0.250000X0.237500X0*%
%TD*%
%TA.AperFunction,SMDPad,CuDef*%
%ADD19RoundRect,0.150000X-0.825000X-0.150000X0.825000X-0.150000X0.825000X0.150000X-0.825000X0.150000X0*%
%TD*%
%TA.AperFunction,ComponentPad*%
%ADD20R,1.700000X1.700000*%
%TD*%
%TA.AperFunction,ComponentPad*%
%ADD21O,1.700000X1.700000*%
%TD*%
%TA.AperFunction,SMDPad,CuDef*%
%ADD22RoundRect,0.237500X-0.287500X-0.237500X0.287500X-0.237500X0.287500X0.237500X-0.287500X0.237500X0*%
%TD*%
%TA.AperFunction,SMDPad,CuDef*%
%ADD23R,1.750000X0.450000*%
%TD*%
%TA.AperFunction,ViaPad*%
%ADD24C,0.600000*%
%TD*%
%TA.AperFunction,Conductor*%
%ADD25C,0.200000*%
%TD*%
G04 APERTURE END LIST*
D10*
%TO.P,D5,1,A1*%
%TO.N,Net-(D5-A1)*%
X159500000Y-104500000D03*
%TO.P,D5,2,A2*%
%TO.N,Net-(D5-A2)*%
X157600000Y-104500000D03*
%TO.P,D5,3,common*%
%TO.N,/GND*%
X158550000Y-106375000D03*
%TD*%
D11*
%TO.P,J2,1,VBUS*%
%TO.N,/VCC*%
X124187500Y-102087500D03*
D12*
%TO.P,J2,2,D-*%
%TO.N,Net-(J2-D-)*%
X124187500Y-99587500D03*
%TO.P,J2,3,D+*%
%TO.N,Net-(J2-D+)*%
X122187500Y-99587500D03*
%TO.P,J2,4,GND*%
%TO.N,/GND*%
X122187500Y-102087500D03*
D13*
%TO.P,J2,5,Shield*%
X119327500Y-106837500D03*
X119327500Y-94837500D03*
%TD*%
D14*
%TO.P,C3,1*%
%TO.N,/VCC*%
X132687500Y-109225000D03*
%TO.P,C3,2*%
%TO.N,/GND*%
X132687500Y-110950000D03*
%TD*%
D15*
%TO.P,R4,1*%
%TO.N,Net-(U1-RXD)*%
X146687500Y-96000000D03*
%TO.P,R4,2*%
%TO.N,/GND*%
X146687500Y-94175000D03*
%TD*%
D16*
%TO.P,R5,1*%
%TO.N,/VCC*%
X143687500Y-100175000D03*
%TO.P,R5,2*%
%TO.N,Net-(U1-CBUS3)*%
X143687500Y-102000000D03*
%TD*%
D14*
%TO.P,C1,1*%
%TO.N,/VCC*%
X127187500Y-109225000D03*
%TO.P,C1,2*%
%TO.N,/GND*%
X127187500Y-110950000D03*
%TD*%
D17*
%TO.P,R2,1*%
%TO.N,Net-(D5-A1)*%
X157100000Y-99087500D03*
%TO.P,R2,2*%
%TO.N,Net-(U2-A)*%
X155275000Y-99087500D03*
%TD*%
D18*
%TO.P,R3,1*%
%TO.N,Net-(U1-TXD)*%
X147275000Y-107087500D03*
%TO.P,R3,2*%
%TO.N,/GND*%
X149100000Y-107087500D03*
%TD*%
D19*
%TO.P,U2,1,RO*%
%TO.N,Net-(U1-RXD)*%
X147525000Y-99095000D03*
%TO.P,U2,2,~{RE}*%
%TO.N,Net-(U1-CBUS3)*%
X147525000Y-100365000D03*
%TO.P,U2,3,DE*%
%TO.N,Net-(U1-CBUS2)*%
X147525000Y-101635000D03*
%TO.P,U2,4,DI*%
%TO.N,Net-(U1-TXD)*%
X147525000Y-102905000D03*
%TO.P,U2,5,GND*%
%TO.N,/GND*%
X152475000Y-102905000D03*
%TO.P,U2,6,A*%
%TO.N,Net-(U2-A)*%
X152475000Y-101635000D03*
%TO.P,U2,7,B*%
%TO.N,Net-(U2-B)*%
X152475000Y-100365000D03*
%TO.P,U2,8,VCC*%
%TO.N,/VCC*%
X152475000Y-99095000D03*
%TD*%
D17*
%TO.P,R7,1*%
%TO.N,/VCC*%
X143100000Y-89587500D03*
%TO.P,R7,2*%
%TO.N,Net-(D4-A)*%
X141275000Y-89587500D03*
%TD*%
D20*
%TO.P,J1,1,Pin_1*%
%TO.N,Net-(D5-A1)*%
X159687500Y-88812500D03*
D21*
%TO.P,J1,2,Pin_2*%
%TO.N,Net-(J1-Pin_2)*%
X159687500Y-91352500D03*
%TD*%
D15*
%TO.P,R6,1*%
%TO.N,Net-(D5-A2)*%
X161275000Y-96500000D03*
%TO.P,R6,2*%
%TO.N,Net-(J1-Pin_2)*%
X161275000Y-94675000D03*
%TD*%
D22*
%TO.P,D4,1,K*%
%TO.N,{slash}RXLED*%
X136437500Y-89587500D03*
%TO.P,D4,2,A*%
%TO.N,Net-(D4-A)*%
X138187500Y-89587500D03*
%TD*%
D18*
%TO.P,R1,1*%
%TO.N,Net-(U2-B)*%
X155275000Y-97087500D03*
%TO.P,R1,2*%
%TO.N,Net-(D5-A2)*%
X157100000Y-97087500D03*
%TD*%
D14*
%TO.P,C4,1*%
%TO.N,Net-(U1-3V3OUT)*%
X135687500Y-109225000D03*
%TO.P,C4,2*%
%TO.N,/GND*%
X135687500Y-110950000D03*
%TD*%
%TO.P,C2,1*%
%TO.N,/VCC*%
X129825000Y-109225000D03*
%TO.P,C2,2*%
%TO.N,/GND*%
X129825000Y-110950000D03*
%TD*%
D22*
%TO.P,D3,1,K*%
%TO.N,{slash}TXLED*%
X136367500Y-86587500D03*
%TO.P,D3,2,A*%
%TO.N,Net-(D3-A)*%
X138117500Y-86587500D03*
%TD*%
D13*
%TO.P,J3,0,PAD*%
%TO.N,/GND*%
X172407169Y-113077500D03*
X172407169Y-88077500D03*
D11*
%TO.P,J3,1,1*%
%TO.N,unconnected-(J3-Pad1)*%
X172107169Y-95037500D03*
D12*
%TO.P,J3,2,2*%
%TO.N,unconnected-(J3-Pad2)*%
X172107169Y-97807500D03*
%TO.P,J3,3,3*%
%TO.N,Net-(D5-A1)*%
X172107169Y-100577500D03*
%TO.P,J3,4,4*%
%TO.N,unconnected-(J3-Pad4)*%
X172107169Y-103347500D03*
%TO.P,J3,5,5*%
%TO.N,/GND*%
X172107169Y-106117500D03*
%TO.P,J3,6,6*%
%TO.N,unconnected-(J3-Pad6)*%
X174947169Y-96422500D03*
%TO.P,J3,7,7*%
%TO.N,Net-(D5-A2)*%
X174947169Y-99192500D03*
%TO.P,J3,8,8*%
%TO.N,unconnected-(J3-Pad8)*%
X174947169Y-101962500D03*
%TO.P,J3,9,9*%
%TO.N,unconnected-(J3-Pad9)*%
X174947169Y-104732500D03*
%TD*%
D17*
%TO.P,R8,1*%
%TO.N,/VCC*%
X143100000Y-86587500D03*
%TO.P,R8,2*%
%TO.N,Net-(D3-A)*%
X141275000Y-86587500D03*
%TD*%
D23*
%TO.P,U1,1,TXD*%
%TO.N,Net-(U1-TXD)*%
X133587500Y-95862500D03*
%TO.P,U1,2,DTR*%
%TO.N,unconnected-(U1-DTR-Pad2)*%
X133587500Y-96512500D03*
%TO.P,U1,3,RTS*%
%TO.N,unconnected-(U1-RTS-Pad3)*%
X133587500Y-97162500D03*
%TO.P,U1,4,VCCIO*%
%TO.N,/VCC*%
X133587500Y-97812500D03*
%TO.P,U1,5,RXD*%
%TO.N,Net-(U1-RXD)*%
X133587500Y-98462500D03*
%TO.P,U1,6,RI*%
%TO.N,unconnected-(U1-RI-Pad6)*%
X133587500Y-99112500D03*
%TO.P,U1,7,GND*%
%TO.N,/GND*%
X133587500Y-99762500D03*
%TO.P,U1,8*%
%TO.N,N/C*%
X133587500Y-100412500D03*
%TO.P,U1,9,DCR*%
%TO.N,unconnected-(U1-DCR-Pad9)*%
X133587500Y-101062500D03*
%TO.P,U1,10,DCD*%
%TO.N,unconnected-(U1-DCD-Pad10)*%
X133587500Y-101712500D03*
%TO.P,U1,11,CTS*%
%TO.N,unconnected-(U1-CTS-Pad11)*%
X133587500Y-102362500D03*
%TO.P,U1,12,CBUS4*%
%TO.N,unconnected-(U1-CBUS4-Pad12)*%
X133587500Y-103012500D03*
%TO.P,U1,13,CBUS2*%
%TO.N,Net-(U1-CBUS2)*%
X133587500Y-103662500D03*
%TO.P,U1,14,CBUS3*%
%TO.N,Net-(U1-CBUS3)*%
X133587500Y-104312500D03*
%TO.P,U1,15,USBD+*%
%TO.N,Net-(J2-D+)*%
X140787500Y-104312500D03*
%TO.P,U1,16,USBD-*%
%TO.N,Net-(J2-D-)*%
X140787500Y-103662500D03*
%TO.P,U1,17,3V3OUT*%
%TO.N,Net-(U1-3V3OUT)*%
X140787500Y-103012500D03*
%TO.P,U1,18,GND*%
%TO.N,/GND*%
X140787500Y-102362500D03*
%TO.P,U1,19,~{RESET}*%
%TO.N,unconnected-(U1-~{RESET}-Pad19)*%
X140787500Y-101712500D03*
%TO.P,U1,20,VCC*%
%TO.N,/VCC*%
X140787500Y-101062500D03*
%TO.P,U1,21,GND*%
%TO.N,/GND*%
X140787500Y-100412500D03*
%TO.P,U1,22,CBUS1*%
%TO.N,{slash}RXLED*%
X140787500Y-99762500D03*
%TO.P,U1,23,CBUS0*%
%TO.N,{slash}TXLED*%
X140787500Y-99112500D03*
%TO.P,U1,24*%
%TO.N,N/C*%
X140787500Y-98462500D03*
%TO.P,U1,25,AGND*%
%TO.N,/GND*%
X140787500Y-97812500D03*
%TO.P,U1,26,TEST*%
X140787500Y-97162500D03*
%TO.P,U1,27,OSCI*%
%TO.N,unconnected-(U1-OSCI-Pad27)*%
X140787500Y-96512500D03*
%TO.P,U1,28,OSCO*%
%TO.N,unconnected-(U1-OSCO-Pad28)*%
X140787500Y-95862500D03*
%TD*%
D24*
%TO.N,/GND*%
X148687500Y-96087500D03*
X162687500Y-100087500D03*
X158187500Y-93587500D03*
X138687500Y-98587500D03*
X158187500Y-95587500D03*
X144187500Y-99087500D03*
X138687500Y-99587500D03*
X158687500Y-100087500D03*
X145187500Y-99087500D03*
X158187500Y-94587500D03*
X158687500Y-101087500D03*
X162687500Y-101087500D03*
X148687500Y-97087500D03*
%TO.N,Net-(U1-3V3OUT)*%
X142687500Y-103587500D03*
X142687500Y-107087500D03*
%TO.N,{slash}TXLED*%
X142687500Y-96587500D03*
X133687500Y-86587500D03*
%TO.N,{slash}RXLED*%
X144187500Y-97587500D03*
X134687500Y-89587500D03*
%TO.N,Net-(J2-D+)*%
X126687500Y-97587500D03*
X138187500Y-104087500D03*
%TO.N,Net-(J2-D-)*%
X138187500Y-103087500D03*
X126687500Y-99587500D03*
%TD*%
D25*
%TO.N,/VCC*%
X146467500Y-99807500D02*
X146100000Y-100175000D01*
X140787500Y-101062500D02*
X142800000Y-101062500D01*
X132687500Y-109225000D02*
X129825000Y-109225000D01*
X142800000Y-101062500D02*
X143687500Y-100175000D01*
X143187500Y-94937500D02*
X146195778Y-94937500D01*
X146467500Y-99807500D02*
X152274500Y-99807500D01*
X143187500Y-94937500D02*
X137837500Y-94937500D01*
X148804500Y-95087500D02*
X152899500Y-99182500D01*
X143100000Y-94850000D02*
X143187500Y-94937500D01*
X143100000Y-86587500D02*
X143100000Y-89587500D01*
X124187500Y-105587500D02*
X124187500Y-102087500D01*
X127187500Y-109225000D02*
X129825000Y-109225000D01*
X146100000Y-100175000D02*
X143687500Y-100175000D01*
X146345778Y-95087500D02*
X148804500Y-95087500D01*
X152274500Y-99807500D02*
X152899500Y-99182500D01*
X143100000Y-89587500D02*
X143100000Y-94850000D01*
X125662500Y-102087500D02*
X124187500Y-102087500D01*
X134962500Y-97812500D02*
X133587500Y-97812500D01*
X132412500Y-95337500D02*
X125662500Y-102087500D01*
X134762500Y-95337500D02*
X132412500Y-95337500D01*
X134762500Y-97687500D02*
X134762500Y-95337500D01*
X134637500Y-97812500D02*
X134762500Y-97687500D01*
X137837500Y-94937500D02*
X134962500Y-97812500D01*
X127187500Y-108587500D02*
X124187500Y-105587500D01*
X127187500Y-109225000D02*
X127187500Y-108587500D01*
X133587500Y-97812500D02*
X134637500Y-97812500D01*
X146195778Y-94937500D02*
X146345778Y-95087500D01*
%TO.N,/GND*%
X138687500Y-99587500D02*
X139512500Y-100412500D01*
X140787500Y-97162500D02*
X140787500Y-97812500D01*
X138687500Y-99587500D02*
X139300000Y-100200000D01*
X139300000Y-101950000D02*
X139712500Y-102362500D01*
X139712500Y-102362500D02*
X140787500Y-102362500D01*
X139462500Y-97812500D02*
X138687500Y-98587500D01*
X140787500Y-97812500D02*
X139462500Y-97812500D01*
X139512500Y-100412500D02*
X140787500Y-100412500D01*
X138687500Y-99587500D02*
X137587500Y-99587500D01*
X137412500Y-99762500D02*
X133587500Y-99762500D01*
X137587500Y-99587500D02*
X137412500Y-99762500D01*
X139300000Y-100200000D02*
X139300000Y-101950000D01*
%TO.N,Net-(U1-3V3OUT)*%
X142687500Y-107087500D02*
X140550000Y-109225000D01*
X140550000Y-109225000D02*
X135687500Y-109225000D01*
X140787500Y-103012500D02*
X141862500Y-103012500D01*
X142437500Y-103587500D02*
X142687500Y-103587500D01*
X141862500Y-103012500D02*
X142437500Y-103587500D01*
%TO.N,Net-(D3-A)*%
X141275000Y-86587500D02*
X138117500Y-86587500D01*
%TO.N,{slash}TXLED*%
X141862500Y-99112500D02*
X142687500Y-98287500D01*
X136367500Y-86587500D02*
X133687500Y-86587500D01*
X142687500Y-98287500D02*
X142687500Y-96587500D01*
X140787500Y-99112500D02*
X141862500Y-99112500D01*
%TO.N,Net-(D4-A)*%
X138187500Y-89587500D02*
X141275000Y-89587500D01*
%TO.N,{slash}RXLED*%
X140787500Y-99762500D02*
X142012500Y-99762500D01*
X142012500Y-99762500D02*
X144187500Y-97587500D01*
X134687500Y-89587500D02*
X136437500Y-89587500D01*
%TO.N,Net-(J1-Pin_2)*%
X161275000Y-92940000D02*
X161275000Y-94675000D01*
X159687500Y-91352500D02*
X161275000Y-92940000D01*
%TO.N,Net-(J2-D+)*%
X122187500Y-99587500D02*
X124187500Y-97587500D01*
X138412500Y-104312500D02*
X138187500Y-104087500D01*
X140787500Y-104312500D02*
X138412500Y-104312500D01*
X124187500Y-97587500D02*
X126687500Y-97587500D01*
%TO.N,Net-(J2-D-)*%
X140787500Y-103662500D02*
X138762500Y-103662500D01*
X124187500Y-99587500D02*
X126687500Y-99587500D01*
X138762500Y-103662500D02*
X138187500Y-103087500D01*
%TO.N,Net-(D5-A2)*%
X157600000Y-103475000D02*
X157600000Y-104500000D01*
X161777500Y-99087500D02*
X161882500Y-99192500D01*
X161275000Y-96500000D02*
X161275000Y-98585000D01*
X159087500Y-99075000D02*
X161765000Y-99075000D01*
X157100000Y-97087500D02*
X159087500Y-99075000D01*
X161882500Y-99192500D02*
X174947169Y-99192500D01*
X161765000Y-99075000D02*
X161777500Y-99087500D01*
X161882500Y-99192500D02*
X157600000Y-103475000D01*
X161275000Y-98585000D02*
X161777500Y-99087500D01*
%TO.N,Net-(D5-A1)*%
X156312500Y-99875000D02*
X157100000Y-99087500D01*
X156537500Y-105537500D02*
X156312500Y-105312500D01*
X159500000Y-104500000D02*
X160537500Y-104500000D01*
X158009448Y-105537500D02*
X156537500Y-105537500D01*
X164460000Y-100577500D02*
X172107169Y-100577500D01*
X159500000Y-104500000D02*
X159046948Y-104500000D01*
X156312500Y-105312500D02*
X156312500Y-99875000D01*
X160537500Y-104500000D02*
X164460000Y-100577500D01*
X156312500Y-98300000D02*
X156312500Y-92187500D01*
X157100000Y-99087500D02*
X156312500Y-98300000D01*
X156312500Y-92187500D02*
X159687500Y-88812500D01*
X159046948Y-104500000D02*
X158009448Y-105537500D01*
%TO.N,Net-(U2-B)*%
X153337000Y-100452500D02*
X152899500Y-100452500D01*
X153962000Y-98400500D02*
X153962000Y-99827500D01*
X155275000Y-97087500D02*
X153962000Y-98400500D01*
X153962000Y-99827500D02*
X153337000Y-100452500D01*
%TO.N,Net-(U2-A)*%
X152899500Y-101722500D02*
X153337000Y-101722500D01*
X155275000Y-99784500D02*
X155275000Y-99087500D01*
X153337000Y-101722500D02*
X155275000Y-99784500D01*
%TO.N,Net-(U1-TXD)*%
X132996814Y-105987500D02*
X131687500Y-104678186D01*
X144480500Y-105987500D02*
X132996814Y-105987500D01*
X131687500Y-104678186D02*
X131687500Y-96687500D01*
X131687500Y-96687500D02*
X132512500Y-95862500D01*
X145687500Y-107087500D02*
X144534000Y-105934000D01*
X132512500Y-95862500D02*
X133587500Y-95862500D01*
X147475500Y-102992500D02*
X144534000Y-105934000D01*
X147275000Y-107087500D02*
X145687500Y-107087500D01*
X144534000Y-105934000D02*
X144480500Y-105987500D01*
%TO.N,Net-(U1-RXD)*%
X146687500Y-98394500D02*
X147475500Y-99182500D01*
X139612500Y-95337500D02*
X143630500Y-95337500D01*
X136487500Y-98462500D02*
X139612500Y-95337500D01*
X143630500Y-95337500D02*
X147475500Y-99182500D01*
X146687500Y-96000000D02*
X146687500Y-98394500D01*
X133587500Y-98462500D02*
X136487500Y-98462500D01*
%TO.N,Net-(U1-CBUS3)*%
X147038000Y-100452500D02*
X146295250Y-101195250D01*
X146187500Y-101087500D02*
X146295250Y-101195250D01*
X144600000Y-101087500D02*
X146187500Y-101087500D01*
X142653000Y-104837500D02*
X134112500Y-104837500D01*
X147475500Y-100452500D02*
X147038000Y-100452500D01*
X134112500Y-104837500D02*
X133587500Y-104312500D01*
X146295250Y-101195250D02*
X142653000Y-104837500D01*
X143687500Y-102000000D02*
X144600000Y-101087500D01*
%TO.N,Net-(U1-CBUS2)*%
X133162500Y-105587500D02*
X132187500Y-104612500D01*
X132612500Y-103662500D02*
X133587500Y-103662500D01*
X147038000Y-101722500D02*
X143173000Y-105587500D01*
X147475500Y-101722500D02*
X147038000Y-101722500D01*
X143173000Y-105587500D02*
X133162500Y-105587500D01*
X132187500Y-104612500D02*
X132187500Y-104087500D01*
X132187500Y-104087500D02*
X132612500Y-103662500D01*
%TD*%
%TA.AperFunction,Conductor*%
%TO.N,/GND*%
G36*
X139331334Y-96570413D02*
G01*
X139387267Y-96612285D01*
X139411684Y-96677749D01*
X139412000Y-96686594D01*
X139412000Y-96785368D01*
X139412001Y-96785380D01*
X139416431Y-96826593D01*
X139416431Y-96853096D01*
X139412500Y-96889665D01*
X139412500Y-96937500D01*
X139428111Y-96953111D01*
X139441984Y-96957185D01*
X139474211Y-96987188D01*
X139550998Y-97089762D01*
X139554955Y-97095047D01*
X139647376Y-97164234D01*
X139689247Y-97220168D01*
X139694231Y-97289859D01*
X139660745Y-97351182D01*
X139599422Y-97384666D01*
X139573065Y-97387500D01*
X139412500Y-97387500D01*
X139412500Y-97435335D01*
X139416683Y-97474248D01*
X139416683Y-97500752D01*
X139412500Y-97539664D01*
X139412500Y-97587500D01*
X139573065Y-97587500D01*
X139640104Y-97607185D01*
X139685859Y-97659989D01*
X139695803Y-97729147D01*
X139666778Y-97792703D01*
X139647376Y-97810766D01*
X139554955Y-97879952D01*
X139474211Y-97987812D01*
X139426394Y-98023605D01*
X139412500Y-98037500D01*
X139412500Y-98085332D01*
X139416431Y-98121899D01*
X139416431Y-98148405D01*
X139412000Y-98189622D01*
X139412000Y-98735369D01*
X139412001Y-98735378D01*
X139416179Y-98774245D01*
X139416179Y-98800750D01*
X139412000Y-98839622D01*
X139412000Y-99385369D01*
X139412001Y-99385378D01*
X139416179Y-99424245D01*
X139416179Y-99450750D01*
X139412000Y-99489622D01*
X139412000Y-100035369D01*
X139412001Y-100035380D01*
X139416431Y-100076593D01*
X139416431Y-100103096D01*
X139412500Y-100139665D01*
X139412500Y-100187500D01*
X139428111Y-100203111D01*
X139441984Y-100207185D01*
X139474211Y-100237189D01*
X139549820Y-100338189D01*
X139574238Y-100403653D01*
X139559387Y-100471926D01*
X139549820Y-100486811D01*
X139474211Y-100587811D01*
X139426392Y-100623607D01*
X139412500Y-100637500D01*
X139412500Y-100685332D01*
X139416431Y-100721899D01*
X139416431Y-100748405D01*
X139412000Y-100789622D01*
X139412000Y-101335369D01*
X139412001Y-101335378D01*
X139416179Y-101374245D01*
X139416179Y-101400750D01*
X139412000Y-101439622D01*
X139412000Y-101985369D01*
X139412001Y-101985380D01*
X139416431Y-102026593D01*
X139416431Y-102053096D01*
X139412500Y-102089665D01*
X139412500Y-102137500D01*
X139428111Y-102153111D01*
X139441984Y-102157185D01*
X139474211Y-102187189D01*
X139549820Y-102288189D01*
X139574238Y-102353653D01*
X139559387Y-102421926D01*
X139549820Y-102436811D01*
X139474211Y-102537811D01*
X139426392Y-102573607D01*
X139412500Y-102587500D01*
X139412500Y-102635332D01*
X139416431Y-102671899D01*
X139416431Y-102698405D01*
X139412000Y-102739622D01*
X139412000Y-102739627D01*
X139412000Y-102897477D01*
X139412001Y-102937999D01*
X139392317Y-103005039D01*
X139339513Y-103050794D01*
X139288001Y-103062000D01*
X139101005Y-103062000D01*
X139033966Y-103042315D01*
X138988211Y-102989511D01*
X138977785Y-102951882D01*
X138972869Y-102908248D01*
X138913289Y-102737978D01*
X138889899Y-102700753D01*
X138817316Y-102585238D01*
X138689762Y-102457684D01*
X138656543Y-102436811D01*
X138537023Y-102361711D01*
X138366754Y-102302131D01*
X138366749Y-102302130D01*
X138187504Y-102281935D01*
X138187496Y-102281935D01*
X138008250Y-102302130D01*
X138008245Y-102302131D01*
X137837976Y-102361711D01*
X137685237Y-102457684D01*
X137557684Y-102585237D01*
X137461711Y-102737976D01*
X137402131Y-102908245D01*
X137402130Y-102908250D01*
X137381935Y-103087496D01*
X137381935Y-103087503D01*
X137402130Y-103266749D01*
X137402133Y-103266762D01*
X137461709Y-103437020D01*
X137514809Y-103521529D01*
X137533809Y-103588766D01*
X137514809Y-103653471D01*
X137461709Y-103737979D01*
X137402133Y-103908237D01*
X137402130Y-103908250D01*
X137381935Y-104087496D01*
X137381935Y-104087498D01*
X137383244Y-104099114D01*
X137371191Y-104167936D01*
X137323843Y-104219316D01*
X137260024Y-104237000D01*
X135086999Y-104237000D01*
X135019960Y-104217315D01*
X134974205Y-104164511D01*
X134962999Y-104113000D01*
X134962999Y-104039628D01*
X134962998Y-104039611D01*
X134958820Y-104000753D01*
X134958820Y-103974247D01*
X134963000Y-103935373D01*
X134962999Y-103389628D01*
X134962998Y-103389611D01*
X134958820Y-103350753D01*
X134958820Y-103324247D01*
X134963000Y-103285373D01*
X134962999Y-102739628D01*
X134962999Y-102739627D01*
X134962998Y-102739611D01*
X134958820Y-102700753D01*
X134958820Y-102674247D01*
X134963000Y-102635373D01*
X134962999Y-102089628D01*
X134962998Y-102089611D01*
X134958820Y-102050753D01*
X134958820Y-102024247D01*
X134963000Y-101985373D01*
X134962999Y-101439628D01*
X134962999Y-101439627D01*
X134962998Y-101439611D01*
X134958820Y-101400753D01*
X134958820Y-101374245D01*
X134963000Y-101335373D01*
X134962999Y-100789628D01*
X134962999Y-100789627D01*
X134962998Y-100789611D01*
X134958820Y-100750753D01*
X134958820Y-100724247D01*
X134963000Y-100685373D01*
X134962999Y-100139628D01*
X134958567Y-100098398D01*
X134958568Y-100071893D01*
X134962499Y-100035333D01*
X134962500Y-100035319D01*
X134962500Y-99987500D01*
X134946888Y-99971888D01*
X134933016Y-99967815D01*
X134900789Y-99937812D01*
X134862886Y-99887181D01*
X134825178Y-99836809D01*
X134800761Y-99771348D01*
X134815612Y-99703075D01*
X134825173Y-99688196D01*
X134887000Y-99605607D01*
X134900789Y-99587188D01*
X134948605Y-99551394D01*
X134962500Y-99537500D01*
X134962500Y-99489682D01*
X134962499Y-99489664D01*
X134958568Y-99453102D01*
X134958568Y-99426594D01*
X134963000Y-99385373D01*
X134962999Y-99186999D01*
X134982683Y-99119961D01*
X135035487Y-99074206D01*
X135086999Y-99063000D01*
X136400831Y-99063000D01*
X136400847Y-99063001D01*
X136408443Y-99063001D01*
X136566554Y-99063001D01*
X136566557Y-99063001D01*
X136719285Y-99022077D01*
X136769404Y-98993139D01*
X136856216Y-98943020D01*
X136968020Y-98831216D01*
X136968020Y-98831214D01*
X136978228Y-98821007D01*
X136978230Y-98821004D01*
X139200321Y-96598912D01*
X139261642Y-96565429D01*
X139331334Y-96570413D01*
G37*
%TD.AperFunction*%
%TA.AperFunction,Conductor*%
G36*
X164222059Y-99812685D02*
G01*
X164267814Y-99865489D01*
X164277758Y-99934647D01*
X164248733Y-99998203D01*
X164217020Y-100024386D01*
X164168025Y-100052674D01*
X164091285Y-100096979D01*
X164091282Y-100096981D01*
X160464033Y-103724230D01*
X160402710Y-103757715D01*
X160333018Y-103752731D01*
X160277085Y-103710859D01*
X160257275Y-103671140D01*
X160251745Y-103652105D01*
X160251744Y-103652103D01*
X160251744Y-103652102D01*
X160168081Y-103510635D01*
X160168079Y-103510633D01*
X160168076Y-103510629D01*
X160051870Y-103394423D01*
X160051862Y-103394417D01*
X159917909Y-103315198D01*
X159910398Y-103310756D01*
X159910397Y-103310755D01*
X159910396Y-103310755D01*
X159910393Y-103310754D01*
X159752573Y-103264902D01*
X159752567Y-103264901D01*
X159715701Y-103262000D01*
X159715694Y-103262000D01*
X159284306Y-103262000D01*
X159284298Y-103262000D01*
X159247432Y-103264901D01*
X159247426Y-103264902D01*
X159089606Y-103310754D01*
X159089603Y-103310755D01*
X158948137Y-103394417D01*
X158948129Y-103394423D01*
X158831923Y-103510629D01*
X158831917Y-103510637D01*
X158748255Y-103652103D01*
X158748254Y-103652106D01*
X158702402Y-103809926D01*
X158702401Y-103809932D01*
X158699500Y-103846798D01*
X158699500Y-103946850D01*
X158679815Y-104013889D01*
X158663181Y-104034531D01*
X158612181Y-104085531D01*
X158550858Y-104119016D01*
X158481166Y-104114032D01*
X158425233Y-104072160D01*
X158400816Y-104006696D01*
X158400500Y-103997850D01*
X158400500Y-103846813D01*
X158400499Y-103846798D01*
X158397598Y-103809932D01*
X158397597Y-103809926D01*
X158354281Y-103660833D01*
X158354480Y-103590964D01*
X158385674Y-103538559D01*
X162094917Y-99829319D01*
X162156240Y-99795834D01*
X162182598Y-99793000D01*
X164155020Y-99793000D01*
X164222059Y-99812685D01*
G37*
%TD.AperFunction*%
%TA.AperFunction,Conductor*%
G36*
X158293201Y-99130383D02*
G01*
X158299680Y-99136415D01*
X158602639Y-99439374D01*
X158602649Y-99439385D01*
X158606979Y-99443715D01*
X158606980Y-99443716D01*
X158718784Y-99555520D01*
X158718786Y-99555521D01*
X158718790Y-99555524D01*
X158774175Y-99587500D01*
X158855716Y-99634577D01*
X158961863Y-99663019D01*
X158961862Y-99663019D01*
X158971705Y-99665656D01*
X159008442Y-99675500D01*
X159008443Y-99675500D01*
X160250902Y-99675500D01*
X160317941Y-99695185D01*
X160363696Y-99747989D01*
X160373640Y-99817147D01*
X160344615Y-99880703D01*
X160338583Y-99887181D01*
X157124681Y-103101083D01*
X157063358Y-103134568D01*
X156993666Y-103129584D01*
X156937733Y-103087712D01*
X156913316Y-103022248D01*
X156913000Y-103013402D01*
X156913000Y-100186999D01*
X156932685Y-100119960D01*
X156985489Y-100074205D01*
X157037000Y-100062999D01*
X157399170Y-100062999D01*
X157399176Y-100062999D01*
X157500253Y-100052674D01*
X157664016Y-99998408D01*
X157810850Y-99907840D01*
X157932840Y-99785850D01*
X158023408Y-99639016D01*
X158077674Y-99475253D01*
X158088000Y-99374177D01*
X158087999Y-99224094D01*
X158107683Y-99157057D01*
X158160487Y-99111302D01*
X158229645Y-99101358D01*
X158293201Y-99130383D01*
G37*
%TD.AperFunction*%
%TA.AperFunction,Conductor*%
G36*
X145143527Y-97707908D02*
G01*
X145174014Y-97730249D01*
X146053180Y-98609415D01*
X146086665Y-98670738D01*
X146084575Y-98731691D01*
X146052402Y-98842426D01*
X146052401Y-98842432D01*
X146049500Y-98879298D01*
X146049500Y-99310686D01*
X146049501Y-99310716D01*
X146049799Y-99314507D01*
X146035426Y-99382882D01*
X146013865Y-99411897D01*
X145986983Y-99438781D01*
X145986982Y-99438780D01*
X145986978Y-99438786D01*
X145887583Y-99538181D01*
X145826260Y-99571666D01*
X145799902Y-99574500D01*
X144645111Y-99574500D01*
X144578072Y-99554815D01*
X144539572Y-99515596D01*
X144507840Y-99464150D01*
X144385851Y-99342161D01*
X144385850Y-99342160D01*
X144239016Y-99251592D01*
X144075253Y-99197326D01*
X144075251Y-99197325D01*
X143974184Y-99187000D01*
X143974177Y-99187000D01*
X143736596Y-99187000D01*
X143669557Y-99167315D01*
X143623802Y-99114511D01*
X143613858Y-99045353D01*
X143642883Y-98981797D01*
X143648915Y-98975319D01*
X143892543Y-98731691D01*
X144206035Y-98418198D01*
X144267356Y-98384715D01*
X144279811Y-98382663D01*
X144366755Y-98372868D01*
X144537022Y-98313289D01*
X144689762Y-98217316D01*
X144817316Y-98089762D01*
X144913289Y-97937022D01*
X144969292Y-97776974D01*
X145010013Y-97720200D01*
X145074965Y-97694452D01*
X145143527Y-97707908D01*
G37*
%TD.AperFunction*%
%TA.AperFunction,Conductor*%
G36*
X148571442Y-95707685D02*
G01*
X148592084Y-95724319D01*
X151183727Y-98315963D01*
X151217212Y-98377286D01*
X151212228Y-98446978D01*
X151183728Y-98491324D01*
X151131924Y-98543128D01*
X151131917Y-98543137D01*
X151048255Y-98684603D01*
X151048254Y-98684606D01*
X151002402Y-98842426D01*
X151002401Y-98842432D01*
X150999500Y-98879298D01*
X150999500Y-99083000D01*
X150979815Y-99150039D01*
X150927011Y-99195794D01*
X150875500Y-99207000D01*
X149124500Y-99207000D01*
X149057461Y-99187315D01*
X149011706Y-99134511D01*
X149000500Y-99083000D01*
X149000500Y-98879313D01*
X149000499Y-98879298D01*
X148997598Y-98842432D01*
X148997597Y-98842426D01*
X148951745Y-98684606D01*
X148951744Y-98684603D01*
X148951744Y-98684602D01*
X148868081Y-98543135D01*
X148868079Y-98543133D01*
X148868076Y-98543129D01*
X148751870Y-98426923D01*
X148751862Y-98426917D01*
X148639992Y-98360758D01*
X148610398Y-98343256D01*
X148610397Y-98343255D01*
X148610396Y-98343255D01*
X148610393Y-98343254D01*
X148452573Y-98297402D01*
X148452567Y-98297401D01*
X148415701Y-98294500D01*
X148415694Y-98294500D01*
X147488097Y-98294500D01*
X147421058Y-98274815D01*
X147400416Y-98258181D01*
X147324319Y-98182084D01*
X147290834Y-98120761D01*
X147288000Y-98094403D01*
X147288000Y-96962400D01*
X147307685Y-96895361D01*
X147346901Y-96856863D01*
X147385850Y-96832840D01*
X147507840Y-96710850D01*
X147598408Y-96564016D01*
X147652674Y-96400253D01*
X147663000Y-96299177D01*
X147662999Y-95811999D01*
X147682683Y-95744961D01*
X147735487Y-95699206D01*
X147786999Y-95688000D01*
X148504403Y-95688000D01*
X148571442Y-95707685D01*
G37*
%TD.AperFunction*%
%TA.AperFunction,Conductor*%
G36*
X158254083Y-91197665D02*
G01*
X158310016Y-91239537D01*
X158334433Y-91305001D01*
X158334277Y-91324654D01*
X158331841Y-91352497D01*
X158331841Y-91352500D01*
X158352436Y-91587903D01*
X158352438Y-91587913D01*
X158413594Y-91816155D01*
X158413596Y-91816159D01*
X158413597Y-91816163D01*
X158513465Y-92030330D01*
X158513467Y-92030334D01*
X158621781Y-92185021D01*
X158649005Y-92223901D01*
X158816099Y-92390995D01*
X158907706Y-92455139D01*
X159009665Y-92526532D01*
X159009667Y-92526533D01*
X159009670Y-92526535D01*
X159223837Y-92626403D01*
X159452092Y-92687563D01*
X159640418Y-92704039D01*
X159687499Y-92708159D01*
X159687500Y-92708159D01*
X159687501Y-92708159D01*
X159726734Y-92704726D01*
X159922908Y-92687563D01*
X160051257Y-92653172D01*
X160121106Y-92654835D01*
X160171031Y-92685266D01*
X160638181Y-93152416D01*
X160671666Y-93213739D01*
X160674500Y-93240097D01*
X160674500Y-93712598D01*
X160654815Y-93779637D01*
X160615598Y-93818136D01*
X160576650Y-93842159D01*
X160454661Y-93964148D01*
X160364093Y-94110981D01*
X160364092Y-94110984D01*
X160309826Y-94274747D01*
X160309826Y-94274748D01*
X160309825Y-94274748D01*
X160299500Y-94375815D01*
X160299500Y-94974169D01*
X160299501Y-94974187D01*
X160309825Y-95075252D01*
X160364092Y-95239015D01*
X160364093Y-95239018D01*
X160454661Y-95385851D01*
X160568629Y-95499819D01*
X160602114Y-95561142D01*
X160597130Y-95630834D01*
X160568629Y-95675181D01*
X160454661Y-95789148D01*
X160364093Y-95935981D01*
X160364091Y-95935986D01*
X160346602Y-95988766D01*
X160309826Y-96099747D01*
X160309826Y-96099748D01*
X160309825Y-96099748D01*
X160299500Y-96200815D01*
X160299500Y-96799169D01*
X160299501Y-96799187D01*
X160309825Y-96900252D01*
X160339434Y-96989604D01*
X160364092Y-97064016D01*
X160454660Y-97210850D01*
X160576650Y-97332840D01*
X160615597Y-97356862D01*
X160662320Y-97408807D01*
X160674500Y-97462400D01*
X160674500Y-98350500D01*
X160654815Y-98417539D01*
X160602011Y-98463294D01*
X160550500Y-98474500D01*
X159387597Y-98474500D01*
X159320558Y-98454815D01*
X159299916Y-98438181D01*
X158124318Y-97262583D01*
X158090833Y-97201260D01*
X158087999Y-97174902D01*
X158087999Y-96800830D01*
X158087998Y-96800813D01*
X158077674Y-96699747D01*
X158023408Y-96535984D01*
X157932840Y-96389150D01*
X157810850Y-96267160D01*
X157695170Y-96195808D01*
X157664018Y-96176593D01*
X157664013Y-96176591D01*
X157659767Y-96175184D01*
X157500253Y-96122326D01*
X157500251Y-96122325D01*
X157399184Y-96112000D01*
X157399177Y-96112000D01*
X157037000Y-96112000D01*
X156969961Y-96092315D01*
X156924206Y-96039511D01*
X156913000Y-95988000D01*
X156913000Y-92487596D01*
X156932685Y-92420557D01*
X156949314Y-92399920D01*
X158123068Y-91226165D01*
X158184391Y-91192681D01*
X158254083Y-91197665D01*
G37*
%TD.AperFunction*%
%TA.AperFunction,Conductor*%
G36*
X140955539Y-97257684D02*
G01*
X141001294Y-97310488D01*
X141012500Y-97361999D01*
X141012500Y-97613000D01*
X140992815Y-97680039D01*
X140940011Y-97725794D01*
X140888500Y-97737000D01*
X140686500Y-97737000D01*
X140619461Y-97717315D01*
X140573706Y-97664511D01*
X140562500Y-97613000D01*
X140562500Y-97361999D01*
X140582185Y-97294960D01*
X140634989Y-97249205D01*
X140686497Y-97237999D01*
X140888501Y-97237999D01*
X140955539Y-97257684D01*
G37*
%TD.AperFunction*%
%TA.AperFunction,Conductor*%
G36*
X178191918Y-84588316D02*
G01*
X178392061Y-84602630D01*
X178409563Y-84605147D01*
X178601297Y-84646855D01*
X178618255Y-84651834D01*
X178802109Y-84720409D01*
X178818201Y-84727759D01*
X178990404Y-84821788D01*
X179005284Y-84831349D01*
X179162367Y-84948941D01*
X179175737Y-84960527D01*
X179314472Y-85099262D01*
X179326058Y-85112632D01*
X179443646Y-85269710D01*
X179453211Y-85284595D01*
X179547240Y-85456798D01*
X179554590Y-85472890D01*
X179623162Y-85656736D01*
X179628146Y-85673712D01*
X179669851Y-85865431D01*
X179672369Y-85882942D01*
X179686684Y-86083080D01*
X179687000Y-86091927D01*
X179687000Y-115083072D01*
X179686684Y-115091919D01*
X179672369Y-115292057D01*
X179669851Y-115309568D01*
X179628146Y-115501287D01*
X179623162Y-115518263D01*
X179554590Y-115702109D01*
X179547240Y-115718201D01*
X179453211Y-115890404D01*
X179443646Y-115905289D01*
X179326058Y-116062367D01*
X179314472Y-116075737D01*
X179175737Y-116214472D01*
X179162367Y-116226058D01*
X179005289Y-116343646D01*
X178990404Y-116353211D01*
X178818201Y-116447240D01*
X178802109Y-116454590D01*
X178618263Y-116523162D01*
X178601287Y-116528146D01*
X178409568Y-116569851D01*
X178392057Y-116572369D01*
X178211279Y-116585299D01*
X178191917Y-116586684D01*
X178183072Y-116587000D01*
X110691928Y-116587000D01*
X110683082Y-116586684D01*
X110661122Y-116585113D01*
X110482942Y-116572369D01*
X110465431Y-116569851D01*
X110273712Y-116528146D01*
X110256736Y-116523162D01*
X110072890Y-116454590D01*
X110056798Y-116447240D01*
X109884595Y-116353211D01*
X109869710Y-116343646D01*
X109712632Y-116226058D01*
X109699262Y-116214472D01*
X109560527Y-116075737D01*
X109548941Y-116062367D01*
X109431349Y-115905284D01*
X109421788Y-115890404D01*
X109327759Y-115718201D01*
X109320409Y-115702109D01*
X109273932Y-115577500D01*
X109251834Y-115518255D01*
X109246855Y-115501297D01*
X109205147Y-115309563D01*
X109202630Y-115292056D01*
X109195509Y-115192496D01*
X109188316Y-115091918D01*
X109188000Y-115083072D01*
X109188000Y-113077505D01*
X169902226Y-113077505D01*
X169921976Y-113391442D01*
X169921977Y-113391449D01*
X169980924Y-113700458D01*
X170078132Y-113999632D01*
X170078134Y-113999637D01*
X170212069Y-114284261D01*
X170212072Y-114284267D01*
X170380626Y-114549867D01*
X170380629Y-114549871D01*
X170471455Y-114659660D01*
X171112917Y-114018198D01*
X171186757Y-114119830D01*
X171364839Y-114297912D01*
X171466469Y-114371750D01*
X170822140Y-115016079D01*
X170822141Y-115016081D01*
X171064941Y-115192485D01*
X171064959Y-115192496D01*
X171340616Y-115344040D01*
X171340624Y-115344044D01*
X171633095Y-115459840D01*
X171937789Y-115538073D01*
X171937798Y-115538075D01*
X172249870Y-115577499D01*
X172249884Y-115577500D01*
X172564454Y-115577500D01*
X172564467Y-115577499D01*
X172876539Y-115538075D01*
X172876548Y-115538073D01*
X173181242Y-115459840D01*
X173473713Y-115344044D01*
X173473721Y-115344040D01*
X173749378Y-115192496D01*
X173749388Y-115192490D01*
X173992195Y-115016079D01*
X173992196Y-115016079D01*
X173347867Y-114371751D01*
X173449499Y-114297912D01*
X173627581Y-114119830D01*
X173701420Y-114018199D01*
X174342881Y-114659660D01*
X174433713Y-114549864D01*
X174602265Y-114284267D01*
X174602268Y-114284261D01*
X174736203Y-113999637D01*
X174736205Y-113999632D01*
X174833413Y-113700458D01*
X174892360Y-113391449D01*
X174892361Y-113391442D01*
X174912112Y-113077505D01*
X174912112Y-113077494D01*
X174892361Y-112763557D01*
X174892360Y-112763550D01*
X174833413Y-112454541D01*
X174736205Y-112155367D01*
X174736203Y-112155362D01*
X174602268Y-111870738D01*
X174602265Y-111870732D01*
X174433711Y-111605132D01*
X174433708Y-111605128D01*
X174342881Y-111495338D01*
X173701419Y-112136800D01*
X173627581Y-112035170D01*
X173449499Y-111857088D01*
X173347867Y-111783248D01*
X173992196Y-111138919D01*
X173992195Y-111138917D01*
X173749396Y-110962514D01*
X173749378Y-110962503D01*
X173473721Y-110810959D01*
X173473713Y-110810955D01*
X173181242Y-110695159D01*
X172876548Y-110616926D01*
X172876539Y-110616924D01*
X172564467Y-110577500D01*
X172249870Y-110577500D01*
X171937798Y-110616924D01*
X171937789Y-110616926D01*
X171633095Y-110695159D01*
X171340624Y-110810955D01*
X171340616Y-110810959D01*
X171064956Y-110962504D01*
X171064951Y-110962507D01*
X170822141Y-111138918D01*
X170822140Y-111138919D01*
X171466470Y-111783248D01*
X171364839Y-111857088D01*
X171186757Y-112035170D01*
X171112917Y-112136800D01*
X170471455Y-111495338D01*
X170471454Y-111495338D01*
X170380628Y-111605129D01*
X170380626Y-111605132D01*
X170212072Y-111870732D01*
X170212069Y-111870738D01*
X170078134Y-112155362D01*
X170078132Y-112155367D01*
X169980924Y-112454541D01*
X169921977Y-112763550D01*
X169921976Y-112763557D01*
X169902226Y-113077494D01*
X169902226Y-113077505D01*
X109188000Y-113077505D01*
X109188000Y-111200000D01*
X126212501Y-111200000D01*
X126212501Y-111299154D01*
X126222819Y-111400152D01*
X126277046Y-111563800D01*
X126277051Y-111563811D01*
X126367552Y-111710534D01*
X126367555Y-111710538D01*
X126489461Y-111832444D01*
X126489465Y-111832447D01*
X126636188Y-111922948D01*
X126636199Y-111922953D01*
X126799847Y-111977180D01*
X126900852Y-111987499D01*
X126937500Y-111987499D01*
X126937500Y-111200000D01*
X127437500Y-111200000D01*
X127437500Y-111987499D01*
X127474140Y-111987499D01*
X127474154Y-111987498D01*
X127575152Y-111977180D01*
X127738800Y-111922953D01*
X127738811Y-111922948D01*
X127885534Y-111832447D01*
X127885538Y-111832444D01*
X128007444Y-111710538D01*
X128007447Y-111710534D01*
X128097948Y-111563811D01*
X128097953Y-111563800D01*
X128152180Y-111400152D01*
X128162499Y-111299154D01*
X128162500Y-111299141D01*
X128162500Y-111200000D01*
X128850001Y-111200000D01*
X128850001Y-111299154D01*
X128860319Y-111400152D01*
X128914546Y-111563800D01*
X128914551Y-111563811D01*
X129005052Y-111710534D01*
X129005055Y-111710538D01*
X129126961Y-111832444D01*
X129126965Y-111832447D01*
X129273688Y-111922948D01*
X129273699Y-111922953D01*
X129437347Y-111977180D01*
X129538352Y-111987499D01*
X129575000Y-111987499D01*
X129575000Y-111200000D01*
X130075000Y-111200000D01*
X130075000Y-111987499D01*
X130111640Y-111987499D01*
X130111654Y-111987498D01*
X130212652Y-111977180D01*
X130376300Y-111922953D01*
X130376311Y-111922948D01*
X130523034Y-111832447D01*
X130523038Y-111832444D01*
X130644944Y-111710538D01*
X130644947Y-111710534D01*
X130735448Y-111563811D01*
X130735453Y-111563800D01*
X130789680Y-111400152D01*
X130799999Y-111299154D01*
X130800000Y-111299141D01*
X130800000Y-111200000D01*
X131712501Y-111200000D01*
X131712501Y-111299154D01*
X131722819Y-111400152D01*
X131777046Y-111563800D01*
X131777051Y-111563811D01*
X131867552Y-111710534D01*
X131867555Y-111710538D01*
X131989461Y-111832444D01*
X131989465Y-111832447D01*
X132136188Y-111922948D01*
X132136199Y-111922953D01*
X132299847Y-111977180D01*
X132400852Y-111987499D01*
X132437500Y-111987499D01*
X132437500Y-111200000D01*
X132937500Y-111200000D01*
X132937500Y-111987499D01*
X132974140Y-111987499D01*
X132974154Y-111987498D01*
X133075152Y-111977180D01*
X133238800Y-111922953D01*
X133238811Y-111922948D01*
X133385534Y-111832447D01*
X133385538Y-111832444D01*
X133507444Y-111710538D01*
X133507447Y-111710534D01*
X133597948Y-111563811D01*
X133597953Y-111563800D01*
X133652180Y-111400152D01*
X133662499Y-111299154D01*
X133662500Y-111299141D01*
X133662500Y-111200000D01*
X134712501Y-111200000D01*
X134712501Y-111299154D01*
X134722819Y-111400152D01*
X134777046Y-111563800D01*
X134777051Y-111563811D01*
X134867552Y-111710534D01*
X134867555Y-111710538D01*
X134989461Y-111832444D01*
X134989465Y-111832447D01*
X135136188Y-111922948D01*
X135136199Y-111922953D01*
X135299847Y-111977180D01*
X135400852Y-111987499D01*
X135437500Y-111987499D01*
X135437500Y-111200000D01*
X135937500Y-111200000D01*
X135937500Y-111987499D01*
X135974140Y-111987499D01*
X135974154Y-111987498D01*
X136075152Y-111977180D01*
X136238800Y-111922953D01*
X136238811Y-111922948D01*
X136385534Y-111832447D01*
X136385538Y-111832444D01*
X136507444Y-111710538D01*
X136507447Y-111710534D01*
X136597948Y-111563811D01*
X136597953Y-111563800D01*
X136652180Y-111400152D01*
X136662499Y-111299154D01*
X136662500Y-111299141D01*
X136662500Y-111200000D01*
X135937500Y-111200000D01*
X135437500Y-111200000D01*
X134712501Y-111200000D01*
X133662500Y-111200000D01*
X132937500Y-111200000D01*
X132437500Y-111200000D01*
X131712501Y-111200000D01*
X130800000Y-111200000D01*
X130075000Y-111200000D01*
X129575000Y-111200000D01*
X128850001Y-111200000D01*
X128162500Y-111200000D01*
X127437500Y-111200000D01*
X126937500Y-111200000D01*
X126212501Y-111200000D01*
X109188000Y-111200000D01*
X109188000Y-106837500D01*
X116822557Y-106837500D01*
X116842307Y-107151442D01*
X116842308Y-107151449D01*
X116901255Y-107460458D01*
X116998463Y-107759632D01*
X116998465Y-107759637D01*
X117132400Y-108044261D01*
X117132403Y-108044267D01*
X117300957Y-108309867D01*
X117300960Y-108309871D01*
X117391786Y-108419660D01*
X118355413Y-107456033D01*
X118450329Y-107586675D01*
X118578325Y-107714671D01*
X118708965Y-107809586D01*
X117742471Y-108776079D01*
X117742472Y-108776081D01*
X117985272Y-108952485D01*
X117985290Y-108952496D01*
X118260947Y-109104040D01*
X118260955Y-109104044D01*
X118553426Y-109219840D01*
X118858120Y-109298073D01*
X118858129Y-109298075D01*
X119170201Y-109337499D01*
X119170215Y-109337500D01*
X119484785Y-109337500D01*
X119484798Y-109337499D01*
X119796870Y-109298075D01*
X119796879Y-109298073D01*
X120101573Y-109219840D01*
X120394044Y-109104044D01*
X120394052Y-109104040D01*
X120669709Y-108952496D01*
X120669719Y-108952490D01*
X120912526Y-108776079D01*
X120912527Y-108776079D01*
X119946033Y-107809586D01*
X120076675Y-107714671D01*
X120204671Y-107586675D01*
X120299586Y-107456034D01*
X121263212Y-108419660D01*
X121354044Y-108309864D01*
X121522596Y-108044267D01*
X121522599Y-108044261D01*
X121656534Y-107759637D01*
X121656536Y-107759632D01*
X121753744Y-107460458D01*
X121812691Y-107151449D01*
X121812692Y-107151442D01*
X121832443Y-106837500D01*
X121832443Y-106837494D01*
X121812692Y-106523557D01*
X121812691Y-106523550D01*
X121753744Y-106214541D01*
X121656536Y-105915367D01*
X121656534Y-105915362D01*
X121522599Y-105630738D01*
X121522596Y-105630732D01*
X121354042Y-105365132D01*
X121354039Y-105365128D01*
X121263212Y-105255338D01*
X120299585Y-106218965D01*
X120204671Y-106088325D01*
X120076675Y-105960329D01*
X119946033Y-105865413D01*
X120912527Y-104898919D01*
X120912526Y-104898917D01*
X120669727Y-104722514D01*
X120669709Y-104722503D01*
X120394052Y-104570959D01*
X120394044Y-104570955D01*
X120101573Y-104455159D01*
X119796879Y-104376926D01*
X119796870Y-104376924D01*
X119484798Y-104337500D01*
X119170201Y-104337500D01*
X118858129Y-104376924D01*
X118858120Y-104376926D01*
X118553426Y-104455159D01*
X118260955Y-104570955D01*
X118260947Y-104570959D01*
X117985287Y-104722504D01*
X117985282Y-104722507D01*
X117742472Y-104898918D01*
X117742471Y-104898919D01*
X118708966Y-105865413D01*
X118578325Y-105960329D01*
X118450329Y-106088325D01*
X118355413Y-106218965D01*
X117391786Y-105255338D01*
X117391785Y-105255338D01*
X117300959Y-105365129D01*
X117300957Y-105365132D01*
X117132403Y-105630732D01*
X117132400Y-105630738D01*
X116998465Y-105915362D01*
X116998463Y-105915367D01*
X116901255Y-106214541D01*
X116842308Y-106523550D01*
X116842307Y-106523557D01*
X116822557Y-106837494D01*
X116822557Y-106837500D01*
X109188000Y-106837500D01*
X109188000Y-99587501D01*
X120882032Y-99587501D01*
X120901864Y-99814186D01*
X120901866Y-99814197D01*
X120960758Y-100033988D01*
X120960761Y-100033997D01*
X121056931Y-100240232D01*
X121056932Y-100240234D01*
X121187454Y-100426641D01*
X121348358Y-100587545D01*
X121391234Y-100617567D01*
X121534766Y-100718068D01*
X121550475Y-100725393D01*
X121602914Y-100771564D01*
X121622067Y-100838757D01*
X121601852Y-100905638D01*
X121550479Y-100950156D01*
X121535014Y-100957367D01*
X121535012Y-100957368D01*
X121462026Y-101008473D01*
X121462026Y-101008474D01*
X122078502Y-101624949D01*
X122004157Y-101644870D01*
X121895843Y-101707405D01*
X121807405Y-101795843D01*
X121744870Y-101904157D01*
X121724949Y-101978501D01*
X121108474Y-101362026D01*
X121108473Y-101362026D01*
X121057368Y-101435012D01*
X121057366Y-101435016D01*
X120961234Y-101641173D01*
X120961230Y-101641182D01*
X120902360Y-101860889D01*
X120902358Y-101860900D01*
X120882534Y-102087497D01*
X120882534Y-102087502D01*
X120902358Y-102314099D01*
X120902360Y-102314110D01*
X120961230Y-102533817D01*
X120961235Y-102533831D01*
X121057363Y-102739978D01*
X121108474Y-102812972D01*
X121724949Y-102196497D01*
X121744870Y-102270843D01*
X121807405Y-102379157D01*
X121895843Y-102467595D01*
X122004157Y-102530130D01*
X122078500Y-102550050D01*
X121462026Y-103166525D01*
X121535013Y-103217632D01*
X121535021Y-103217636D01*
X121741168Y-103313764D01*
X121741182Y-103313769D01*
X121960889Y-103372639D01*
X121960900Y-103372641D01*
X122187498Y-103392466D01*
X122187502Y-103392466D01*
X122414099Y-103372641D01*
X122414110Y-103372639D01*
X122633817Y-103313769D01*
X122633826Y-103313765D01*
X122839981Y-103217634D01*
X122852753Y-103208691D01*
X122918959Y-103186362D01*
X122986727Y-103203370D01*
X123023144Y-103235949D01*
X123029954Y-103245046D01*
X123058963Y-103266762D01*
X123145164Y-103331293D01*
X123145171Y-103331297D01*
X123188609Y-103347498D01*
X123280017Y-103381591D01*
X123339627Y-103388000D01*
X123463000Y-103387999D01*
X123530039Y-103407683D01*
X123575794Y-103460487D01*
X123587000Y-103511999D01*
X123587000Y-105500830D01*
X123586999Y-105500848D01*
X123586999Y-105666554D01*
X123586998Y-105666554D01*
X123627923Y-105819286D01*
X123627924Y-105819287D01*
X123653201Y-105863068D01*
X123706980Y-105956216D01*
X123706982Y-105956218D01*
X123825849Y-106075085D01*
X123825855Y-106075090D01*
X126243704Y-108492940D01*
X126277189Y-108554263D01*
X126273729Y-108619623D01*
X126222326Y-108774747D01*
X126222326Y-108774748D01*
X126222325Y-108774748D01*
X126212000Y-108875815D01*
X126212000Y-109574169D01*
X126212001Y-109574187D01*
X126222325Y-109675252D01*
X126248963Y-109755639D01*
X126276592Y-109839016D01*
X126367159Y-109985849D01*
X126367161Y-109985851D01*
X126381482Y-110000172D01*
X126414967Y-110061495D01*
X126409983Y-110131187D01*
X126381485Y-110175532D01*
X126367552Y-110189465D01*
X126277051Y-110336188D01*
X126277046Y-110336199D01*
X126222819Y-110499847D01*
X126212500Y-110600845D01*
X126212500Y-110700000D01*
X128162499Y-110700000D01*
X128162499Y-110600860D01*
X128162498Y-110600845D01*
X128152180Y-110499847D01*
X128097953Y-110336199D01*
X128097948Y-110336188D01*
X128007447Y-110189465D01*
X128007444Y-110189461D01*
X127993517Y-110175534D01*
X127960032Y-110114211D01*
X127965016Y-110044519D01*
X127993517Y-110000172D01*
X128007840Y-109985850D01*
X128007842Y-109985847D01*
X128070414Y-109884403D01*
X128122362Y-109837678D01*
X128175952Y-109825500D01*
X128836548Y-109825500D01*
X128903587Y-109845185D01*
X128942086Y-109884403D01*
X129004657Y-109985846D01*
X129004660Y-109985850D01*
X129018982Y-110000172D01*
X129052467Y-110061495D01*
X129047483Y-110131187D01*
X129018985Y-110175532D01*
X129005052Y-110189465D01*
X128914551Y-110336188D01*
X128914546Y-110336199D01*
X128860319Y-110499847D01*
X128850000Y-110600845D01*
X128850000Y-110700000D01*
X130799999Y-110700000D01*
X130799999Y-110600860D01*
X130799998Y-110600845D01*
X130789680Y-110499847D01*
X130735453Y-110336199D01*
X130735448Y-110336188D01*
X130644947Y-110189465D01*
X130644944Y-110189461D01*
X130631017Y-110175534D01*
X130597532Y-110114211D01*
X130602516Y-110044519D01*
X130631017Y-110000172D01*
X130645340Y-109985850D01*
X130645342Y-109985847D01*
X130707914Y-109884403D01*
X130759862Y-109837678D01*
X130813452Y-109825500D01*
X131699048Y-109825500D01*
X131766087Y-109845185D01*
X131804586Y-109884403D01*
X131867157Y-109985846D01*
X131867160Y-109985850D01*
X131881482Y-110000172D01*
X131914967Y-110061495D01*
X131909983Y-110131187D01*
X131881485Y-110175532D01*
X131867552Y-110189465D01*
X131777051Y-110336188D01*
X131777046Y-110336199D01*
X131722819Y-110499847D01*
X131712500Y-110600845D01*
X131712500Y-110700000D01*
X133662499Y-110700000D01*
X133662499Y-110600860D01*
X133662498Y-110600845D01*
X133652180Y-110499847D01*
X133597953Y-110336199D01*
X133597948Y-110336188D01*
X133507447Y-110189465D01*
X133507444Y-110189461D01*
X133493517Y-110175534D01*
X133460032Y-110114211D01*
X133465016Y-110044519D01*
X133493517Y-110000172D01*
X133507840Y-109985850D01*
X133598408Y-109839016D01*
X133652674Y-109675253D01*
X133663000Y-109574177D01*
X133662999Y-108875824D01*
X133652674Y-108774747D01*
X133598408Y-108610984D01*
X133507840Y-108464150D01*
X133385850Y-108342160D01*
X133239016Y-108251592D01*
X133075253Y-108197326D01*
X133075251Y-108197325D01*
X132974178Y-108187000D01*
X132400830Y-108187000D01*
X132400812Y-108187001D01*
X132299747Y-108197325D01*
X132135984Y-108251592D01*
X132135981Y-108251593D01*
X131989148Y-108342161D01*
X131867160Y-108464149D01*
X131867157Y-108464153D01*
X131804586Y-108565597D01*
X131752638Y-108612322D01*
X131699048Y-108624500D01*
X130813452Y-108624500D01*
X130746413Y-108604815D01*
X130707914Y-108565597D01*
X130645342Y-108464153D01*
X130645339Y-108464149D01*
X130523351Y-108342161D01*
X130523350Y-108342160D01*
X130376516Y-108251592D01*
X130212753Y-108197326D01*
X130212751Y-108197325D01*
X130111678Y-108187000D01*
X129538330Y-108187000D01*
X129538312Y-108187001D01*
X129437247Y-108197325D01*
X129273484Y-108251592D01*
X129273481Y-108251593D01*
X129126648Y-108342161D01*
X129004660Y-108464149D01*
X129004657Y-108464153D01*
X128942086Y-108565597D01*
X128890138Y-108612322D01*
X128836548Y-108624500D01*
X128175952Y-108624500D01*
X128108913Y-108604815D01*
X128070414Y-108565597D01*
X128007842Y-108464153D01*
X128007839Y-108464149D01*
X127885851Y-108342161D01*
X127885850Y-108342160D01*
X127739016Y-108251592D01*
X127739010Y-108251590D01*
X127709796Y-108241909D01*
X127661121Y-108211885D01*
X124824319Y-105375083D01*
X124790834Y-105313760D01*
X124788000Y-105287402D01*
X124788000Y-103511999D01*
X124807685Y-103444960D01*
X124860489Y-103399205D01*
X124912000Y-103387999D01*
X125035371Y-103387999D01*
X125035372Y-103387999D01*
X125094983Y-103381591D01*
X125229831Y-103331296D01*
X125345046Y-103245046D01*
X125431296Y-103129831D01*
X125481591Y-102994983D01*
X125488000Y-102935373D01*
X125488000Y-102812001D01*
X125507685Y-102744962D01*
X125560489Y-102699207D01*
X125612000Y-102688001D01*
X125741554Y-102688001D01*
X125741557Y-102688001D01*
X125894285Y-102647077D01*
X125963733Y-102606981D01*
X126031216Y-102568020D01*
X126143020Y-102456216D01*
X126143020Y-102456214D01*
X126153224Y-102446011D01*
X126153227Y-102446006D01*
X130875321Y-97723913D01*
X130936642Y-97690430D01*
X131006334Y-97695414D01*
X131062267Y-97737286D01*
X131086684Y-97802750D01*
X131087000Y-97811596D01*
X131087000Y-104591516D01*
X131086999Y-104591534D01*
X131086999Y-104757240D01*
X131086998Y-104757240D01*
X131127924Y-104909975D01*
X131127925Y-104909976D01*
X131147444Y-104943783D01*
X131147445Y-104943784D01*
X131206977Y-105046898D01*
X131206981Y-105046903D01*
X131325849Y-105165771D01*
X131325854Y-105165775D01*
X132628098Y-106468020D01*
X132628100Y-106468021D01*
X132628104Y-106468024D01*
X132765023Y-106547073D01*
X132765030Y-106547077D01*
X132917757Y-106588001D01*
X132917759Y-106588001D01*
X133083468Y-106588001D01*
X133083484Y-106588000D01*
X141839428Y-106588000D01*
X141906467Y-106607685D01*
X141952222Y-106660489D01*
X141962166Y-106729647D01*
X141956470Y-106752954D01*
X141902130Y-106908250D01*
X141892337Y-106995168D01*
X141865270Y-107059582D01*
X141856798Y-107068965D01*
X140337584Y-108588181D01*
X140276261Y-108621666D01*
X140249903Y-108624500D01*
X136675952Y-108624500D01*
X136608913Y-108604815D01*
X136570414Y-108565597D01*
X136507842Y-108464153D01*
X136507839Y-108464149D01*
X136385851Y-108342161D01*
X136385850Y-108342160D01*
X136239016Y-108251592D01*
X136075253Y-108197326D01*
X136075251Y-108197325D01*
X135974178Y-108187000D01*
X135400830Y-108187000D01*
X135400812Y-108187001D01*
X135299747Y-108197325D01*
X135135984Y-108251592D01*
X135135981Y-108251593D01*
X134989148Y-108342161D01*
X134867161Y-108464148D01*
X134776593Y-108610981D01*
X134776591Y-108610986D01*
X134773052Y-108621666D01*
X134722326Y-108774747D01*
X134722326Y-108774748D01*
X134722325Y-108774748D01*
X134712000Y-108875815D01*
X134712000Y-109574169D01*
X134712001Y-109574187D01*
X134722325Y-109675252D01*
X134748963Y-109755639D01*
X134776592Y-109839016D01*
X134867159Y-109985849D01*
X134867161Y-109985851D01*
X134881482Y-110000172D01*
X134914967Y-110061495D01*
X134909983Y-110131187D01*
X134881485Y-110175532D01*
X134867552Y-110189465D01*
X134777051Y-110336188D01*
X134777046Y-110336199D01*
X134722819Y-110499847D01*
X134712500Y-110600845D01*
X134712500Y-110700000D01*
X136662499Y-110700000D01*
X136662499Y-110600860D01*
X136662498Y-110600845D01*
X136652180Y-110499847D01*
X136597953Y-110336199D01*
X136597948Y-110336188D01*
X136507447Y-110189465D01*
X136507444Y-110189461D01*
X136493517Y-110175534D01*
X136460032Y-110114211D01*
X136465016Y-110044519D01*
X136493517Y-110000172D01*
X136507840Y-109985850D01*
X136507842Y-109985847D01*
X136570414Y-109884403D01*
X136622362Y-109837678D01*
X136675952Y-109825500D01*
X140463331Y-109825500D01*
X140463347Y-109825501D01*
X140470943Y-109825501D01*
X140629054Y-109825501D01*
X140629057Y-109825501D01*
X140781785Y-109784577D01*
X140831904Y-109755639D01*
X140918716Y-109705520D01*
X141030520Y-109593716D01*
X141030520Y-109593714D01*
X141040728Y-109583507D01*
X141040730Y-109583504D01*
X142706035Y-107918198D01*
X142767356Y-107884715D01*
X142779811Y-107882663D01*
X142866755Y-107872868D01*
X143037022Y-107813289D01*
X143189762Y-107717316D01*
X143317316Y-107589762D01*
X143413289Y-107437022D01*
X143472868Y-107266755D01*
X143475023Y-107247632D01*
X143493065Y-107087503D01*
X143493065Y-107087496D01*
X143472869Y-106908250D01*
X143472867Y-106908242D01*
X143418530Y-106752954D01*
X143414969Y-106683176D01*
X143449698Y-106622548D01*
X143511691Y-106590321D01*
X143535572Y-106588000D01*
X144287403Y-106588000D01*
X144354442Y-106607685D01*
X144375084Y-106624319D01*
X145202639Y-107451874D01*
X145202649Y-107451885D01*
X145206979Y-107456215D01*
X145206980Y-107456216D01*
X145318784Y-107568020D01*
X145318786Y-107568021D01*
X145318790Y-107568024D01*
X145390803Y-107609600D01*
X145455716Y-107647077D01*
X145567519Y-107677034D01*
X145608442Y-107688000D01*
X145608443Y-107688000D01*
X146312599Y-107688000D01*
X146379638Y-107707685D01*
X146418138Y-107746904D01*
X146441967Y-107785538D01*
X146442160Y-107785850D01*
X146564150Y-107907840D01*
X146710984Y-107998408D01*
X146874747Y-108052674D01*
X146975823Y-108063000D01*
X147574176Y-108062999D01*
X147574184Y-108062998D01*
X147574187Y-108062998D01*
X147629530Y-108057344D01*
X147675253Y-108052674D01*
X147839016Y-107998408D01*
X147985850Y-107907840D01*
X148100175Y-107793514D01*
X148161494Y-107760032D01*
X148231186Y-107765016D01*
X148275534Y-107793517D01*
X148389461Y-107907444D01*
X148389465Y-107907447D01*
X148536188Y-107997948D01*
X148536199Y-107997953D01*
X148699847Y-108052180D01*
X148800851Y-108062499D01*
X148849999Y-108062498D01*
X148850000Y-108062498D01*
X148850000Y-107337500D01*
X149350000Y-107337500D01*
X149350000Y-108062499D01*
X149399140Y-108062499D01*
X149399154Y-108062498D01*
X149500152Y-108052180D01*
X149663800Y-107997953D01*
X149663811Y-107997948D01*
X149810534Y-107907447D01*
X149810538Y-107907444D01*
X149932444Y-107785538D01*
X149932447Y-107785534D01*
X150022948Y-107638811D01*
X150022953Y-107638800D01*
X150077180Y-107475152D01*
X150087499Y-107374154D01*
X150087500Y-107374141D01*
X150087500Y-107337500D01*
X149350000Y-107337500D01*
X148850000Y-107337500D01*
X148850000Y-106112500D01*
X149350000Y-106112500D01*
X149350000Y-106837500D01*
X150087499Y-106837500D01*
X150087499Y-106800860D01*
X150087498Y-106800845D01*
X150077180Y-106699847D01*
X150052378Y-106625000D01*
X157750000Y-106625000D01*
X157750000Y-107028149D01*
X157752899Y-107064989D01*
X157752900Y-107064995D01*
X157798716Y-107222693D01*
X157798717Y-107222696D01*
X157882314Y-107364052D01*
X157882321Y-107364061D01*
X157998438Y-107480178D01*
X157998447Y-107480185D01*
X158139801Y-107563781D01*
X158297514Y-107609600D01*
X158297511Y-107609600D01*
X158299998Y-107609795D01*
X158300000Y-107609795D01*
X158300000Y-106625000D01*
X158800000Y-106625000D01*
X158800000Y-107609795D01*
X158800001Y-107609795D01*
X158802486Y-107609600D01*
X158960198Y-107563781D01*
X159101552Y-107480185D01*
X159101561Y-107480178D01*
X159217678Y-107364061D01*
X159217685Y-107364052D01*
X159301282Y-107222696D01*
X159301283Y-107222693D01*
X159347099Y-107064995D01*
X159347100Y-107064989D01*
X159349999Y-107028149D01*
X159350000Y-107028134D01*
X159350000Y-106625000D01*
X158800000Y-106625000D01*
X158300000Y-106625000D01*
X157750000Y-106625000D01*
X150052378Y-106625000D01*
X150022953Y-106536199D01*
X150022948Y-106536188D01*
X149932447Y-106389465D01*
X149932444Y-106389461D01*
X149810538Y-106267555D01*
X149810534Y-106267552D01*
X149663811Y-106177051D01*
X149663800Y-106177046D01*
X149500152Y-106122819D01*
X149399154Y-106112500D01*
X149350000Y-106112500D01*
X148850000Y-106112500D01*
X148849999Y-106112499D01*
X148800861Y-106112500D01*
X148800843Y-106112501D01*
X148699847Y-106122819D01*
X148536199Y-106177046D01*
X148536188Y-106177051D01*
X148389465Y-106267552D01*
X148275534Y-106381483D01*
X148214211Y-106414967D01*
X148144519Y-106409983D01*
X148100172Y-106381482D01*
X147985851Y-106267161D01*
X147985850Y-106267160D01*
X147849934Y-106183326D01*
X147839018Y-106176593D01*
X147839013Y-106176591D01*
X147837569Y-106176112D01*
X147675253Y-106122326D01*
X147675251Y-106122325D01*
X147574178Y-106112000D01*
X146975830Y-106112000D01*
X146975812Y-106112001D01*
X146874747Y-106122325D01*
X146710984Y-106176592D01*
X146710981Y-106176593D01*
X146564148Y-106267161D01*
X146442159Y-106389150D01*
X146418138Y-106428096D01*
X146366190Y-106474821D01*
X146312599Y-106487000D01*
X145987597Y-106487000D01*
X145920558Y-106467315D01*
X145899916Y-106450681D01*
X145470916Y-106021681D01*
X145437431Y-105960358D01*
X145442415Y-105890666D01*
X145470916Y-105846319D01*
X147575416Y-103741819D01*
X147636739Y-103708334D01*
X147663097Y-103705500D01*
X148415686Y-103705500D01*
X148415694Y-103705500D01*
X148452569Y-103702598D01*
X148452571Y-103702597D01*
X148452573Y-103702597D01*
X148494191Y-103690505D01*
X148610398Y-103656744D01*
X148751865Y-103573081D01*
X148868081Y-103456865D01*
X148951744Y-103315398D01*
X148997598Y-103157569D01*
X148997800Y-103155001D01*
X151002704Y-103155001D01*
X151002899Y-103157486D01*
X151048718Y-103315198D01*
X151132314Y-103456552D01*
X151132321Y-103456561D01*
X151248438Y-103572678D01*
X151248447Y-103572685D01*
X151389803Y-103656282D01*
X151389806Y-103656283D01*
X151547504Y-103702099D01*
X151547510Y-103702100D01*
X151584350Y-103704999D01*
X151584366Y-103705000D01*
X152225000Y-103705000D01*
X152225000Y-103155000D01*
X152725000Y-103155000D01*
X152725000Y-103705000D01*
X153365634Y-103705000D01*
X153365649Y-103704999D01*
X153402489Y-103702100D01*
X153402495Y-103702099D01*
X153560193Y-103656283D01*
X153560196Y-103656282D01*
X153701552Y-103572685D01*
X153701561Y-103572678D01*
X153817678Y-103456561D01*
X153817685Y-103456552D01*
X153901281Y-103315198D01*
X153947100Y-103157486D01*
X153947295Y-103155001D01*
X153947295Y-103155000D01*
X152725000Y-103155000D01*
X152225000Y-103155000D01*
X151002705Y-103155000D01*
X151002704Y-103155001D01*
X148997800Y-103155001D01*
X149000500Y-103120694D01*
X149000500Y-102689306D01*
X148997598Y-102652431D01*
X148992642Y-102635373D01*
X148955741Y-102508361D01*
X148951744Y-102494602D01*
X148868081Y-102353135D01*
X148868078Y-102353132D01*
X148863298Y-102346969D01*
X148865750Y-102345066D01*
X148839155Y-102296421D01*
X148844104Y-102226726D01*
X148864940Y-102194304D01*
X148863298Y-102193031D01*
X148868075Y-102186870D01*
X148868081Y-102186865D01*
X148951744Y-102045398D01*
X148997598Y-101887569D01*
X149000500Y-101850694D01*
X149000500Y-101419306D01*
X148997598Y-101382431D01*
X148983926Y-101335373D01*
X148951745Y-101224606D01*
X148951744Y-101224603D01*
X148951744Y-101224602D01*
X148868081Y-101083135D01*
X148868078Y-101083132D01*
X148863298Y-101076969D01*
X148865750Y-101075066D01*
X148839155Y-101026421D01*
X148844104Y-100956726D01*
X148864940Y-100924304D01*
X148863298Y-100923031D01*
X148868075Y-100916870D01*
X148868081Y-100916865D01*
X148951744Y-100775398D01*
X148989600Y-100645097D01*
X148997597Y-100617573D01*
X148997598Y-100617567D01*
X148999940Y-100587811D01*
X149000500Y-100580694D01*
X149000500Y-100532000D01*
X149020185Y-100464961D01*
X149072989Y-100419206D01*
X149124500Y-100408000D01*
X150875500Y-100408000D01*
X150942539Y-100427685D01*
X150988294Y-100480489D01*
X150999500Y-100532000D01*
X150999500Y-100580701D01*
X151002401Y-100617567D01*
X151002402Y-100617573D01*
X151048254Y-100775393D01*
X151048255Y-100775396D01*
X151048256Y-100775398D01*
X151058906Y-100793406D01*
X151131917Y-100916862D01*
X151136702Y-100923031D01*
X151134256Y-100924927D01*
X151160857Y-100973642D01*
X151155873Y-101043334D01*
X151135069Y-101075703D01*
X151136702Y-101076969D01*
X151131917Y-101083137D01*
X151048255Y-101224603D01*
X151048254Y-101224606D01*
X151002402Y-101382426D01*
X151002401Y-101382432D01*
X150999500Y-101419298D01*
X150999500Y-101850701D01*
X151002401Y-101887567D01*
X151002402Y-101887573D01*
X151048254Y-102045393D01*
X151048255Y-102045396D01*
X151131917Y-102186862D01*
X151136702Y-102193031D01*
X151134369Y-102194840D01*
X151161210Y-102243995D01*
X151156226Y-102313687D01*
X151135470Y-102346021D01*
X151137097Y-102347283D01*
X151132313Y-102353449D01*
X151048718Y-102494801D01*
X151002899Y-102652513D01*
X151002704Y-102654998D01*
X151002705Y-102655000D01*
X153947295Y-102655000D01*
X153947295Y-102654998D01*
X153947100Y-102652513D01*
X153901281Y-102494801D01*
X153817685Y-102353447D01*
X153812900Y-102347278D01*
X153815366Y-102345364D01*
X153788802Y-102296776D01*
X153793749Y-102227082D01*
X153814856Y-102194232D01*
X153813301Y-102193026D01*
X153818073Y-102186872D01*
X153818081Y-102186865D01*
X153901744Y-102045398D01*
X153908588Y-102021838D01*
X153939982Y-101968751D01*
X155500319Y-100408415D01*
X155561642Y-100374930D01*
X155631334Y-100379914D01*
X155687267Y-100421786D01*
X155711684Y-100487250D01*
X155712000Y-100496096D01*
X155712000Y-105225830D01*
X155711999Y-105225848D01*
X155711999Y-105391554D01*
X155711998Y-105391554D01*
X155729294Y-105456102D01*
X155752923Y-105544285D01*
X155752924Y-105544286D01*
X155765044Y-105565281D01*
X155765047Y-105565284D01*
X155831977Y-105681212D01*
X155831981Y-105681217D01*
X155950849Y-105800085D01*
X155950855Y-105800090D01*
X156052639Y-105901874D01*
X156052649Y-105901885D01*
X156056979Y-105906215D01*
X156056980Y-105906216D01*
X156168784Y-106018020D01*
X156168786Y-106018021D01*
X156168790Y-106018024D01*
X156252852Y-106066557D01*
X156252853Y-106066557D01*
X156305715Y-106097077D01*
X156458443Y-106138000D01*
X157922779Y-106138000D01*
X157922795Y-106138001D01*
X157930391Y-106138001D01*
X158088503Y-106138001D01*
X158088505Y-106138001D01*
X158121257Y-106129225D01*
X158153350Y-106125000D01*
X159350000Y-106125000D01*
X159350000Y-105862000D01*
X159369685Y-105794961D01*
X159422489Y-105749206D01*
X159474000Y-105738000D01*
X159715686Y-105738000D01*
X159715694Y-105738000D01*
X159752569Y-105735098D01*
X159752571Y-105735097D01*
X159752573Y-105735097D01*
X159818934Y-105715817D01*
X159910398Y-105689244D01*
X160051865Y-105605581D01*
X160168081Y-105489365D01*
X160251744Y-105347898D01*
X160287203Y-105225848D01*
X160297646Y-105189905D01*
X160335252Y-105131019D01*
X160398725Y-105101813D01*
X160416722Y-105100500D01*
X160450831Y-105100500D01*
X160450847Y-105100501D01*
X160458443Y-105100501D01*
X160616554Y-105100501D01*
X160616557Y-105100501D01*
X160769285Y-105059577D01*
X160830325Y-105024335D01*
X160906216Y-104980520D01*
X161018020Y-104868716D01*
X161018020Y-104868714D01*
X161028224Y-104858511D01*
X161028227Y-104858506D01*
X164672417Y-101214319D01*
X164733740Y-101180834D01*
X164760098Y-101178000D01*
X170875477Y-101178000D01*
X170942516Y-101197685D01*
X170977049Y-101230874D01*
X171050223Y-101335378D01*
X171107123Y-101416641D01*
X171268027Y-101577545D01*
X171268030Y-101577547D01*
X171454435Y-101708068D01*
X171660673Y-101804239D01*
X171660678Y-101804240D01*
X171660680Y-101804241D01*
X171804305Y-101842725D01*
X171863966Y-101879090D01*
X171894495Y-101941937D01*
X171886200Y-102011312D01*
X171841715Y-102065190D01*
X171804305Y-102082275D01*
X171660680Y-102120758D01*
X171660671Y-102120761D01*
X171454436Y-102216931D01*
X171454434Y-102216932D01*
X171268027Y-102347454D01*
X171107123Y-102508358D01*
X170976601Y-102694765D01*
X170976600Y-102694767D01*
X170880430Y-102901002D01*
X170880427Y-102901011D01*
X170821535Y-103120802D01*
X170821533Y-103120813D01*
X170801701Y-103347498D01*
X170801701Y-103347501D01*
X170821533Y-103574186D01*
X170821535Y-103574197D01*
X170880427Y-103793988D01*
X170880430Y-103793997D01*
X170976600Y-104000232D01*
X170976601Y-104000234D01*
X171107123Y-104186641D01*
X171268027Y-104347545D01*
X171268030Y-104347547D01*
X171454435Y-104478068D01*
X171660673Y-104574239D01*
X171805271Y-104612983D01*
X171864930Y-104649348D01*
X171895460Y-104712194D01*
X171887166Y-104781570D01*
X171842681Y-104835448D01*
X171805271Y-104852533D01*
X171660849Y-104891231D01*
X171660842Y-104891234D01*
X171454685Y-104987366D01*
X171454681Y-104987368D01*
X171381695Y-105038473D01*
X171381695Y-105038474D01*
X171977759Y-105634537D01*
X171914176Y-105651575D01*
X171800162Y-105717401D01*
X171707070Y-105810493D01*
X171641244Y-105924507D01*
X171624206Y-105988089D01*
X171028143Y-105392026D01*
X171028142Y-105392026D01*
X170977037Y-105465012D01*
X170977035Y-105465016D01*
X170880903Y-105671173D01*
X170880899Y-105671182D01*
X170822029Y-105890889D01*
X170822027Y-105890900D01*
X170802203Y-106117497D01*
X170802203Y-106117502D01*
X170822027Y-106344099D01*
X170822029Y-106344110D01*
X170880899Y-106563817D01*
X170880904Y-106563831D01*
X170977032Y-106769978D01*
X171028143Y-106842972D01*
X171624206Y-106246909D01*
X171641244Y-106310493D01*
X171707070Y-106424507D01*
X171800162Y-106517599D01*
X171914176Y-106583425D01*
X171977759Y-106600462D01*
X171381695Y-107196525D01*
X171454682Y-107247632D01*
X171454690Y-107247636D01*
X171660837Y-107343764D01*
X171660851Y-107343769D01*
X171880558Y-107402639D01*
X171880569Y-107402641D01*
X172107167Y-107422466D01*
X172107171Y-107422466D01*
X172333768Y-107402641D01*
X172333779Y-107402639D01*
X172553486Y-107343769D01*
X172553500Y-107343764D01*
X172759647Y-107247636D01*
X172832640Y-107196524D01*
X172236578Y-106600462D01*
X172300162Y-106583425D01*
X172414176Y-106517599D01*
X172507268Y-106424507D01*
X172573094Y-106310493D01*
X172590131Y-106246909D01*
X173186193Y-106842971D01*
X173237305Y-106769978D01*
X173333433Y-106563831D01*
X173333438Y-106563817D01*
X173392308Y-106344110D01*
X173392310Y-106344099D01*
X173412135Y-106117502D01*
X173412135Y-106117497D01*
X173392310Y-105890900D01*
X173392308Y-105890889D01*
X173333438Y-105671182D01*
X173333433Y-105671168D01*
X173237305Y-105465021D01*
X173237301Y-105465013D01*
X173186194Y-105392026D01*
X172590131Y-105988089D01*
X172573094Y-105924507D01*
X172507268Y-105810493D01*
X172414176Y-105717401D01*
X172300162Y-105651575D01*
X172236579Y-105634537D01*
X172832641Y-105038474D01*
X172759647Y-104987363D01*
X172553500Y-104891235D01*
X172553488Y-104891231D01*
X172409066Y-104852533D01*
X172349406Y-104816168D01*
X172318877Y-104753321D01*
X172327172Y-104683945D01*
X172371657Y-104630067D01*
X172409063Y-104612984D01*
X172553665Y-104574239D01*
X172759903Y-104478068D01*
X172946308Y-104347547D01*
X173107216Y-104186639D01*
X173237737Y-104000234D01*
X173333908Y-103793996D01*
X173392804Y-103574192D01*
X173412637Y-103347500D01*
X173411219Y-103331297D01*
X173405411Y-103264902D01*
X173392804Y-103120808D01*
X173333908Y-102901004D01*
X173237737Y-102694766D01*
X173107216Y-102508361D01*
X173107214Y-102508358D01*
X172946310Y-102347454D01*
X172759903Y-102216932D01*
X172759901Y-102216931D01*
X172553666Y-102120761D01*
X172553657Y-102120758D01*
X172429521Y-102087497D01*
X172410031Y-102082274D01*
X172350371Y-102045910D01*
X172319842Y-101983063D01*
X172328137Y-101913688D01*
X172372622Y-101859810D01*
X172410031Y-101842725D01*
X172553665Y-101804239D01*
X172759903Y-101708068D01*
X172946308Y-101577547D01*
X173107216Y-101416639D01*
X173237737Y-101230234D01*
X173333908Y-101023996D01*
X173392804Y-100804192D01*
X173412637Y-100577500D01*
X173408366Y-100528688D01*
X173399442Y-100426686D01*
X173392804Y-100350808D01*
X173333908Y-100131004D01*
X173272076Y-99998406D01*
X173258553Y-99969405D01*
X173248061Y-99900327D01*
X173276581Y-99836543D01*
X173335057Y-99798304D01*
X173370935Y-99793000D01*
X173715477Y-99793000D01*
X173782516Y-99812685D01*
X173817049Y-99845874D01*
X173879208Y-99934647D01*
X173947123Y-100031641D01*
X174108027Y-100192545D01*
X174140175Y-100215055D01*
X174294435Y-100323068D01*
X174500673Y-100419239D01*
X174500678Y-100419240D01*
X174500680Y-100419241D01*
X174644305Y-100457725D01*
X174703966Y-100494090D01*
X174734495Y-100556937D01*
X174726200Y-100626312D01*
X174681715Y-100680190D01*
X174644305Y-100697275D01*
X174500680Y-100735758D01*
X174500671Y-100735761D01*
X174294436Y-100831931D01*
X174294434Y-100831932D01*
X174108027Y-100962454D01*
X173947123Y-101123358D01*
X173816601Y-101309765D01*
X173816600Y-101309767D01*
X173720430Y-101516002D01*
X173720427Y-101516011D01*
X173661535Y-101735802D01*
X173661533Y-101735813D01*
X173641701Y-101962498D01*
X173641701Y-101962501D01*
X173661533Y-102189186D01*
X173661535Y-102189197D01*
X173720427Y-102408988D01*
X173720430Y-102408997D01*
X173816600Y-102615232D01*
X173816601Y-102615234D01*
X173947123Y-102801641D01*
X174108027Y-102962545D01*
X174108030Y-102962547D01*
X174294435Y-103093068D01*
X174500673Y-103189239D01*
X174500678Y-103189240D01*
X174500680Y-103189241D01*
X174644305Y-103227725D01*
X174703966Y-103264090D01*
X174734495Y-103326937D01*
X174726200Y-103396312D01*
X174681715Y-103450190D01*
X174644305Y-103467275D01*
X174500680Y-103505758D01*
X174500671Y-103505761D01*
X174294436Y-103601931D01*
X174294434Y-103601932D01*
X174108027Y-103732454D01*
X173947123Y-103893358D01*
X173816601Y-104079765D01*
X173816600Y-104079767D01*
X173720430Y-104286002D01*
X173720427Y-104286011D01*
X173661535Y-104505802D01*
X173661533Y-104505813D01*
X173641701Y-104732498D01*
X173641701Y-104732501D01*
X173661533Y-104959186D01*
X173661535Y-104959197D01*
X173720427Y-105178988D01*
X173720430Y-105178997D01*
X173816600Y-105385232D01*
X173816601Y-105385234D01*
X173947123Y-105571641D01*
X174108027Y-105732545D01*
X174108030Y-105732547D01*
X174294435Y-105863068D01*
X174500673Y-105959239D01*
X174720477Y-106018135D01*
X174882399Y-106032301D01*
X174947167Y-106037968D01*
X174947169Y-106037968D01*
X174947171Y-106037968D01*
X175003842Y-106033009D01*
X175173861Y-106018135D01*
X175393665Y-105959239D01*
X175599903Y-105863068D01*
X175786308Y-105732547D01*
X175947216Y-105571639D01*
X176077737Y-105385234D01*
X176173908Y-105178996D01*
X176232804Y-104959192D01*
X176252637Y-104732500D01*
X176251762Y-104722504D01*
X176243675Y-104630067D01*
X176232804Y-104505808D01*
X176173908Y-104286004D01*
X176077737Y-104079766D01*
X175947216Y-103893361D01*
X175947214Y-103893358D01*
X175786310Y-103732454D01*
X175599903Y-103601932D01*
X175599901Y-103601931D01*
X175393666Y-103505761D01*
X175393657Y-103505758D01*
X175271135Y-103472929D01*
X175250031Y-103467274D01*
X175190371Y-103430910D01*
X175159842Y-103368063D01*
X175168137Y-103298688D01*
X175212622Y-103244810D01*
X175250031Y-103227725D01*
X175393665Y-103189239D01*
X175599903Y-103093068D01*
X175786308Y-102962547D01*
X175947216Y-102801639D01*
X176077737Y-102615234D01*
X176173908Y-102408996D01*
X176232804Y-102189192D01*
X176252637Y-101962500D01*
X176248366Y-101913688D01*
X176242855Y-101850694D01*
X176232804Y-101735808D01*
X176173908Y-101516004D01*
X176077737Y-101309766D01*
X175947216Y-101123361D01*
X175947214Y-101123358D01*
X175786310Y-100962454D01*
X175599903Y-100831932D01*
X175599901Y-100831931D01*
X175393666Y-100735761D01*
X175393657Y-100735758D01*
X175271135Y-100702929D01*
X175250031Y-100697274D01*
X175190371Y-100660910D01*
X175159842Y-100598063D01*
X175168137Y-100528688D01*
X175212622Y-100474810D01*
X175250031Y-100457725D01*
X175393665Y-100419239D01*
X175599903Y-100323068D01*
X175786308Y-100192547D01*
X175947216Y-100031639D01*
X176077737Y-99845234D01*
X176173908Y-99638996D01*
X176232804Y-99419192D01*
X176252637Y-99192500D01*
X176252183Y-99187315D01*
X176243057Y-99083000D01*
X176232804Y-98965808D01*
X176188085Y-98798915D01*
X176173910Y-98746011D01*
X176173907Y-98746002D01*
X176145276Y-98684603D01*
X176077737Y-98539766D01*
X175960676Y-98372584D01*
X175947214Y-98353358D01*
X175786310Y-98192454D01*
X175599903Y-98061932D01*
X175599901Y-98061931D01*
X175393666Y-97965761D01*
X175393657Y-97965758D01*
X175271135Y-97932929D01*
X175250031Y-97927274D01*
X175190371Y-97890910D01*
X175159842Y-97828063D01*
X175168137Y-97758688D01*
X175212622Y-97704810D01*
X175250031Y-97687725D01*
X175393665Y-97649239D01*
X175599903Y-97553068D01*
X175786308Y-97422547D01*
X175947216Y-97261639D01*
X176077737Y-97075234D01*
X176173908Y-96868996D01*
X176232804Y-96649192D01*
X176252637Y-96422500D01*
X176250690Y-96400251D01*
X176242783Y-96309867D01*
X176232804Y-96195808D01*
X176173908Y-95976004D01*
X176077737Y-95769766D01*
X175966211Y-95610489D01*
X175947214Y-95583358D01*
X175786310Y-95422454D01*
X175599903Y-95291932D01*
X175599901Y-95291931D01*
X175393666Y-95195761D01*
X175393657Y-95195758D01*
X175173866Y-95136866D01*
X175173862Y-95136865D01*
X175173861Y-95136865D01*
X175173860Y-95136864D01*
X175173855Y-95136864D01*
X174947171Y-95117032D01*
X174947167Y-95117032D01*
X174720482Y-95136864D01*
X174720471Y-95136866D01*
X174500680Y-95195758D01*
X174500671Y-95195761D01*
X174294436Y-95291931D01*
X174294434Y-95291932D01*
X174108027Y-95422454D01*
X173947123Y-95583358D01*
X173816601Y-95769765D01*
X173816600Y-95769767D01*
X173720430Y-95976002D01*
X173720427Y-95976011D01*
X173661535Y-96195802D01*
X173661533Y-96195813D01*
X173641701Y-96422498D01*
X173641701Y-96422501D01*
X173661533Y-96649186D01*
X173661535Y-96649197D01*
X173720427Y-96868988D01*
X173720430Y-96868997D01*
X173816600Y-97075232D01*
X173816601Y-97075234D01*
X173947123Y-97261641D01*
X174108027Y-97422545D01*
X174108030Y-97422547D01*
X174294435Y-97553068D01*
X174500673Y-97649239D01*
X174500678Y-97649240D01*
X174500680Y-97649241D01*
X174644305Y-97687725D01*
X174703966Y-97724090D01*
X174734495Y-97786937D01*
X174726200Y-97856312D01*
X174681715Y-97910190D01*
X174644305Y-97927275D01*
X174500680Y-97965758D01*
X174500671Y-97965761D01*
X174294436Y-98061931D01*
X174294434Y-98061932D01*
X174108027Y-98192454D01*
X173947123Y-98353358D01*
X173887731Y-98438181D01*
X173817050Y-98539124D01*
X173762476Y-98582748D01*
X173715477Y-98592000D01*
X173370935Y-98592000D01*
X173303896Y-98572315D01*
X173258141Y-98519511D01*
X173248197Y-98450353D01*
X173258553Y-98415595D01*
X173275986Y-98378210D01*
X173333908Y-98253996D01*
X173392804Y-98034192D01*
X173412637Y-97807500D01*
X173412221Y-97802750D01*
X173402831Y-97695414D01*
X173392804Y-97580808D01*
X173333908Y-97361004D01*
X173237737Y-97154766D01*
X173107216Y-96968361D01*
X173107214Y-96968358D01*
X172946310Y-96807454D01*
X172759903Y-96676932D01*
X172759901Y-96676931D01*
X172553666Y-96580761D01*
X172548571Y-96578907D01*
X172549328Y-96576825D01*
X172497786Y-96545408D01*
X172467257Y-96482561D01*
X172475552Y-96413186D01*
X172520038Y-96359308D01*
X172586590Y-96338034D01*
X172589521Y-96337999D01*
X172955041Y-96337999D01*
X173014652Y-96331591D01*
X173149500Y-96281296D01*
X173264715Y-96195046D01*
X173350965Y-96079831D01*
X173401260Y-95944983D01*
X173407669Y-95885373D01*
X173407668Y-94189628D01*
X173401260Y-94130017D01*
X173394161Y-94110984D01*
X173350966Y-93995171D01*
X173350962Y-93995164D01*
X173264716Y-93879955D01*
X173264713Y-93879952D01*
X173149504Y-93793706D01*
X173149497Y-93793702D01*
X173014651Y-93743408D01*
X173014652Y-93743408D01*
X172955052Y-93737001D01*
X172955050Y-93737000D01*
X172955042Y-93737000D01*
X172955033Y-93737000D01*
X171259298Y-93737000D01*
X171259292Y-93737001D01*
X171199685Y-93743408D01*
X171064840Y-93793702D01*
X171064833Y-93793706D01*
X170949624Y-93879952D01*
X170949621Y-93879955D01*
X170863375Y-93995164D01*
X170863371Y-93995171D01*
X170813077Y-94130017D01*
X170806670Y-94189616D01*
X170806670Y-94189623D01*
X170806669Y-94189635D01*
X170806669Y-95885370D01*
X170806670Y-95885376D01*
X170813077Y-95944983D01*
X170863371Y-96079828D01*
X170863375Y-96079835D01*
X170949621Y-96195044D01*
X170949624Y-96195047D01*
X171064833Y-96281293D01*
X171064840Y-96281297D01*
X171199686Y-96331591D01*
X171199685Y-96331591D01*
X171206613Y-96332335D01*
X171259296Y-96338000D01*
X171624797Y-96337999D01*
X171691834Y-96357683D01*
X171737589Y-96410487D01*
X171747533Y-96479646D01*
X171718508Y-96543201D01*
X171665232Y-96577439D01*
X171665767Y-96578907D01*
X171660671Y-96580761D01*
X171454436Y-96676931D01*
X171454434Y-96676932D01*
X171268027Y-96807454D01*
X171107123Y-96968358D01*
X170976601Y-97154765D01*
X170976600Y-97154767D01*
X170880430Y-97361002D01*
X170880427Y-97361011D01*
X170821535Y-97580802D01*
X170821533Y-97580813D01*
X170801701Y-97807498D01*
X170801701Y-97807501D01*
X170821533Y-98034186D01*
X170821535Y-98034197D01*
X170880427Y-98253988D01*
X170880429Y-98253992D01*
X170880430Y-98253996D01*
X170908079Y-98313289D01*
X170955785Y-98415595D01*
X170966277Y-98484673D01*
X170937757Y-98548457D01*
X170879281Y-98586696D01*
X170843403Y-98592000D01*
X162182597Y-98592000D01*
X162115558Y-98572315D01*
X162094916Y-98555681D01*
X161911819Y-98372584D01*
X161878334Y-98311261D01*
X161875500Y-98284903D01*
X161875500Y-97462400D01*
X161895185Y-97395361D01*
X161934401Y-97356863D01*
X161973350Y-97332840D01*
X162095340Y-97210850D01*
X162185908Y-97064016D01*
X162240174Y-96900253D01*
X162250500Y-96799177D01*
X162250499Y-96200824D01*
X162240174Y-96099747D01*
X162185908Y-95935984D01*
X162095340Y-95789150D01*
X161981371Y-95675181D01*
X161947886Y-95613858D01*
X161952870Y-95544166D01*
X161981371Y-95499819D01*
X162020732Y-95460458D01*
X162095340Y-95385850D01*
X162185908Y-95239016D01*
X162240174Y-95075253D01*
X162250500Y-94974177D01*
X162250499Y-94375824D01*
X162245388Y-94325794D01*
X162240174Y-94274747D01*
X162236782Y-94264511D01*
X162185908Y-94110984D01*
X162095340Y-93964150D01*
X161973350Y-93842160D01*
X161973349Y-93842159D01*
X161934402Y-93818136D01*
X161887678Y-93766187D01*
X161875500Y-93712598D01*
X161875500Y-93029059D01*
X161875501Y-93029046D01*
X161875501Y-92860945D01*
X161875501Y-92860943D01*
X161834577Y-92708215D01*
X161805639Y-92658095D01*
X161755520Y-92571284D01*
X161643716Y-92459480D01*
X161643715Y-92459479D01*
X161639385Y-92455149D01*
X161639374Y-92455139D01*
X161020266Y-91836031D01*
X160986781Y-91774708D01*
X160988172Y-91716257D01*
X160990658Y-91706978D01*
X161022563Y-91587908D01*
X161043159Y-91352500D01*
X161022563Y-91117092D01*
X160961403Y-90888837D01*
X160861535Y-90674671D01*
X160793495Y-90577500D01*
X160725996Y-90481100D01*
X160684466Y-90439570D01*
X160604067Y-90359171D01*
X160570584Y-90297851D01*
X160575568Y-90228159D01*
X160617439Y-90172225D01*
X160648415Y-90155310D01*
X160779831Y-90106296D01*
X160895046Y-90020046D01*
X160981296Y-89904831D01*
X161031591Y-89769983D01*
X161038000Y-89710373D01*
X161037999Y-88077505D01*
X169902226Y-88077505D01*
X169921976Y-88391442D01*
X169921977Y-88391449D01*
X169980924Y-88700458D01*
X170078132Y-88999632D01*
X170078134Y-88999637D01*
X170212069Y-89284261D01*
X170212072Y-89284267D01*
X170380626Y-89549867D01*
X170380629Y-89549871D01*
X170471455Y-89659660D01*
X171112917Y-89018198D01*
X171186757Y-89119830D01*
X171364839Y-89297912D01*
X171466469Y-89371750D01*
X170822140Y-90016079D01*
X170822141Y-90016081D01*
X171064941Y-90192485D01*
X171064959Y-90192496D01*
X171340616Y-90344040D01*
X171340624Y-90344044D01*
X171633095Y-90459840D01*
X171937789Y-90538073D01*
X171937798Y-90538075D01*
X172249870Y-90577499D01*
X172249884Y-90577500D01*
X172564454Y-90577500D01*
X172564467Y-90577499D01*
X172876539Y-90538075D01*
X172876548Y-90538073D01*
X173181242Y-90459840D01*
X173473713Y-90344044D01*
X173473721Y-90344040D01*
X173749378Y-90192496D01*
X173749388Y-90192490D01*
X173992195Y-90016079D01*
X173992196Y-90016079D01*
X173347867Y-89371751D01*
X173449499Y-89297912D01*
X173627581Y-89119830D01*
X173701420Y-89018199D01*
X174342881Y-89659660D01*
X174433713Y-89549864D01*
X174602265Y-89284267D01*
X174602268Y-89284261D01*
X174736203Y-88999637D01*
X174736205Y-88999632D01*
X174833413Y-88700458D01*
X174892360Y-88391449D01*
X174892361Y-88391442D01*
X174912112Y-88077505D01*
X174912112Y-88077494D01*
X174892361Y-87763557D01*
X174892360Y-87763550D01*
X174833413Y-87454541D01*
X174736205Y-87155367D01*
X174736203Y-87155362D01*
X174602268Y-86870738D01*
X174602265Y-86870732D01*
X174433711Y-86605132D01*
X174433708Y-86605128D01*
X174342881Y-86495338D01*
X173701419Y-87136800D01*
X173627581Y-87035170D01*
X173449499Y-86857088D01*
X173347867Y-86783248D01*
X173992196Y-86138919D01*
X173992195Y-86138917D01*
X173749396Y-85962514D01*
X173749378Y-85962503D01*
X173473721Y-85810959D01*
X173473713Y-85810955D01*
X173181242Y-85695159D01*
X172876548Y-85616926D01*
X172876539Y-85616924D01*
X172564467Y-85577500D01*
X172249870Y-85577500D01*
X171937798Y-85616924D01*
X171937789Y-85616926D01*
X171633095Y-85695159D01*
X171340624Y-85810955D01*
X171340616Y-85810959D01*
X171064956Y-85962504D01*
X171064951Y-85962507D01*
X170822141Y-86138918D01*
X170822140Y-86138919D01*
X171466470Y-86783248D01*
X171364839Y-86857088D01*
X171186757Y-87035170D01*
X171112917Y-87136800D01*
X170471455Y-86495338D01*
X170471454Y-86495338D01*
X170380628Y-86605129D01*
X170380626Y-86605132D01*
X170212072Y-86870732D01*
X170212069Y-86870738D01*
X170078134Y-87155362D01*
X170078132Y-87155367D01*
X169980924Y-87454541D01*
X169921977Y-87763550D01*
X169921976Y-87763557D01*
X169902226Y-88077494D01*
X169902226Y-88077505D01*
X161037999Y-88077505D01*
X161037999Y-87914628D01*
X161031591Y-87855017D01*
X160981296Y-87720169D01*
X160981295Y-87720168D01*
X160981293Y-87720164D01*
X160895047Y-87604955D01*
X160895044Y-87604952D01*
X160779835Y-87518706D01*
X160779828Y-87518702D01*
X160644982Y-87468408D01*
X160644983Y-87468408D01*
X160585383Y-87462001D01*
X160585381Y-87462000D01*
X160585373Y-87462000D01*
X160585364Y-87462000D01*
X158789629Y-87462000D01*
X158789623Y-87462001D01*
X158730016Y-87468408D01*
X158595171Y-87518702D01*
X158595164Y-87518706D01*
X158479955Y-87604952D01*
X158479952Y-87604955D01*
X158393706Y-87720164D01*
X158393702Y-87720171D01*
X158343408Y-87855017D01*
X158337001Y-87914616D01*
X158337001Y-87914623D01*
X158337000Y-87914635D01*
X158337000Y-89262401D01*
X158317315Y-89329440D01*
X158300681Y-89350082D01*
X155943786Y-91706978D01*
X155831981Y-91818782D01*
X155831979Y-91818785D01*
X155781861Y-91905594D01*
X155781859Y-91905596D01*
X155752925Y-91955709D01*
X155752924Y-91955710D01*
X155752923Y-91955715D01*
X155711999Y-92108443D01*
X155711999Y-92108445D01*
X155711999Y-92276546D01*
X155712000Y-92276559D01*
X155712000Y-95988766D01*
X155692315Y-96055805D01*
X155639511Y-96101560D01*
X155577352Y-96111805D01*
X155577334Y-96112161D01*
X155575698Y-96112077D01*
X155575412Y-96112125D01*
X155574202Y-96112001D01*
X155574179Y-96112000D01*
X155574177Y-96112000D01*
X155574171Y-96112000D01*
X154975830Y-96112000D01*
X154975812Y-96112001D01*
X154874747Y-96122325D01*
X154710984Y-96176592D01*
X154710981Y-96176593D01*
X154564148Y-96267161D01*
X154442161Y-96389148D01*
X154351593Y-96535981D01*
X154351591Y-96535986D01*
X154334521Y-96587500D01*
X154297326Y-96699747D01*
X154297326Y-96699748D01*
X154297325Y-96699748D01*
X154287000Y-96800815D01*
X154287000Y-97174902D01*
X154267315Y-97241941D01*
X154250681Y-97262583D01*
X153481481Y-98031782D01*
X153481479Y-98031784D01*
X153469419Y-98052674D01*
X153450541Y-98085373D01*
X153435168Y-98112000D01*
X153402422Y-98168715D01*
X153402421Y-98168718D01*
X153393344Y-98202595D01*
X153356979Y-98262255D01*
X153294132Y-98292783D01*
X153273570Y-98294500D01*
X152912098Y-98294500D01*
X152845059Y-98274815D01*
X152824417Y-98258181D01*
X149292090Y-94725855D01*
X149292088Y-94725852D01*
X149173217Y-94606981D01*
X149173216Y-94606980D01*
X149086404Y-94556860D01*
X149086404Y-94556859D01*
X149086400Y-94556858D01*
X149036285Y-94527923D01*
X148883557Y-94486999D01*
X148725443Y-94486999D01*
X148717847Y-94486999D01*
X148717831Y-94487000D01*
X147775862Y-94487000D01*
X147708823Y-94467315D01*
X147688181Y-94450681D01*
X147662500Y-94425000D01*
X146542328Y-94425000D01*
X146480335Y-94408391D01*
X146477688Y-94406863D01*
X146477689Y-94406860D01*
X146477678Y-94406858D01*
X146427563Y-94377923D01*
X146274835Y-94336999D01*
X146116721Y-94336999D01*
X146109125Y-94336999D01*
X146109109Y-94337000D01*
X143824500Y-94337000D01*
X143757461Y-94317315D01*
X143711706Y-94264511D01*
X143700500Y-94213000D01*
X143700500Y-93925000D01*
X145712500Y-93925000D01*
X146437500Y-93925000D01*
X146437500Y-93187500D01*
X146937500Y-93187500D01*
X146937500Y-93925000D01*
X147662499Y-93925000D01*
X147662499Y-93875860D01*
X147662498Y-93875845D01*
X147652180Y-93774847D01*
X147597953Y-93611199D01*
X147597948Y-93611188D01*
X147507447Y-93464465D01*
X147507444Y-93464461D01*
X147385538Y-93342555D01*
X147385534Y-93342552D01*
X147238811Y-93252051D01*
X147238800Y-93252046D01*
X147075152Y-93197819D01*
X146974154Y-93187500D01*
X146937500Y-93187500D01*
X146437500Y-93187500D01*
X146400861Y-93187500D01*
X146400843Y-93187501D01*
X146299847Y-93197819D01*
X146136199Y-93252046D01*
X146136188Y-93252051D01*
X145989465Y-93342552D01*
X145989461Y-93342555D01*
X145867555Y-93464461D01*
X145867552Y-93464465D01*
X145777051Y-93611188D01*
X145777046Y-93611199D01*
X145722819Y-93774847D01*
X145712500Y-93875845D01*
X145712500Y-93925000D01*
X143700500Y-93925000D01*
X143700500Y-90545110D01*
X143720185Y-90478071D01*
X143759401Y-90439573D01*
X143810850Y-90407840D01*
X143932840Y-90285850D01*
X144023408Y-90139016D01*
X144077674Y-89975253D01*
X144088000Y-89874177D01*
X144087999Y-89300824D01*
X144077674Y-89199747D01*
X144023408Y-89035984D01*
X143932840Y-88889150D01*
X143810850Y-88767160D01*
X143810849Y-88767159D01*
X143759402Y-88735426D01*
X143712678Y-88683478D01*
X143700500Y-88629888D01*
X143700500Y-87545110D01*
X143720185Y-87478071D01*
X143759401Y-87439573D01*
X143810850Y-87407840D01*
X143932840Y-87285850D01*
X144023408Y-87139016D01*
X144077674Y-86975253D01*
X144088000Y-86874177D01*
X144087999Y-86300824D01*
X144077674Y-86199747D01*
X144023408Y-86035984D01*
X143932840Y-85889150D01*
X143810850Y-85767160D01*
X143664016Y-85676592D01*
X143500253Y-85622326D01*
X143500251Y-85622325D01*
X143399178Y-85612000D01*
X142800830Y-85612000D01*
X142800812Y-85612001D01*
X142699747Y-85622325D01*
X142535984Y-85676592D01*
X142535981Y-85676593D01*
X142389148Y-85767161D01*
X142275181Y-85881129D01*
X142213858Y-85914614D01*
X142144166Y-85909630D01*
X142099819Y-85881129D01*
X141985851Y-85767161D01*
X141985850Y-85767160D01*
X141839016Y-85676592D01*
X141675253Y-85622326D01*
X141675251Y-85622325D01*
X141574178Y-85612000D01*
X140975830Y-85612000D01*
X140975812Y-85612001D01*
X140874747Y-85622325D01*
X140710984Y-85676592D01*
X140710981Y-85676593D01*
X140564148Y-85767161D01*
X140442159Y-85889150D01*
X140418138Y-85928096D01*
X140366190Y-85974821D01*
X140312599Y-85987000D01*
X139117401Y-85987000D01*
X139050362Y-85967315D01*
X139011862Y-85928096D01*
X138987840Y-85889150D01*
X138865851Y-85767161D01*
X138865850Y-85767160D01*
X138719016Y-85676592D01*
X138555253Y-85622326D01*
X138555251Y-85622325D01*
X138454178Y-85612000D01*
X137780830Y-85612000D01*
X137780812Y-85612001D01*
X137679747Y-85622325D01*
X137515984Y-85676592D01*
X137515981Y-85676593D01*
X137369148Y-85767161D01*
X137330181Y-85806129D01*
X137268858Y-85839614D01*
X137199166Y-85834630D01*
X137154819Y-85806129D01*
X137115851Y-85767161D01*
X137115850Y-85767160D01*
X136969016Y-85676592D01*
X136805253Y-85622326D01*
X136805251Y-85622325D01*
X136704178Y-85612000D01*
X136030830Y-85612000D01*
X136030812Y-85612001D01*
X135929747Y-85622325D01*
X135765984Y-85676592D01*
X135765981Y-85676593D01*
X135619148Y-85767161D01*
X135497159Y-85889150D01*
X135473138Y-85928096D01*
X135421190Y-85974821D01*
X135367599Y-85987000D01*
X134269912Y-85987000D01*
X134202873Y-85967315D01*
X134192597Y-85959945D01*
X134189763Y-85957685D01*
X134189762Y-85957684D01*
X134070813Y-85882943D01*
X134037023Y-85861711D01*
X133866754Y-85802131D01*
X133866749Y-85802130D01*
X133687504Y-85781935D01*
X133687496Y-85781935D01*
X133508250Y-85802130D01*
X133508245Y-85802131D01*
X133337976Y-85861711D01*
X133185237Y-85957684D01*
X133057684Y-86085237D01*
X132961711Y-86237976D01*
X132902131Y-86408245D01*
X132902130Y-86408250D01*
X132881935Y-86587496D01*
X132881935Y-86587503D01*
X132902130Y-86766749D01*
X132902131Y-86766754D01*
X132961711Y-86937023D01*
X133057684Y-87089762D01*
X133185238Y-87217316D01*
X133275580Y-87274082D01*
X133294307Y-87285849D01*
X133337978Y-87313289D01*
X133496822Y-87368871D01*
X133508245Y-87372868D01*
X133508250Y-87372869D01*
X133687496Y-87393065D01*
X133687500Y-87393065D01*
X133687504Y-87393065D01*
X133866749Y-87372869D01*
X133866752Y-87372868D01*
X133866755Y-87372868D01*
X134037022Y-87313289D01*
X134189762Y-87217316D01*
X134189767Y-87217310D01*
X134192597Y-87215055D01*
X134194775Y-87214165D01*
X134195658Y-87213611D01*
X134195755Y-87213765D01*
X134257283Y-87188645D01*
X134269912Y-87188000D01*
X135367599Y-87188000D01*
X135434638Y-87207685D01*
X135473138Y-87246904D01*
X135497160Y-87285850D01*
X135619150Y-87407840D01*
X135765984Y-87498408D01*
X135929747Y-87552674D01*
X136030823Y-87563000D01*
X136704176Y-87562999D01*
X136704184Y-87562998D01*
X136704187Y-87562998D01*
X136759530Y-87557344D01*
X136805253Y-87552674D01*
X136969016Y-87498408D01*
X137115850Y-87407840D01*
X137154819Y-87368871D01*
X137216142Y-87335386D01*
X137285834Y-87340370D01*
X137330181Y-87368871D01*
X137369150Y-87407840D01*
X137515984Y-87498408D01*
X137679747Y-87552674D01*
X137780823Y-87563000D01*
X138454176Y-87562999D01*
X138454184Y-87562998D01*
X138454187Y-87562998D01*
X138509530Y-87557344D01*
X138555253Y-87552674D01*
X138719016Y-87498408D01*
X138865850Y-87407840D01*
X138987840Y-87285850D01*
X139011862Y-87246904D01*
X139063810Y-87200179D01*
X139117401Y-87188000D01*
X140312599Y-87188000D01*
X140379638Y-87207685D01*
X140418138Y-87246904D01*
X140442160Y-87285850D01*
X140564150Y-87407840D01*
X140710984Y-87498408D01*
X140874747Y-87552674D01*
X140975823Y-87563000D01*
X141574176Y-87562999D01*
X141574184Y-87562998D01*
X141574187Y-87562998D01*
X141629530Y-87557344D01*
X141675253Y-87552674D01*
X141839016Y-87498408D01*
X141985850Y-87407840D01*
X142099819Y-87293871D01*
X142161142Y-87260386D01*
X142230834Y-87265370D01*
X142275181Y-87293871D01*
X142389150Y-87407840D01*
X142440597Y-87439572D01*
X142487321Y-87491517D01*
X142499500Y-87545110D01*
X142499500Y-88629888D01*
X142479815Y-88696927D01*
X142440598Y-88735426D01*
X142389150Y-88767159D01*
X142389149Y-88767160D01*
X142275181Y-88881129D01*
X142213858Y-88914614D01*
X142144166Y-88909630D01*
X142099819Y-88881129D01*
X141985851Y-88767161D01*
X141985850Y-88767160D01*
X141839016Y-88676592D01*
X141675253Y-88622326D01*
X141675251Y-88622325D01*
X141574178Y-88612000D01*
X140975830Y-88612000D01*
X140975812Y-88612001D01*
X140874747Y-88622325D01*
X140710984Y-88676592D01*
X140710981Y-88676593D01*
X140564148Y-88767161D01*
X140442159Y-88889150D01*
X140418138Y-88928096D01*
X140366190Y-88974821D01*
X140312599Y-88987000D01*
X139187401Y-88987000D01*
X139120362Y-88967315D01*
X139081862Y-88928096D01*
X139057840Y-88889150D01*
X138935851Y-88767161D01*
X138935850Y-88767160D01*
X138789016Y-88676592D01*
X138625253Y-88622326D01*
X138625251Y-88622325D01*
X138524178Y-88612000D01*
X137850830Y-88612000D01*
X137850812Y-88612001D01*
X137749747Y-88622325D01*
X137585984Y-88676592D01*
X137585981Y-88676593D01*
X137439148Y-88767161D01*
X137400181Y-88806129D01*
X137338858Y-88839614D01*
X137269166Y-88834630D01*
X137224819Y-88806129D01*
X137185851Y-88767161D01*
X137185850Y-88767160D01*
X137039016Y-88676592D01*
X136875253Y-88622326D01*
X136875251Y-88622325D01*
X136774178Y-88612000D01*
X136100830Y-88612000D01*
X136100812Y-88612001D01*
X135999747Y-88622325D01*
X135835984Y-88676592D01*
X135835981Y-88676593D01*
X135689148Y-88767161D01*
X135567159Y-88889150D01*
X135543138Y-88928096D01*
X135491190Y-88974821D01*
X135437599Y-88987000D01*
X135269912Y-88987000D01*
X135202873Y-88967315D01*
X135192597Y-88959945D01*
X135189763Y-88957685D01*
X135189762Y-88957684D01*
X135132996Y-88922015D01*
X135037023Y-88861711D01*
X134866754Y-88802131D01*
X134866749Y-88802130D01*
X134687504Y-88781935D01*
X134687496Y-88781935D01*
X134508250Y-88802130D01*
X134508245Y-88802131D01*
X134337976Y-88861711D01*
X134185237Y-88957684D01*
X134057684Y-89085237D01*
X133961711Y-89237976D01*
X133902131Y-89408245D01*
X133902130Y-89408250D01*
X133881935Y-89587496D01*
X133881935Y-89587503D01*
X133902130Y-89766749D01*
X133902131Y-89766754D01*
X133961711Y-89937023D01*
X133985733Y-89975253D01*
X134057684Y-90089762D01*
X134185238Y-90217316D01*
X134275580Y-90274082D01*
X134313408Y-90297851D01*
X134337978Y-90313289D01*
X134425871Y-90344044D01*
X134508245Y-90372868D01*
X134508250Y-90372869D01*
X134687496Y-90393065D01*
X134687500Y-90393065D01*
X134687504Y-90393065D01*
X134866749Y-90372869D01*
X134866752Y-90372868D01*
X134866755Y-90372868D01*
X135037022Y-90313289D01*
X135189762Y-90217316D01*
X135189767Y-90217310D01*
X135192597Y-90215055D01*
X135194775Y-90214165D01*
X135195658Y-90213611D01*
X135195755Y-90213765D01*
X135257283Y-90188645D01*
X135269912Y-90188000D01*
X135437599Y-90188000D01*
X135504638Y-90207685D01*
X135543138Y-90246904D01*
X135567160Y-90285850D01*
X135689150Y-90407840D01*
X135835984Y-90498408D01*
X135999747Y-90552674D01*
X136100823Y-90563000D01*
X136774176Y-90562999D01*
X136774184Y-90562998D01*
X136774187Y-90562998D01*
X136829530Y-90557344D01*
X136875253Y-90552674D01*
X137039016Y-90498408D01*
X137185850Y-90407840D01*
X137224819Y-90368871D01*
X137286142Y-90335386D01*
X137355834Y-90340370D01*
X137400181Y-90368871D01*
X137439150Y-90407840D01*
X137585984Y-90498408D01*
X137749747Y-90552674D01*
X137850823Y-90563000D01*
X138524176Y-90562999D01*
X138524184Y-90562998D01*
X138524187Y-90562998D01*
X138579530Y-90557344D01*
X138625253Y-90552674D01*
X138789016Y-90498408D01*
X138935850Y-90407840D01*
X139057840Y-90285850D01*
X139081862Y-90246904D01*
X139133810Y-90200179D01*
X139187401Y-90188000D01*
X140312599Y-90188000D01*
X140379638Y-90207685D01*
X140418138Y-90246904D01*
X140442160Y-90285850D01*
X140564150Y-90407840D01*
X140710984Y-90498408D01*
X140874747Y-90552674D01*
X140975823Y-90563000D01*
X141574176Y-90562999D01*
X141574184Y-90562998D01*
X141574187Y-90562998D01*
X141629530Y-90557344D01*
X141675253Y-90552674D01*
X141839016Y-90498408D01*
X141985850Y-90407840D01*
X142099819Y-90293871D01*
X142161142Y-90260386D01*
X142230834Y-90265370D01*
X142275181Y-90293871D01*
X142389150Y-90407840D01*
X142440597Y-90439572D01*
X142487321Y-90491517D01*
X142499500Y-90545110D01*
X142499500Y-94213000D01*
X142479815Y-94280039D01*
X142427011Y-94325794D01*
X142375500Y-94337000D01*
X137924169Y-94337000D01*
X137924153Y-94336999D01*
X137916557Y-94336999D01*
X137758443Y-94336999D01*
X137651087Y-94365765D01*
X137605710Y-94377924D01*
X137605709Y-94377925D01*
X137555596Y-94406859D01*
X137555595Y-94406860D01*
X137512189Y-94431920D01*
X137468785Y-94456979D01*
X137468782Y-94456981D01*
X135574681Y-96351083D01*
X135513358Y-96384568D01*
X135443666Y-96379584D01*
X135387733Y-96337712D01*
X135363316Y-96272248D01*
X135363000Y-96263402D01*
X135363000Y-95258445D01*
X135363000Y-95258443D01*
X135322077Y-95105716D01*
X135304488Y-95075251D01*
X135243024Y-94968790D01*
X135243018Y-94968782D01*
X135131217Y-94856981D01*
X135131209Y-94856975D01*
X134994290Y-94777926D01*
X134994286Y-94777924D01*
X134994284Y-94777923D01*
X134841557Y-94737000D01*
X134841556Y-94737000D01*
X132499170Y-94737000D01*
X132499154Y-94736999D01*
X132491558Y-94736999D01*
X132333443Y-94736999D01*
X132257079Y-94757461D01*
X132180714Y-94777923D01*
X132180709Y-94777926D01*
X132043790Y-94856975D01*
X132043782Y-94856981D01*
X127617505Y-99283257D01*
X127556182Y-99316742D01*
X127486490Y-99311758D01*
X127430557Y-99269886D01*
X127416779Y-99244027D01*
X127416312Y-99244253D01*
X127413292Y-99237983D01*
X127393824Y-99207000D01*
X127317316Y-99085238D01*
X127189762Y-98957684D01*
X127037023Y-98861711D01*
X126866754Y-98802131D01*
X126866749Y-98802130D01*
X126687504Y-98781935D01*
X126687496Y-98781935D01*
X126508250Y-98802130D01*
X126508245Y-98802131D01*
X126337976Y-98861711D01*
X126185236Y-98957685D01*
X126182403Y-98959945D01*
X126180224Y-98960834D01*
X126179342Y-98961389D01*
X126179244Y-98961234D01*
X126117717Y-98986355D01*
X126105088Y-98987000D01*
X125419192Y-98987000D01*
X125352153Y-98967315D01*
X125317619Y-98934125D01*
X125187547Y-98748361D01*
X125187545Y-98748358D01*
X125026641Y-98587454D01*
X124840234Y-98456932D01*
X124840232Y-98456931D01*
X124818888Y-98446978D01*
X124770429Y-98424381D01*
X124717991Y-98378210D01*
X124698839Y-98311016D01*
X124719055Y-98244135D01*
X124772220Y-98198800D01*
X124822835Y-98188000D01*
X126105088Y-98188000D01*
X126172127Y-98207685D01*
X126182403Y-98215055D01*
X126185236Y-98217314D01*
X126185238Y-98217316D01*
X126256758Y-98262255D01*
X126334360Y-98311016D01*
X126337978Y-98313289D01*
X126403640Y-98336265D01*
X126508245Y-98372868D01*
X126508250Y-98372869D01*
X126687496Y-98393065D01*
X126687500Y-98393065D01*
X126687504Y-98393065D01*
X126866749Y-98372869D01*
X126866752Y-98372868D01*
X126866755Y-98372868D01*
X127037022Y-98313289D01*
X127189762Y-98217316D01*
X127317316Y-98089762D01*
X127413289Y-97937022D01*
X127472868Y-97766755D01*
X127475499Y-97743409D01*
X127493065Y-97587500D01*
X127493065Y-97587496D01*
X127472869Y-97408250D01*
X127472868Y-97408245D01*
X127431443Y-97289859D01*
X127413289Y-97237978D01*
X127317316Y-97085238D01*
X127189762Y-96957684D01*
X127169202Y-96944765D01*
X127037023Y-96861711D01*
X126866754Y-96802131D01*
X126866749Y-96802130D01*
X126687504Y-96781935D01*
X126687496Y-96781935D01*
X126508250Y-96802130D01*
X126508245Y-96802131D01*
X126337976Y-96861711D01*
X126185236Y-96957685D01*
X126182403Y-96959945D01*
X126180224Y-96960834D01*
X126179342Y-96961389D01*
X126179244Y-96961234D01*
X126117717Y-96986355D01*
X126105088Y-96987000D01*
X124266557Y-96987000D01*
X124108443Y-96987000D01*
X123955715Y-97027923D01*
X123955714Y-97027923D01*
X123955712Y-97027924D01*
X123955709Y-97027925D01*
X123920566Y-97048216D01*
X123920564Y-97048217D01*
X123818790Y-97106975D01*
X123818782Y-97106981D01*
X123706978Y-97218786D01*
X122630205Y-98295558D01*
X122568882Y-98329043D01*
X122510431Y-98327652D01*
X122414197Y-98301866D01*
X122414193Y-98301865D01*
X122414192Y-98301865D01*
X122414191Y-98301864D01*
X122414186Y-98301864D01*
X122187502Y-98282032D01*
X122187498Y-98282032D01*
X121960813Y-98301864D01*
X121960802Y-98301866D01*
X121741011Y-98360758D01*
X121741002Y-98360761D01*
X121534767Y-98456931D01*
X121534765Y-98456932D01*
X121348358Y-98587454D01*
X121187454Y-98748358D01*
X121056932Y-98934765D01*
X121056931Y-98934767D01*
X120960761Y-99141002D01*
X120960758Y-99141011D01*
X120901866Y-99360802D01*
X120901864Y-99360813D01*
X120882032Y-99587498D01*
X120882032Y-99587501D01*
X109188000Y-99587501D01*
X109188000Y-94837505D01*
X116822557Y-94837505D01*
X116842307Y-95151442D01*
X116842308Y-95151449D01*
X116901255Y-95460458D01*
X116998463Y-95759632D01*
X116998465Y-95759637D01*
X117132400Y-96044261D01*
X117132403Y-96044267D01*
X117300957Y-96309867D01*
X117300960Y-96309871D01*
X117391786Y-96419660D01*
X118355413Y-95456033D01*
X118450329Y-95586675D01*
X118578325Y-95714671D01*
X118708965Y-95809586D01*
X117742471Y-96776079D01*
X117742472Y-96776081D01*
X117985272Y-96952485D01*
X117985290Y-96952496D01*
X118260947Y-97104040D01*
X118260955Y-97104044D01*
X118553426Y-97219840D01*
X118858120Y-97298073D01*
X118858129Y-97298075D01*
X119170201Y-97337499D01*
X119170215Y-97337500D01*
X119484785Y-97337500D01*
X119484798Y-97337499D01*
X119796870Y-97298075D01*
X119796879Y-97298073D01*
X120101573Y-97219840D01*
X120394044Y-97104044D01*
X120394052Y-97104040D01*
X120669709Y-96952496D01*
X120669719Y-96952490D01*
X120912526Y-96776079D01*
X120912527Y-96776079D01*
X119946033Y-95809586D01*
X120076675Y-95714671D01*
X120204671Y-95586675D01*
X120299586Y-95456034D01*
X121263212Y-96419660D01*
X121354044Y-96309864D01*
X121522596Y-96044267D01*
X121522599Y-96044261D01*
X121656534Y-95759637D01*
X121656536Y-95759632D01*
X121753744Y-95460458D01*
X121812691Y-95151449D01*
X121812692Y-95151442D01*
X121832443Y-94837505D01*
X121832443Y-94837494D01*
X121812692Y-94523557D01*
X121812691Y-94523550D01*
X121753744Y-94214541D01*
X121656536Y-93915367D01*
X121656534Y-93915362D01*
X121522599Y-93630738D01*
X121522596Y-93630732D01*
X121354042Y-93365132D01*
X121354039Y-93365128D01*
X121263212Y-93255338D01*
X120299585Y-94218965D01*
X120204671Y-94088325D01*
X120076675Y-93960329D01*
X119946033Y-93865413D01*
X120912527Y-92898919D01*
X120912526Y-92898917D01*
X120669727Y-92722514D01*
X120669709Y-92722503D01*
X120394052Y-92570959D01*
X120394044Y-92570955D01*
X120101573Y-92455159D01*
X119796879Y-92376926D01*
X119796870Y-92376924D01*
X119484798Y-92337500D01*
X119170201Y-92337500D01*
X118858129Y-92376924D01*
X118858120Y-92376926D01*
X118553426Y-92455159D01*
X118260955Y-92570955D01*
X118260947Y-92570959D01*
X117985287Y-92722504D01*
X117985282Y-92722507D01*
X117742472Y-92898918D01*
X117742471Y-92898919D01*
X118708966Y-93865413D01*
X118578325Y-93960329D01*
X118450329Y-94088325D01*
X118355413Y-94218965D01*
X117391786Y-93255338D01*
X117391785Y-93255338D01*
X117300959Y-93365129D01*
X117300957Y-93365132D01*
X117132403Y-93630732D01*
X117132400Y-93630738D01*
X116998465Y-93915362D01*
X116998463Y-93915367D01*
X116901255Y-94214541D01*
X116842308Y-94523550D01*
X116842307Y-94523557D01*
X116822557Y-94837494D01*
X116822557Y-94837505D01*
X109188000Y-94837505D01*
X109188000Y-86091927D01*
X109188316Y-86083081D01*
X109188316Y-86083080D01*
X109202630Y-85882936D01*
X109205146Y-85865438D01*
X109246856Y-85673699D01*
X109251833Y-85656748D01*
X109320411Y-85472885D01*
X109327759Y-85456798D01*
X109390315Y-85342234D01*
X109421791Y-85284589D01*
X109431345Y-85269721D01*
X109548948Y-85112623D01*
X109560520Y-85099269D01*
X109699269Y-84960520D01*
X109712623Y-84948948D01*
X109869721Y-84831345D01*
X109884589Y-84821791D01*
X110056798Y-84727758D01*
X110072885Y-84720411D01*
X110256748Y-84651833D01*
X110273699Y-84646856D01*
X110465438Y-84605146D01*
X110482936Y-84602630D01*
X110683082Y-84588316D01*
X110691928Y-84588000D01*
X110753392Y-84588000D01*
X178121608Y-84588000D01*
X178183072Y-84588000D01*
X178191918Y-84588316D01*
G37*
%TD.AperFunction*%
%TD*%
M02*
