%TF.GenerationSoftware,KiCad,Pcbnew,8.0.0*%
%TF.CreationDate,2024-03-20T19:52:00+09:00*%
%TF.ProjectId,USB-to-RS485-Converter-Small,5553422d-746f-42d5-9253-3438352d436f,1.0*%
%TF.SameCoordinates,Original*%
%TF.FileFunction,Legend,Top*%
%TF.FilePolarity,Positive*%
%FSLAX46Y46*%
G04 Gerber Fmt 4.6, Leading zero omitted, Abs format (unit mm)*
G04 Created by KiCad (PCBNEW 8.0.0) date 2024-03-20 19:52:00*
%MOMM*%
%LPD*%
G01*
G04 APERTURE LIST*
G04 Aperture macros list*
%AMRoundRect*
0 Rectangle with rounded corners*
0 $1 Rounding radius*
0 $2 $3 $4 $5 $6 $7 $8 $9 X,Y pos of 4 corners*
0 Add a 4 corners polygon primitive as box body*
4,1,4,$2,$3,$4,$5,$6,$7,$8,$9,$2,$3,0*
0 Add four circle primitives for the rounded corners*
1,1,$1+$1,$2,$3*
1,1,$1+$1,$4,$5*
1,1,$1+$1,$6,$7*
1,1,$1+$1,$8,$9*
0 Add four rect primitives between the rounded corners*
20,1,$1+$1,$2,$3,$4,$5,0*
20,1,$1+$1,$4,$5,$6,$7,0*
20,1,$1+$1,$6,$7,$8,$9,0*
20,1,$1+$1,$8,$9,$2,$3,0*%
G04 Aperture macros list end*
%ADD10C,0.100000*%
%ADD11C,0.254000*%
%ADD12C,0.150000*%
%ADD13C,0.200000*%
%ADD14C,0.120000*%
%ADD15R,1.525000X0.650000*%
%ADD16R,2.150000X2.200000*%
%ADD17R,1.600000X1.600000*%
%ADD18C,1.600000*%
%ADD19C,4.000000*%
%ADD20RoundRect,0.237500X-0.237500X0.300000X-0.237500X-0.300000X0.237500X-0.300000X0.237500X0.300000X0*%
%ADD21RoundRect,0.237500X0.237500X-0.250000X0.237500X0.250000X-0.237500X0.250000X-0.237500X-0.250000X0*%
%ADD22RoundRect,0.237500X-0.237500X0.250000X-0.237500X-0.250000X0.237500X-0.250000X0.237500X0.250000X0*%
%ADD23RoundRect,0.237500X0.250000X0.237500X-0.250000X0.237500X-0.250000X-0.237500X0.250000X-0.237500X0*%
%ADD24RoundRect,0.237500X-0.250000X-0.237500X0.250000X-0.237500X0.250000X0.237500X-0.250000X0.237500X0*%
%ADD25R,1.700000X1.700000*%
%ADD26O,1.700000X1.700000*%
%ADD27RoundRect,0.237500X-0.287500X-0.237500X0.287500X-0.237500X0.287500X0.237500X-0.287500X0.237500X0*%
%ADD28R,1.750000X0.450000*%
G04 APERTURE END LIST*
D10*
X110303884Y-85262475D02*
X110303884Y-86071998D01*
X110303884Y-86071998D02*
X110351503Y-86167236D01*
X110351503Y-86167236D02*
X110399122Y-86214856D01*
X110399122Y-86214856D02*
X110494360Y-86262475D01*
X110494360Y-86262475D02*
X110684836Y-86262475D01*
X110684836Y-86262475D02*
X110780074Y-86214856D01*
X110780074Y-86214856D02*
X110827693Y-86167236D01*
X110827693Y-86167236D02*
X110875312Y-86071998D01*
X110875312Y-86071998D02*
X110875312Y-85262475D01*
X111303884Y-86214856D02*
X111446741Y-86262475D01*
X111446741Y-86262475D02*
X111684836Y-86262475D01*
X111684836Y-86262475D02*
X111780074Y-86214856D01*
X111780074Y-86214856D02*
X111827693Y-86167236D01*
X111827693Y-86167236D02*
X111875312Y-86071998D01*
X111875312Y-86071998D02*
X111875312Y-85976760D01*
X111875312Y-85976760D02*
X111827693Y-85881522D01*
X111827693Y-85881522D02*
X111780074Y-85833903D01*
X111780074Y-85833903D02*
X111684836Y-85786284D01*
X111684836Y-85786284D02*
X111494360Y-85738665D01*
X111494360Y-85738665D02*
X111399122Y-85691046D01*
X111399122Y-85691046D02*
X111351503Y-85643427D01*
X111351503Y-85643427D02*
X111303884Y-85548189D01*
X111303884Y-85548189D02*
X111303884Y-85452951D01*
X111303884Y-85452951D02*
X111351503Y-85357713D01*
X111351503Y-85357713D02*
X111399122Y-85310094D01*
X111399122Y-85310094D02*
X111494360Y-85262475D01*
X111494360Y-85262475D02*
X111732455Y-85262475D01*
X111732455Y-85262475D02*
X111875312Y-85310094D01*
X112637217Y-85738665D02*
X112780074Y-85786284D01*
X112780074Y-85786284D02*
X112827693Y-85833903D01*
X112827693Y-85833903D02*
X112875312Y-85929141D01*
X112875312Y-85929141D02*
X112875312Y-86071998D01*
X112875312Y-86071998D02*
X112827693Y-86167236D01*
X112827693Y-86167236D02*
X112780074Y-86214856D01*
X112780074Y-86214856D02*
X112684836Y-86262475D01*
X112684836Y-86262475D02*
X112303884Y-86262475D01*
X112303884Y-86262475D02*
X112303884Y-85262475D01*
X112303884Y-85262475D02*
X112637217Y-85262475D01*
X112637217Y-85262475D02*
X112732455Y-85310094D01*
X112732455Y-85310094D02*
X112780074Y-85357713D01*
X112780074Y-85357713D02*
X112827693Y-85452951D01*
X112827693Y-85452951D02*
X112827693Y-85548189D01*
X112827693Y-85548189D02*
X112780074Y-85643427D01*
X112780074Y-85643427D02*
X112732455Y-85691046D01*
X112732455Y-85691046D02*
X112637217Y-85738665D01*
X112637217Y-85738665D02*
X112303884Y-85738665D01*
X113922932Y-85595808D02*
X114303884Y-85595808D01*
X114065789Y-85262475D02*
X114065789Y-86119617D01*
X114065789Y-86119617D02*
X114113408Y-86214856D01*
X114113408Y-86214856D02*
X114208646Y-86262475D01*
X114208646Y-86262475D02*
X114303884Y-86262475D01*
X114780075Y-86262475D02*
X114684837Y-86214856D01*
X114684837Y-86214856D02*
X114637218Y-86167236D01*
X114637218Y-86167236D02*
X114589599Y-86071998D01*
X114589599Y-86071998D02*
X114589599Y-85786284D01*
X114589599Y-85786284D02*
X114637218Y-85691046D01*
X114637218Y-85691046D02*
X114684837Y-85643427D01*
X114684837Y-85643427D02*
X114780075Y-85595808D01*
X114780075Y-85595808D02*
X114922932Y-85595808D01*
X114922932Y-85595808D02*
X115018170Y-85643427D01*
X115018170Y-85643427D02*
X115065789Y-85691046D01*
X115065789Y-85691046D02*
X115113408Y-85786284D01*
X115113408Y-85786284D02*
X115113408Y-86071998D01*
X115113408Y-86071998D02*
X115065789Y-86167236D01*
X115065789Y-86167236D02*
X115018170Y-86214856D01*
X115018170Y-86214856D02*
X114922932Y-86262475D01*
X114922932Y-86262475D02*
X114780075Y-86262475D01*
X116875313Y-86262475D02*
X116541980Y-85786284D01*
X116303885Y-86262475D02*
X116303885Y-85262475D01*
X116303885Y-85262475D02*
X116684837Y-85262475D01*
X116684837Y-85262475D02*
X116780075Y-85310094D01*
X116780075Y-85310094D02*
X116827694Y-85357713D01*
X116827694Y-85357713D02*
X116875313Y-85452951D01*
X116875313Y-85452951D02*
X116875313Y-85595808D01*
X116875313Y-85595808D02*
X116827694Y-85691046D01*
X116827694Y-85691046D02*
X116780075Y-85738665D01*
X116780075Y-85738665D02*
X116684837Y-85786284D01*
X116684837Y-85786284D02*
X116303885Y-85786284D01*
X117256266Y-86214856D02*
X117399123Y-86262475D01*
X117399123Y-86262475D02*
X117637218Y-86262475D01*
X117637218Y-86262475D02*
X117732456Y-86214856D01*
X117732456Y-86214856D02*
X117780075Y-86167236D01*
X117780075Y-86167236D02*
X117827694Y-86071998D01*
X117827694Y-86071998D02*
X117827694Y-85976760D01*
X117827694Y-85976760D02*
X117780075Y-85881522D01*
X117780075Y-85881522D02*
X117732456Y-85833903D01*
X117732456Y-85833903D02*
X117637218Y-85786284D01*
X117637218Y-85786284D02*
X117446742Y-85738665D01*
X117446742Y-85738665D02*
X117351504Y-85691046D01*
X117351504Y-85691046D02*
X117303885Y-85643427D01*
X117303885Y-85643427D02*
X117256266Y-85548189D01*
X117256266Y-85548189D02*
X117256266Y-85452951D01*
X117256266Y-85452951D02*
X117303885Y-85357713D01*
X117303885Y-85357713D02*
X117351504Y-85310094D01*
X117351504Y-85310094D02*
X117446742Y-85262475D01*
X117446742Y-85262475D02*
X117684837Y-85262475D01*
X117684837Y-85262475D02*
X117827694Y-85310094D01*
X118684837Y-85595808D02*
X118684837Y-86262475D01*
X118446742Y-85214856D02*
X118208647Y-85929141D01*
X118208647Y-85929141D02*
X118827694Y-85929141D01*
X119351504Y-85691046D02*
X119256266Y-85643427D01*
X119256266Y-85643427D02*
X119208647Y-85595808D01*
X119208647Y-85595808D02*
X119161028Y-85500570D01*
X119161028Y-85500570D02*
X119161028Y-85452951D01*
X119161028Y-85452951D02*
X119208647Y-85357713D01*
X119208647Y-85357713D02*
X119256266Y-85310094D01*
X119256266Y-85310094D02*
X119351504Y-85262475D01*
X119351504Y-85262475D02*
X119541980Y-85262475D01*
X119541980Y-85262475D02*
X119637218Y-85310094D01*
X119637218Y-85310094D02*
X119684837Y-85357713D01*
X119684837Y-85357713D02*
X119732456Y-85452951D01*
X119732456Y-85452951D02*
X119732456Y-85500570D01*
X119732456Y-85500570D02*
X119684837Y-85595808D01*
X119684837Y-85595808D02*
X119637218Y-85643427D01*
X119637218Y-85643427D02*
X119541980Y-85691046D01*
X119541980Y-85691046D02*
X119351504Y-85691046D01*
X119351504Y-85691046D02*
X119256266Y-85738665D01*
X119256266Y-85738665D02*
X119208647Y-85786284D01*
X119208647Y-85786284D02*
X119161028Y-85881522D01*
X119161028Y-85881522D02*
X119161028Y-86071998D01*
X119161028Y-86071998D02*
X119208647Y-86167236D01*
X119208647Y-86167236D02*
X119256266Y-86214856D01*
X119256266Y-86214856D02*
X119351504Y-86262475D01*
X119351504Y-86262475D02*
X119541980Y-86262475D01*
X119541980Y-86262475D02*
X119637218Y-86214856D01*
X119637218Y-86214856D02*
X119684837Y-86167236D01*
X119684837Y-86167236D02*
X119732456Y-86071998D01*
X119732456Y-86071998D02*
X119732456Y-85881522D01*
X119732456Y-85881522D02*
X119684837Y-85786284D01*
X119684837Y-85786284D02*
X119637218Y-85738665D01*
X119637218Y-85738665D02*
X119541980Y-85691046D01*
X120637218Y-85262475D02*
X120161028Y-85262475D01*
X120161028Y-85262475D02*
X120113409Y-85738665D01*
X120113409Y-85738665D02*
X120161028Y-85691046D01*
X120161028Y-85691046D02*
X120256266Y-85643427D01*
X120256266Y-85643427D02*
X120494361Y-85643427D01*
X120494361Y-85643427D02*
X120589599Y-85691046D01*
X120589599Y-85691046D02*
X120637218Y-85738665D01*
X120637218Y-85738665D02*
X120684837Y-85833903D01*
X120684837Y-85833903D02*
X120684837Y-86071998D01*
X120684837Y-86071998D02*
X120637218Y-86167236D01*
X120637218Y-86167236D02*
X120589599Y-86214856D01*
X120589599Y-86214856D02*
X120494361Y-86262475D01*
X120494361Y-86262475D02*
X120256266Y-86262475D01*
X120256266Y-86262475D02*
X120161028Y-86214856D01*
X120161028Y-86214856D02*
X120113409Y-86167236D01*
X122303885Y-86214856D02*
X122208647Y-86262475D01*
X122208647Y-86262475D02*
X122018171Y-86262475D01*
X122018171Y-86262475D02*
X121922933Y-86214856D01*
X121922933Y-86214856D02*
X121875314Y-86167236D01*
X121875314Y-86167236D02*
X121827695Y-86071998D01*
X121827695Y-86071998D02*
X121827695Y-85786284D01*
X121827695Y-85786284D02*
X121875314Y-85691046D01*
X121875314Y-85691046D02*
X121922933Y-85643427D01*
X121922933Y-85643427D02*
X122018171Y-85595808D01*
X122018171Y-85595808D02*
X122208647Y-85595808D01*
X122208647Y-85595808D02*
X122303885Y-85643427D01*
X122875314Y-86262475D02*
X122780076Y-86214856D01*
X122780076Y-86214856D02*
X122732457Y-86167236D01*
X122732457Y-86167236D02*
X122684838Y-86071998D01*
X122684838Y-86071998D02*
X122684838Y-85786284D01*
X122684838Y-85786284D02*
X122732457Y-85691046D01*
X122732457Y-85691046D02*
X122780076Y-85643427D01*
X122780076Y-85643427D02*
X122875314Y-85595808D01*
X122875314Y-85595808D02*
X123018171Y-85595808D01*
X123018171Y-85595808D02*
X123113409Y-85643427D01*
X123113409Y-85643427D02*
X123161028Y-85691046D01*
X123161028Y-85691046D02*
X123208647Y-85786284D01*
X123208647Y-85786284D02*
X123208647Y-86071998D01*
X123208647Y-86071998D02*
X123161028Y-86167236D01*
X123161028Y-86167236D02*
X123113409Y-86214856D01*
X123113409Y-86214856D02*
X123018171Y-86262475D01*
X123018171Y-86262475D02*
X122875314Y-86262475D01*
X123637219Y-85595808D02*
X123637219Y-86262475D01*
X123637219Y-85691046D02*
X123684838Y-85643427D01*
X123684838Y-85643427D02*
X123780076Y-85595808D01*
X123780076Y-85595808D02*
X123922933Y-85595808D01*
X123922933Y-85595808D02*
X124018171Y-85643427D01*
X124018171Y-85643427D02*
X124065790Y-85738665D01*
X124065790Y-85738665D02*
X124065790Y-86262475D01*
X124446743Y-85595808D02*
X124684838Y-86262475D01*
X124684838Y-86262475D02*
X124922933Y-85595808D01*
X125684838Y-86214856D02*
X125589600Y-86262475D01*
X125589600Y-86262475D02*
X125399124Y-86262475D01*
X125399124Y-86262475D02*
X125303886Y-86214856D01*
X125303886Y-86214856D02*
X125256267Y-86119617D01*
X125256267Y-86119617D02*
X125256267Y-85738665D01*
X125256267Y-85738665D02*
X125303886Y-85643427D01*
X125303886Y-85643427D02*
X125399124Y-85595808D01*
X125399124Y-85595808D02*
X125589600Y-85595808D01*
X125589600Y-85595808D02*
X125684838Y-85643427D01*
X125684838Y-85643427D02*
X125732457Y-85738665D01*
X125732457Y-85738665D02*
X125732457Y-85833903D01*
X125732457Y-85833903D02*
X125256267Y-85929141D01*
X126161029Y-86262475D02*
X126161029Y-85595808D01*
X126161029Y-85786284D02*
X126208648Y-85691046D01*
X126208648Y-85691046D02*
X126256267Y-85643427D01*
X126256267Y-85643427D02*
X126351505Y-85595808D01*
X126351505Y-85595808D02*
X126446743Y-85595808D01*
X126637220Y-85595808D02*
X127018172Y-85595808D01*
X126780077Y-85262475D02*
X126780077Y-86119617D01*
X126780077Y-86119617D02*
X126827696Y-86214856D01*
X126827696Y-86214856D02*
X126922934Y-86262475D01*
X126922934Y-86262475D02*
X127018172Y-86262475D01*
X127732458Y-86214856D02*
X127637220Y-86262475D01*
X127637220Y-86262475D02*
X127446744Y-86262475D01*
X127446744Y-86262475D02*
X127351506Y-86214856D01*
X127351506Y-86214856D02*
X127303887Y-86119617D01*
X127303887Y-86119617D02*
X127303887Y-85738665D01*
X127303887Y-85738665D02*
X127351506Y-85643427D01*
X127351506Y-85643427D02*
X127446744Y-85595808D01*
X127446744Y-85595808D02*
X127637220Y-85595808D01*
X127637220Y-85595808D02*
X127732458Y-85643427D01*
X127732458Y-85643427D02*
X127780077Y-85738665D01*
X127780077Y-85738665D02*
X127780077Y-85833903D01*
X127780077Y-85833903D02*
X127303887Y-85929141D01*
X128208649Y-86262475D02*
X128208649Y-85595808D01*
X128208649Y-85786284D02*
X128256268Y-85691046D01*
X128256268Y-85691046D02*
X128303887Y-85643427D01*
X128303887Y-85643427D02*
X128399125Y-85595808D01*
X128399125Y-85595808D02*
X128494363Y-85595808D01*
X110303884Y-87872419D02*
X110303884Y-86872419D01*
X110303884Y-86872419D02*
X110637217Y-87586704D01*
X110637217Y-87586704D02*
X110970550Y-86872419D01*
X110970550Y-86872419D02*
X110970550Y-87872419D01*
X111875312Y-87872419D02*
X111875312Y-87348609D01*
X111875312Y-87348609D02*
X111827693Y-87253371D01*
X111827693Y-87253371D02*
X111732455Y-87205752D01*
X111732455Y-87205752D02*
X111541979Y-87205752D01*
X111541979Y-87205752D02*
X111446741Y-87253371D01*
X111875312Y-87824800D02*
X111780074Y-87872419D01*
X111780074Y-87872419D02*
X111541979Y-87872419D01*
X111541979Y-87872419D02*
X111446741Y-87824800D01*
X111446741Y-87824800D02*
X111399122Y-87729561D01*
X111399122Y-87729561D02*
X111399122Y-87634323D01*
X111399122Y-87634323D02*
X111446741Y-87539085D01*
X111446741Y-87539085D02*
X111541979Y-87491466D01*
X111541979Y-87491466D02*
X111780074Y-87491466D01*
X111780074Y-87491466D02*
X111875312Y-87443847D01*
X112780074Y-87872419D02*
X112780074Y-86872419D01*
X112780074Y-87824800D02*
X112684836Y-87872419D01*
X112684836Y-87872419D02*
X112494360Y-87872419D01*
X112494360Y-87872419D02*
X112399122Y-87824800D01*
X112399122Y-87824800D02*
X112351503Y-87777180D01*
X112351503Y-87777180D02*
X112303884Y-87681942D01*
X112303884Y-87681942D02*
X112303884Y-87396228D01*
X112303884Y-87396228D02*
X112351503Y-87300990D01*
X112351503Y-87300990D02*
X112399122Y-87253371D01*
X112399122Y-87253371D02*
X112494360Y-87205752D01*
X112494360Y-87205752D02*
X112684836Y-87205752D01*
X112684836Y-87205752D02*
X112780074Y-87253371D01*
X113637217Y-87824800D02*
X113541979Y-87872419D01*
X113541979Y-87872419D02*
X113351503Y-87872419D01*
X113351503Y-87872419D02*
X113256265Y-87824800D01*
X113256265Y-87824800D02*
X113208646Y-87729561D01*
X113208646Y-87729561D02*
X113208646Y-87348609D01*
X113208646Y-87348609D02*
X113256265Y-87253371D01*
X113256265Y-87253371D02*
X113351503Y-87205752D01*
X113351503Y-87205752D02*
X113541979Y-87205752D01*
X113541979Y-87205752D02*
X113637217Y-87253371D01*
X113637217Y-87253371D02*
X113684836Y-87348609D01*
X113684836Y-87348609D02*
X113684836Y-87443847D01*
X113684836Y-87443847D02*
X113208646Y-87539085D01*
X114875313Y-87872419D02*
X114875313Y-86872419D01*
X114875313Y-87253371D02*
X114970551Y-87205752D01*
X114970551Y-87205752D02*
X115161027Y-87205752D01*
X115161027Y-87205752D02*
X115256265Y-87253371D01*
X115256265Y-87253371D02*
X115303884Y-87300990D01*
X115303884Y-87300990D02*
X115351503Y-87396228D01*
X115351503Y-87396228D02*
X115351503Y-87681942D01*
X115351503Y-87681942D02*
X115303884Y-87777180D01*
X115303884Y-87777180D02*
X115256265Y-87824800D01*
X115256265Y-87824800D02*
X115161027Y-87872419D01*
X115161027Y-87872419D02*
X114970551Y-87872419D01*
X114970551Y-87872419D02*
X114875313Y-87824800D01*
X115684837Y-87205752D02*
X115922932Y-87872419D01*
X116161027Y-87205752D02*
X115922932Y-87872419D01*
X115922932Y-87872419D02*
X115827694Y-88110514D01*
X115827694Y-88110514D02*
X115780075Y-88158133D01*
X115780075Y-88158133D02*
X115684837Y-88205752D01*
X117589599Y-86872419D02*
X117589599Y-87586704D01*
X117589599Y-87586704D02*
X117541980Y-87729561D01*
X117541980Y-87729561D02*
X117446742Y-87824800D01*
X117446742Y-87824800D02*
X117303885Y-87872419D01*
X117303885Y-87872419D02*
X117208647Y-87872419D01*
X118208647Y-87872419D02*
X118113409Y-87824800D01*
X118113409Y-87824800D02*
X118065790Y-87777180D01*
X118065790Y-87777180D02*
X118018171Y-87681942D01*
X118018171Y-87681942D02*
X118018171Y-87396228D01*
X118018171Y-87396228D02*
X118065790Y-87300990D01*
X118065790Y-87300990D02*
X118113409Y-87253371D01*
X118113409Y-87253371D02*
X118208647Y-87205752D01*
X118208647Y-87205752D02*
X118351504Y-87205752D01*
X118351504Y-87205752D02*
X118446742Y-87253371D01*
X118446742Y-87253371D02*
X118494361Y-87300990D01*
X118494361Y-87300990D02*
X118541980Y-87396228D01*
X118541980Y-87396228D02*
X118541980Y-87681942D01*
X118541980Y-87681942D02*
X118494361Y-87777180D01*
X118494361Y-87777180D02*
X118446742Y-87824800D01*
X118446742Y-87824800D02*
X118351504Y-87872419D01*
X118351504Y-87872419D02*
X118208647Y-87872419D01*
X118970552Y-87205752D02*
X118970552Y-87872419D01*
X118970552Y-87300990D02*
X119018171Y-87253371D01*
X119018171Y-87253371D02*
X119113409Y-87205752D01*
X119113409Y-87205752D02*
X119256266Y-87205752D01*
X119256266Y-87205752D02*
X119351504Y-87253371D01*
X119351504Y-87253371D02*
X119399123Y-87348609D01*
X119399123Y-87348609D02*
X119399123Y-87872419D01*
X120303885Y-87205752D02*
X120303885Y-88015276D01*
X120303885Y-88015276D02*
X120256266Y-88110514D01*
X120256266Y-88110514D02*
X120208647Y-88158133D01*
X120208647Y-88158133D02*
X120113409Y-88205752D01*
X120113409Y-88205752D02*
X119970552Y-88205752D01*
X119970552Y-88205752D02*
X119875314Y-88158133D01*
X120303885Y-87824800D02*
X120208647Y-87872419D01*
X120208647Y-87872419D02*
X120018171Y-87872419D01*
X120018171Y-87872419D02*
X119922933Y-87824800D01*
X119922933Y-87824800D02*
X119875314Y-87777180D01*
X119875314Y-87777180D02*
X119827695Y-87681942D01*
X119827695Y-87681942D02*
X119827695Y-87396228D01*
X119827695Y-87396228D02*
X119875314Y-87300990D01*
X119875314Y-87300990D02*
X119922933Y-87253371D01*
X119922933Y-87253371D02*
X120018171Y-87205752D01*
X120018171Y-87205752D02*
X120208647Y-87205752D01*
X120208647Y-87205752D02*
X120303885Y-87253371D01*
X120780076Y-87872419D02*
X120780076Y-86872419D01*
X121208647Y-87872419D02*
X121208647Y-87348609D01*
X121208647Y-87348609D02*
X121161028Y-87253371D01*
X121161028Y-87253371D02*
X121065790Y-87205752D01*
X121065790Y-87205752D02*
X120922933Y-87205752D01*
X120922933Y-87205752D02*
X120827695Y-87253371D01*
X120827695Y-87253371D02*
X120780076Y-87300990D01*
X122065790Y-87824800D02*
X121970552Y-87872419D01*
X121970552Y-87872419D02*
X121780076Y-87872419D01*
X121780076Y-87872419D02*
X121684838Y-87824800D01*
X121684838Y-87824800D02*
X121637219Y-87729561D01*
X121637219Y-87729561D02*
X121637219Y-87348609D01*
X121637219Y-87348609D02*
X121684838Y-87253371D01*
X121684838Y-87253371D02*
X121780076Y-87205752D01*
X121780076Y-87205752D02*
X121970552Y-87205752D01*
X121970552Y-87205752D02*
X122065790Y-87253371D01*
X122065790Y-87253371D02*
X122113409Y-87348609D01*
X122113409Y-87348609D02*
X122113409Y-87443847D01*
X122113409Y-87443847D02*
X121637219Y-87539085D01*
X122922933Y-87824800D02*
X122827695Y-87872419D01*
X122827695Y-87872419D02*
X122637219Y-87872419D01*
X122637219Y-87872419D02*
X122541981Y-87824800D01*
X122541981Y-87824800D02*
X122494362Y-87729561D01*
X122494362Y-87729561D02*
X122494362Y-87348609D01*
X122494362Y-87348609D02*
X122541981Y-87253371D01*
X122541981Y-87253371D02*
X122637219Y-87205752D01*
X122637219Y-87205752D02*
X122827695Y-87205752D01*
X122827695Y-87205752D02*
X122922933Y-87253371D01*
X122922933Y-87253371D02*
X122970552Y-87348609D01*
X122970552Y-87348609D02*
X122970552Y-87443847D01*
X122970552Y-87443847D02*
X122494362Y-87539085D01*
X124113410Y-87824800D02*
X124256267Y-87872419D01*
X124256267Y-87872419D02*
X124494362Y-87872419D01*
X124494362Y-87872419D02*
X124589600Y-87824800D01*
X124589600Y-87824800D02*
X124637219Y-87777180D01*
X124637219Y-87777180D02*
X124684838Y-87681942D01*
X124684838Y-87681942D02*
X124684838Y-87586704D01*
X124684838Y-87586704D02*
X124637219Y-87491466D01*
X124637219Y-87491466D02*
X124589600Y-87443847D01*
X124589600Y-87443847D02*
X124494362Y-87396228D01*
X124494362Y-87396228D02*
X124303886Y-87348609D01*
X124303886Y-87348609D02*
X124208648Y-87300990D01*
X124208648Y-87300990D02*
X124161029Y-87253371D01*
X124161029Y-87253371D02*
X124113410Y-87158133D01*
X124113410Y-87158133D02*
X124113410Y-87062895D01*
X124113410Y-87062895D02*
X124161029Y-86967657D01*
X124161029Y-86967657D02*
X124208648Y-86920038D01*
X124208648Y-86920038D02*
X124303886Y-86872419D01*
X124303886Y-86872419D02*
X124541981Y-86872419D01*
X124541981Y-86872419D02*
X124684838Y-86920038D01*
X125256267Y-87872419D02*
X125161029Y-87824800D01*
X125161029Y-87824800D02*
X125113410Y-87777180D01*
X125113410Y-87777180D02*
X125065791Y-87681942D01*
X125065791Y-87681942D02*
X125065791Y-87396228D01*
X125065791Y-87396228D02*
X125113410Y-87300990D01*
X125113410Y-87300990D02*
X125161029Y-87253371D01*
X125161029Y-87253371D02*
X125256267Y-87205752D01*
X125256267Y-87205752D02*
X125399124Y-87205752D01*
X125399124Y-87205752D02*
X125494362Y-87253371D01*
X125494362Y-87253371D02*
X125541981Y-87300990D01*
X125541981Y-87300990D02*
X125589600Y-87396228D01*
X125589600Y-87396228D02*
X125589600Y-87681942D01*
X125589600Y-87681942D02*
X125541981Y-87777180D01*
X125541981Y-87777180D02*
X125494362Y-87824800D01*
X125494362Y-87824800D02*
X125399124Y-87872419D01*
X125399124Y-87872419D02*
X125256267Y-87872419D01*
X126018172Y-87205752D02*
X126018172Y-87872419D01*
X126018172Y-87300990D02*
X126065791Y-87253371D01*
X126065791Y-87253371D02*
X126161029Y-87205752D01*
X126161029Y-87205752D02*
X126303886Y-87205752D01*
X126303886Y-87205752D02*
X126399124Y-87253371D01*
X126399124Y-87253371D02*
X126446743Y-87348609D01*
X126446743Y-87348609D02*
X126446743Y-87872419D01*
D11*
X148947737Y-101661818D02*
X148947737Y-100391818D01*
X150278214Y-101540865D02*
X150217738Y-101601342D01*
X150217738Y-101601342D02*
X150036309Y-101661818D01*
X150036309Y-101661818D02*
X149915357Y-101661818D01*
X149915357Y-101661818D02*
X149733928Y-101601342D01*
X149733928Y-101601342D02*
X149612976Y-101480389D01*
X149612976Y-101480389D02*
X149552499Y-101359437D01*
X149552499Y-101359437D02*
X149492023Y-101117532D01*
X149492023Y-101117532D02*
X149492023Y-100936103D01*
X149492023Y-100936103D02*
X149552499Y-100694199D01*
X149552499Y-100694199D02*
X149612976Y-100573246D01*
X149612976Y-100573246D02*
X149733928Y-100452294D01*
X149733928Y-100452294D02*
X149915357Y-100391818D01*
X149915357Y-100391818D02*
X150036309Y-100391818D01*
X150036309Y-100391818D02*
X150217738Y-100452294D01*
X150217738Y-100452294D02*
X150278214Y-100512770D01*
X151487738Y-101661818D02*
X150762023Y-101661818D01*
X151124880Y-101661818D02*
X151124880Y-100391818D01*
X151124880Y-100391818D02*
X151003928Y-100573246D01*
X151003928Y-100573246D02*
X150882976Y-100694199D01*
X150882976Y-100694199D02*
X150762023Y-100754675D01*
X163074318Y-106437381D02*
X161804318Y-106437381D01*
X161804318Y-106437381D02*
X161804318Y-106135000D01*
X161804318Y-106135000D02*
X161864794Y-105953571D01*
X161864794Y-105953571D02*
X161985746Y-105832619D01*
X161985746Y-105832619D02*
X162106699Y-105772142D01*
X162106699Y-105772142D02*
X162348603Y-105711666D01*
X162348603Y-105711666D02*
X162530032Y-105711666D01*
X162530032Y-105711666D02*
X162771937Y-105772142D01*
X162771937Y-105772142D02*
X162892889Y-105832619D01*
X162892889Y-105832619D02*
X163013842Y-105953571D01*
X163013842Y-105953571D02*
X163074318Y-106135000D01*
X163074318Y-106135000D02*
X163074318Y-106437381D01*
X161925270Y-105227857D02*
X161864794Y-105167381D01*
X161864794Y-105167381D02*
X161804318Y-105046428D01*
X161804318Y-105046428D02*
X161804318Y-104744047D01*
X161804318Y-104744047D02*
X161864794Y-104623095D01*
X161864794Y-104623095D02*
X161925270Y-104562619D01*
X161925270Y-104562619D02*
X162046222Y-104502142D01*
X162046222Y-104502142D02*
X162167175Y-104502142D01*
X162167175Y-104502142D02*
X162348603Y-104562619D01*
X162348603Y-104562619D02*
X163074318Y-105288333D01*
X163074318Y-105288333D02*
X163074318Y-104502142D01*
X158574318Y-106437381D02*
X157304318Y-106437381D01*
X157304318Y-106437381D02*
X157304318Y-106135000D01*
X157304318Y-106135000D02*
X157364794Y-105953571D01*
X157364794Y-105953571D02*
X157485746Y-105832619D01*
X157485746Y-105832619D02*
X157606699Y-105772142D01*
X157606699Y-105772142D02*
X157848603Y-105711666D01*
X157848603Y-105711666D02*
X158030032Y-105711666D01*
X158030032Y-105711666D02*
X158271937Y-105772142D01*
X158271937Y-105772142D02*
X158392889Y-105832619D01*
X158392889Y-105832619D02*
X158513842Y-105953571D01*
X158513842Y-105953571D02*
X158574318Y-106135000D01*
X158574318Y-106135000D02*
X158574318Y-106437381D01*
X158574318Y-104502142D02*
X158574318Y-105227857D01*
X158574318Y-104865000D02*
X157304318Y-104865000D01*
X157304318Y-104865000D02*
X157485746Y-104985952D01*
X157485746Y-104985952D02*
X157606699Y-105106904D01*
X157606699Y-105106904D02*
X157667175Y-105227857D01*
D12*
X116354166Y-109192319D02*
X116354166Y-109906604D01*
X116354166Y-109906604D02*
X116306547Y-110049461D01*
X116306547Y-110049461D02*
X116211309Y-110144700D01*
X116211309Y-110144700D02*
X116068452Y-110192319D01*
X116068452Y-110192319D02*
X115973214Y-110192319D01*
X116782738Y-109287557D02*
X116830357Y-109239938D01*
X116830357Y-109239938D02*
X116925595Y-109192319D01*
X116925595Y-109192319D02*
X117163690Y-109192319D01*
X117163690Y-109192319D02*
X117258928Y-109239938D01*
X117258928Y-109239938D02*
X117306547Y-109287557D01*
X117306547Y-109287557D02*
X117354166Y-109382795D01*
X117354166Y-109382795D02*
X117354166Y-109478033D01*
X117354166Y-109478033D02*
X117306547Y-109620890D01*
X117306547Y-109620890D02*
X116735119Y-110192319D01*
X116735119Y-110192319D02*
X117354166Y-110192319D01*
X134477080Y-110254166D02*
X134524700Y-110301785D01*
X134524700Y-110301785D02*
X134572319Y-110444642D01*
X134572319Y-110444642D02*
X134572319Y-110539880D01*
X134572319Y-110539880D02*
X134524700Y-110682737D01*
X134524700Y-110682737D02*
X134429461Y-110777975D01*
X134429461Y-110777975D02*
X134334223Y-110825594D01*
X134334223Y-110825594D02*
X134143747Y-110873213D01*
X134143747Y-110873213D02*
X134000890Y-110873213D01*
X134000890Y-110873213D02*
X133810414Y-110825594D01*
X133810414Y-110825594D02*
X133715176Y-110777975D01*
X133715176Y-110777975D02*
X133619938Y-110682737D01*
X133619938Y-110682737D02*
X133572319Y-110539880D01*
X133572319Y-110539880D02*
X133572319Y-110444642D01*
X133572319Y-110444642D02*
X133619938Y-110301785D01*
X133619938Y-110301785D02*
X133667557Y-110254166D01*
X133572319Y-109920832D02*
X133572319Y-109301785D01*
X133572319Y-109301785D02*
X133953271Y-109635118D01*
X133953271Y-109635118D02*
X133953271Y-109492261D01*
X133953271Y-109492261D02*
X134000890Y-109397023D01*
X134000890Y-109397023D02*
X134048509Y-109349404D01*
X134048509Y-109349404D02*
X134143747Y-109301785D01*
X134143747Y-109301785D02*
X134381842Y-109301785D01*
X134381842Y-109301785D02*
X134477080Y-109349404D01*
X134477080Y-109349404D02*
X134524700Y-109397023D01*
X134524700Y-109397023D02*
X134572319Y-109492261D01*
X134572319Y-109492261D02*
X134572319Y-109777975D01*
X134572319Y-109777975D02*
X134524700Y-109873213D01*
X134524700Y-109873213D02*
X134477080Y-109920832D01*
X145712319Y-95254166D02*
X145236128Y-95587499D01*
X145712319Y-95825594D02*
X144712319Y-95825594D01*
X144712319Y-95825594D02*
X144712319Y-95444642D01*
X144712319Y-95444642D02*
X144759938Y-95349404D01*
X144759938Y-95349404D02*
X144807557Y-95301785D01*
X144807557Y-95301785D02*
X144902795Y-95254166D01*
X144902795Y-95254166D02*
X145045652Y-95254166D01*
X145045652Y-95254166D02*
X145140890Y-95301785D01*
X145140890Y-95301785D02*
X145188509Y-95349404D01*
X145188509Y-95349404D02*
X145236128Y-95444642D01*
X145236128Y-95444642D02*
X145236128Y-95825594D01*
X145045652Y-94397023D02*
X145712319Y-94397023D01*
X144664700Y-94635118D02*
X145378985Y-94873213D01*
X145378985Y-94873213D02*
X145378985Y-94254166D01*
X145572319Y-101254166D02*
X145096128Y-101587499D01*
X145572319Y-101825594D02*
X144572319Y-101825594D01*
X144572319Y-101825594D02*
X144572319Y-101444642D01*
X144572319Y-101444642D02*
X144619938Y-101349404D01*
X144619938Y-101349404D02*
X144667557Y-101301785D01*
X144667557Y-101301785D02*
X144762795Y-101254166D01*
X144762795Y-101254166D02*
X144905652Y-101254166D01*
X144905652Y-101254166D02*
X145000890Y-101301785D01*
X145000890Y-101301785D02*
X145048509Y-101349404D01*
X145048509Y-101349404D02*
X145096128Y-101444642D01*
X145096128Y-101444642D02*
X145096128Y-101825594D01*
X144572319Y-100349404D02*
X144572319Y-100825594D01*
X144572319Y-100825594D02*
X145048509Y-100873213D01*
X145048509Y-100873213D02*
X145000890Y-100825594D01*
X145000890Y-100825594D02*
X144953271Y-100730356D01*
X144953271Y-100730356D02*
X144953271Y-100492261D01*
X144953271Y-100492261D02*
X145000890Y-100397023D01*
X145000890Y-100397023D02*
X145048509Y-100349404D01*
X145048509Y-100349404D02*
X145143747Y-100301785D01*
X145143747Y-100301785D02*
X145381842Y-100301785D01*
X145381842Y-100301785D02*
X145477080Y-100349404D01*
X145477080Y-100349404D02*
X145524700Y-100397023D01*
X145524700Y-100397023D02*
X145572319Y-100492261D01*
X145572319Y-100492261D02*
X145572319Y-100730356D01*
X145572319Y-100730356D02*
X145524700Y-100825594D01*
X145524700Y-100825594D02*
X145477080Y-100873213D01*
X128977080Y-110254166D02*
X129024700Y-110301785D01*
X129024700Y-110301785D02*
X129072319Y-110444642D01*
X129072319Y-110444642D02*
X129072319Y-110539880D01*
X129072319Y-110539880D02*
X129024700Y-110682737D01*
X129024700Y-110682737D02*
X128929461Y-110777975D01*
X128929461Y-110777975D02*
X128834223Y-110825594D01*
X128834223Y-110825594D02*
X128643747Y-110873213D01*
X128643747Y-110873213D02*
X128500890Y-110873213D01*
X128500890Y-110873213D02*
X128310414Y-110825594D01*
X128310414Y-110825594D02*
X128215176Y-110777975D01*
X128215176Y-110777975D02*
X128119938Y-110682737D01*
X128119938Y-110682737D02*
X128072319Y-110539880D01*
X128072319Y-110539880D02*
X128072319Y-110444642D01*
X128072319Y-110444642D02*
X128119938Y-110301785D01*
X128119938Y-110301785D02*
X128167557Y-110254166D01*
X129072319Y-109301785D02*
X129072319Y-109873213D01*
X129072319Y-109587499D02*
X128072319Y-109587499D01*
X128072319Y-109587499D02*
X128215176Y-109682737D01*
X128215176Y-109682737D02*
X128310414Y-109777975D01*
X128310414Y-109777975D02*
X128358033Y-109873213D01*
X156020833Y-100972319D02*
X155687500Y-100496128D01*
X155449405Y-100972319D02*
X155449405Y-99972319D01*
X155449405Y-99972319D02*
X155830357Y-99972319D01*
X155830357Y-99972319D02*
X155925595Y-100019938D01*
X155925595Y-100019938D02*
X155973214Y-100067557D01*
X155973214Y-100067557D02*
X156020833Y-100162795D01*
X156020833Y-100162795D02*
X156020833Y-100305652D01*
X156020833Y-100305652D02*
X155973214Y-100400890D01*
X155973214Y-100400890D02*
X155925595Y-100448509D01*
X155925595Y-100448509D02*
X155830357Y-100496128D01*
X155830357Y-100496128D02*
X155449405Y-100496128D01*
X156401786Y-100067557D02*
X156449405Y-100019938D01*
X156449405Y-100019938D02*
X156544643Y-99972319D01*
X156544643Y-99972319D02*
X156782738Y-99972319D01*
X156782738Y-99972319D02*
X156877976Y-100019938D01*
X156877976Y-100019938D02*
X156925595Y-100067557D01*
X156925595Y-100067557D02*
X156973214Y-100162795D01*
X156973214Y-100162795D02*
X156973214Y-100258033D01*
X156973214Y-100258033D02*
X156925595Y-100400890D01*
X156925595Y-100400890D02*
X156354167Y-100972319D01*
X156354167Y-100972319D02*
X156973214Y-100972319D01*
X148020833Y-106112319D02*
X147687500Y-105636128D01*
X147449405Y-106112319D02*
X147449405Y-105112319D01*
X147449405Y-105112319D02*
X147830357Y-105112319D01*
X147830357Y-105112319D02*
X147925595Y-105159938D01*
X147925595Y-105159938D02*
X147973214Y-105207557D01*
X147973214Y-105207557D02*
X148020833Y-105302795D01*
X148020833Y-105302795D02*
X148020833Y-105445652D01*
X148020833Y-105445652D02*
X147973214Y-105540890D01*
X147973214Y-105540890D02*
X147925595Y-105588509D01*
X147925595Y-105588509D02*
X147830357Y-105636128D01*
X147830357Y-105636128D02*
X147449405Y-105636128D01*
X148354167Y-105112319D02*
X148973214Y-105112319D01*
X148973214Y-105112319D02*
X148639881Y-105493271D01*
X148639881Y-105493271D02*
X148782738Y-105493271D01*
X148782738Y-105493271D02*
X148877976Y-105540890D01*
X148877976Y-105540890D02*
X148925595Y-105588509D01*
X148925595Y-105588509D02*
X148973214Y-105683747D01*
X148973214Y-105683747D02*
X148973214Y-105921842D01*
X148973214Y-105921842D02*
X148925595Y-106017080D01*
X148925595Y-106017080D02*
X148877976Y-106064700D01*
X148877976Y-106064700D02*
X148782738Y-106112319D01*
X148782738Y-106112319D02*
X148497024Y-106112319D01*
X148497024Y-106112319D02*
X148401786Y-106064700D01*
X148401786Y-106064700D02*
X148354167Y-106017080D01*
X142020833Y-91472319D02*
X141687500Y-90996128D01*
X141449405Y-91472319D02*
X141449405Y-90472319D01*
X141449405Y-90472319D02*
X141830357Y-90472319D01*
X141830357Y-90472319D02*
X141925595Y-90519938D01*
X141925595Y-90519938D02*
X141973214Y-90567557D01*
X141973214Y-90567557D02*
X142020833Y-90662795D01*
X142020833Y-90662795D02*
X142020833Y-90805652D01*
X142020833Y-90805652D02*
X141973214Y-90900890D01*
X141973214Y-90900890D02*
X141925595Y-90948509D01*
X141925595Y-90948509D02*
X141830357Y-90996128D01*
X141830357Y-90996128D02*
X141449405Y-90996128D01*
X142354167Y-90472319D02*
X143020833Y-90472319D01*
X143020833Y-90472319D02*
X142592262Y-91472319D01*
X159354166Y-85937319D02*
X159354166Y-86651604D01*
X159354166Y-86651604D02*
X159306547Y-86794461D01*
X159306547Y-86794461D02*
X159211309Y-86889700D01*
X159211309Y-86889700D02*
X159068452Y-86937319D01*
X159068452Y-86937319D02*
X158973214Y-86937319D01*
X160354166Y-86937319D02*
X159782738Y-86937319D01*
X160068452Y-86937319D02*
X160068452Y-85937319D01*
X160068452Y-85937319D02*
X159973214Y-86080176D01*
X159973214Y-86080176D02*
X159877976Y-86175414D01*
X159877976Y-86175414D02*
X159782738Y-86223033D01*
X160299819Y-95754166D02*
X159823628Y-96087499D01*
X160299819Y-96325594D02*
X159299819Y-96325594D01*
X159299819Y-96325594D02*
X159299819Y-95944642D01*
X159299819Y-95944642D02*
X159347438Y-95849404D01*
X159347438Y-95849404D02*
X159395057Y-95801785D01*
X159395057Y-95801785D02*
X159490295Y-95754166D01*
X159490295Y-95754166D02*
X159633152Y-95754166D01*
X159633152Y-95754166D02*
X159728390Y-95801785D01*
X159728390Y-95801785D02*
X159776009Y-95849404D01*
X159776009Y-95849404D02*
X159823628Y-95944642D01*
X159823628Y-95944642D02*
X159823628Y-96325594D01*
X159299819Y-94897023D02*
X159299819Y-95087499D01*
X159299819Y-95087499D02*
X159347438Y-95182737D01*
X159347438Y-95182737D02*
X159395057Y-95230356D01*
X159395057Y-95230356D02*
X159537914Y-95325594D01*
X159537914Y-95325594D02*
X159728390Y-95373213D01*
X159728390Y-95373213D02*
X160109342Y-95373213D01*
X160109342Y-95373213D02*
X160204580Y-95325594D01*
X160204580Y-95325594D02*
X160252200Y-95277975D01*
X160252200Y-95277975D02*
X160299819Y-95182737D01*
X160299819Y-95182737D02*
X160299819Y-94992261D01*
X160299819Y-94992261D02*
X160252200Y-94897023D01*
X160252200Y-94897023D02*
X160204580Y-94849404D01*
X160204580Y-94849404D02*
X160109342Y-94801785D01*
X160109342Y-94801785D02*
X159871247Y-94801785D01*
X159871247Y-94801785D02*
X159776009Y-94849404D01*
X159776009Y-94849404D02*
X159728390Y-94897023D01*
X159728390Y-94897023D02*
X159680771Y-94992261D01*
X159680771Y-94992261D02*
X159680771Y-95182737D01*
X159680771Y-95182737D02*
X159728390Y-95277975D01*
X159728390Y-95277975D02*
X159776009Y-95325594D01*
X159776009Y-95325594D02*
X159871247Y-95373213D01*
X136574405Y-88612319D02*
X136574405Y-87612319D01*
X136574405Y-87612319D02*
X136812500Y-87612319D01*
X136812500Y-87612319D02*
X136955357Y-87659938D01*
X136955357Y-87659938D02*
X137050595Y-87755176D01*
X137050595Y-87755176D02*
X137098214Y-87850414D01*
X137098214Y-87850414D02*
X137145833Y-88040890D01*
X137145833Y-88040890D02*
X137145833Y-88183747D01*
X137145833Y-88183747D02*
X137098214Y-88374223D01*
X137098214Y-88374223D02*
X137050595Y-88469461D01*
X137050595Y-88469461D02*
X136955357Y-88564700D01*
X136955357Y-88564700D02*
X136812500Y-88612319D01*
X136812500Y-88612319D02*
X136574405Y-88612319D01*
X138002976Y-87945652D02*
X138002976Y-88612319D01*
X137764881Y-87564700D02*
X137526786Y-88278985D01*
X137526786Y-88278985D02*
X138145833Y-88278985D01*
X156020833Y-96112319D02*
X155687500Y-95636128D01*
X155449405Y-96112319D02*
X155449405Y-95112319D01*
X155449405Y-95112319D02*
X155830357Y-95112319D01*
X155830357Y-95112319D02*
X155925595Y-95159938D01*
X155925595Y-95159938D02*
X155973214Y-95207557D01*
X155973214Y-95207557D02*
X156020833Y-95302795D01*
X156020833Y-95302795D02*
X156020833Y-95445652D01*
X156020833Y-95445652D02*
X155973214Y-95540890D01*
X155973214Y-95540890D02*
X155925595Y-95588509D01*
X155925595Y-95588509D02*
X155830357Y-95636128D01*
X155830357Y-95636128D02*
X155449405Y-95636128D01*
X156973214Y-96112319D02*
X156401786Y-96112319D01*
X156687500Y-96112319D02*
X156687500Y-95112319D01*
X156687500Y-95112319D02*
X156592262Y-95255176D01*
X156592262Y-95255176D02*
X156497024Y-95350414D01*
X156497024Y-95350414D02*
X156401786Y-95398033D01*
X137477080Y-110254166D02*
X137524700Y-110301785D01*
X137524700Y-110301785D02*
X137572319Y-110444642D01*
X137572319Y-110444642D02*
X137572319Y-110539880D01*
X137572319Y-110539880D02*
X137524700Y-110682737D01*
X137524700Y-110682737D02*
X137429461Y-110777975D01*
X137429461Y-110777975D02*
X137334223Y-110825594D01*
X137334223Y-110825594D02*
X137143747Y-110873213D01*
X137143747Y-110873213D02*
X137000890Y-110873213D01*
X137000890Y-110873213D02*
X136810414Y-110825594D01*
X136810414Y-110825594D02*
X136715176Y-110777975D01*
X136715176Y-110777975D02*
X136619938Y-110682737D01*
X136619938Y-110682737D02*
X136572319Y-110539880D01*
X136572319Y-110539880D02*
X136572319Y-110444642D01*
X136572319Y-110444642D02*
X136619938Y-110301785D01*
X136619938Y-110301785D02*
X136667557Y-110254166D01*
X136905652Y-109397023D02*
X137572319Y-109397023D01*
X136524700Y-109635118D02*
X137238985Y-109873213D01*
X137238985Y-109873213D02*
X137238985Y-109254166D01*
X131614580Y-110254166D02*
X131662200Y-110301785D01*
X131662200Y-110301785D02*
X131709819Y-110444642D01*
X131709819Y-110444642D02*
X131709819Y-110539880D01*
X131709819Y-110539880D02*
X131662200Y-110682737D01*
X131662200Y-110682737D02*
X131566961Y-110777975D01*
X131566961Y-110777975D02*
X131471723Y-110825594D01*
X131471723Y-110825594D02*
X131281247Y-110873213D01*
X131281247Y-110873213D02*
X131138390Y-110873213D01*
X131138390Y-110873213D02*
X130947914Y-110825594D01*
X130947914Y-110825594D02*
X130852676Y-110777975D01*
X130852676Y-110777975D02*
X130757438Y-110682737D01*
X130757438Y-110682737D02*
X130709819Y-110539880D01*
X130709819Y-110539880D02*
X130709819Y-110444642D01*
X130709819Y-110444642D02*
X130757438Y-110301785D01*
X130757438Y-110301785D02*
X130805057Y-110254166D01*
X130805057Y-109873213D02*
X130757438Y-109825594D01*
X130757438Y-109825594D02*
X130709819Y-109730356D01*
X130709819Y-109730356D02*
X130709819Y-109492261D01*
X130709819Y-109492261D02*
X130757438Y-109397023D01*
X130757438Y-109397023D02*
X130805057Y-109349404D01*
X130805057Y-109349404D02*
X130900295Y-109301785D01*
X130900295Y-109301785D02*
X130995533Y-109301785D01*
X130995533Y-109301785D02*
X131138390Y-109349404D01*
X131138390Y-109349404D02*
X131709819Y-109920832D01*
X131709819Y-109920832D02*
X131709819Y-109301785D01*
X136504405Y-85612319D02*
X136504405Y-84612319D01*
X136504405Y-84612319D02*
X136742500Y-84612319D01*
X136742500Y-84612319D02*
X136885357Y-84659938D01*
X136885357Y-84659938D02*
X136980595Y-84755176D01*
X136980595Y-84755176D02*
X137028214Y-84850414D01*
X137028214Y-84850414D02*
X137075833Y-85040890D01*
X137075833Y-85040890D02*
X137075833Y-85183747D01*
X137075833Y-85183747D02*
X137028214Y-85374223D01*
X137028214Y-85374223D02*
X136980595Y-85469461D01*
X136980595Y-85469461D02*
X136885357Y-85564700D01*
X136885357Y-85564700D02*
X136742500Y-85612319D01*
X136742500Y-85612319D02*
X136504405Y-85612319D01*
X137409167Y-84612319D02*
X138028214Y-84612319D01*
X138028214Y-84612319D02*
X137694881Y-84993271D01*
X137694881Y-84993271D02*
X137837738Y-84993271D01*
X137837738Y-84993271D02*
X137932976Y-85040890D01*
X137932976Y-85040890D02*
X137980595Y-85088509D01*
X137980595Y-85088509D02*
X138028214Y-85183747D01*
X138028214Y-85183747D02*
X138028214Y-85421842D01*
X138028214Y-85421842D02*
X137980595Y-85517080D01*
X137980595Y-85517080D02*
X137932976Y-85564700D01*
X137932976Y-85564700D02*
X137837738Y-85612319D01*
X137837738Y-85612319D02*
X137552024Y-85612319D01*
X137552024Y-85612319D02*
X137456786Y-85564700D01*
X137456786Y-85564700D02*
X137409167Y-85517080D01*
X167861988Y-100910833D02*
X168576273Y-100910833D01*
X168576273Y-100910833D02*
X168719130Y-100958452D01*
X168719130Y-100958452D02*
X168814369Y-101053690D01*
X168814369Y-101053690D02*
X168861988Y-101196547D01*
X168861988Y-101196547D02*
X168861988Y-101291785D01*
X167861988Y-100529880D02*
X167861988Y-99910833D01*
X167861988Y-99910833D02*
X168242940Y-100244166D01*
X168242940Y-100244166D02*
X168242940Y-100101309D01*
X168242940Y-100101309D02*
X168290559Y-100006071D01*
X168290559Y-100006071D02*
X168338178Y-99958452D01*
X168338178Y-99958452D02*
X168433416Y-99910833D01*
X168433416Y-99910833D02*
X168671511Y-99910833D01*
X168671511Y-99910833D02*
X168766749Y-99958452D01*
X168766749Y-99958452D02*
X168814369Y-100006071D01*
X168814369Y-100006071D02*
X168861988Y-100101309D01*
X168861988Y-100101309D02*
X168861988Y-100387023D01*
X168861988Y-100387023D02*
X168814369Y-100482261D01*
X168814369Y-100482261D02*
X168766749Y-100529880D01*
X142020833Y-88472319D02*
X141687500Y-87996128D01*
X141449405Y-88472319D02*
X141449405Y-87472319D01*
X141449405Y-87472319D02*
X141830357Y-87472319D01*
X141830357Y-87472319D02*
X141925595Y-87519938D01*
X141925595Y-87519938D02*
X141973214Y-87567557D01*
X141973214Y-87567557D02*
X142020833Y-87662795D01*
X142020833Y-87662795D02*
X142020833Y-87805652D01*
X142020833Y-87805652D02*
X141973214Y-87900890D01*
X141973214Y-87900890D02*
X141925595Y-87948509D01*
X141925595Y-87948509D02*
X141830357Y-87996128D01*
X141830357Y-87996128D02*
X141449405Y-87996128D01*
X142592262Y-87900890D02*
X142497024Y-87853271D01*
X142497024Y-87853271D02*
X142449405Y-87805652D01*
X142449405Y-87805652D02*
X142401786Y-87710414D01*
X142401786Y-87710414D02*
X142401786Y-87662795D01*
X142401786Y-87662795D02*
X142449405Y-87567557D01*
X142449405Y-87567557D02*
X142497024Y-87519938D01*
X142497024Y-87519938D02*
X142592262Y-87472319D01*
X142592262Y-87472319D02*
X142782738Y-87472319D01*
X142782738Y-87472319D02*
X142877976Y-87519938D01*
X142877976Y-87519938D02*
X142925595Y-87567557D01*
X142925595Y-87567557D02*
X142973214Y-87662795D01*
X142973214Y-87662795D02*
X142973214Y-87710414D01*
X142973214Y-87710414D02*
X142925595Y-87805652D01*
X142925595Y-87805652D02*
X142877976Y-87853271D01*
X142877976Y-87853271D02*
X142782738Y-87900890D01*
X142782738Y-87900890D02*
X142592262Y-87900890D01*
X142592262Y-87900890D02*
X142497024Y-87948509D01*
X142497024Y-87948509D02*
X142449405Y-87996128D01*
X142449405Y-87996128D02*
X142401786Y-88091366D01*
X142401786Y-88091366D02*
X142401786Y-88281842D01*
X142401786Y-88281842D02*
X142449405Y-88377080D01*
X142449405Y-88377080D02*
X142497024Y-88424700D01*
X142497024Y-88424700D02*
X142592262Y-88472319D01*
X142592262Y-88472319D02*
X142782738Y-88472319D01*
X142782738Y-88472319D02*
X142877976Y-88424700D01*
X142877976Y-88424700D02*
X142925595Y-88377080D01*
X142925595Y-88377080D02*
X142973214Y-88281842D01*
X142973214Y-88281842D02*
X142973214Y-88091366D01*
X142973214Y-88091366D02*
X142925595Y-87996128D01*
X142925595Y-87996128D02*
X142877976Y-87948509D01*
X142877976Y-87948509D02*
X142782738Y-87900890D01*
X136425595Y-93042319D02*
X136425595Y-93851842D01*
X136425595Y-93851842D02*
X136473214Y-93947080D01*
X136473214Y-93947080D02*
X136520833Y-93994700D01*
X136520833Y-93994700D02*
X136616071Y-94042319D01*
X136616071Y-94042319D02*
X136806547Y-94042319D01*
X136806547Y-94042319D02*
X136901785Y-93994700D01*
X136901785Y-93994700D02*
X136949404Y-93947080D01*
X136949404Y-93947080D02*
X136997023Y-93851842D01*
X136997023Y-93851842D02*
X136997023Y-93042319D01*
X137997023Y-94042319D02*
X137425595Y-94042319D01*
X137711309Y-94042319D02*
X137711309Y-93042319D01*
X137711309Y-93042319D02*
X137616071Y-93185176D01*
X137616071Y-93185176D02*
X137520833Y-93280414D01*
X137520833Y-93280414D02*
X137425595Y-93328033D01*
D13*
%TO.C,IC1*%
X148587500Y-98637500D02*
X151787500Y-98637500D01*
X151787500Y-98637500D02*
X151787500Y-103537500D01*
X151787500Y-103537500D02*
X148587500Y-103537500D01*
X148587500Y-103537500D02*
X148587500Y-98637500D01*
X146712500Y-98507500D02*
X148237500Y-98507500D01*
%TO.C,D2*%
X164310000Y-108200000D02*
X164310000Y-102800000D01*
X160690000Y-102800000D02*
X160690000Y-108200000D01*
%TO.C,D1*%
X159810000Y-108200000D02*
X159810000Y-102800000D01*
X156190000Y-102800000D02*
X156190000Y-108200000D01*
D14*
%TO.C,J2*%
X108917500Y-94727500D02*
X108917500Y-106947500D01*
X108917500Y-94727500D02*
X116887500Y-94727500D01*
X108917500Y-106947500D02*
X116887500Y-106947500D01*
X125537500Y-94727500D02*
X121787500Y-94727500D01*
X125537500Y-94727500D02*
X125537500Y-106947500D01*
X125537500Y-106947500D02*
X121787500Y-106947500D01*
X125737500Y-102087500D02*
X126237500Y-102587500D01*
X126237500Y-101587500D02*
X125737500Y-102087500D01*
X126237500Y-102587500D02*
X126237500Y-101587500D01*
%TO.C,C3*%
X132177500Y-109941233D02*
X132177500Y-110233767D01*
X133197500Y-109941233D02*
X133197500Y-110233767D01*
%TO.C,R4*%
X146165000Y-95342224D02*
X146165000Y-94832776D01*
X147210000Y-95342224D02*
X147210000Y-94832776D01*
%TO.C,R5*%
X143165000Y-100832776D02*
X143165000Y-101342224D01*
X144210000Y-100832776D02*
X144210000Y-101342224D01*
%TO.C,C1*%
X126677500Y-109941233D02*
X126677500Y-110233767D01*
X127697500Y-109941233D02*
X127697500Y-110233767D01*
%TO.C,R2*%
X156442224Y-98565000D02*
X155932776Y-98565000D01*
X156442224Y-99610000D02*
X155932776Y-99610000D01*
%TO.C,R3*%
X147932776Y-106565000D02*
X148442224Y-106565000D01*
X147932776Y-107610000D02*
X148442224Y-107610000D01*
%TO.C,R7*%
X142442224Y-89065000D02*
X141932776Y-89065000D01*
X142442224Y-90110000D02*
X141932776Y-90110000D01*
%TO.C,J1*%
X158357500Y-87482500D02*
X159687500Y-87482500D01*
X158357500Y-88812500D02*
X158357500Y-87482500D01*
X158357500Y-90082500D02*
X158357500Y-92682500D01*
X158357500Y-90082500D02*
X161017500Y-90082500D01*
X158357500Y-92682500D02*
X161017500Y-92682500D01*
X161017500Y-90082500D02*
X161017500Y-92682500D01*
%TO.C,R6*%
X160752500Y-95842224D02*
X160752500Y-95332776D01*
X161797500Y-95842224D02*
X161797500Y-95332776D01*
%TO.C,D4*%
X135652500Y-88852500D02*
X135652500Y-90322500D01*
X135652500Y-90322500D02*
X138112500Y-90322500D01*
X138112500Y-88852500D02*
X135652500Y-88852500D01*
%TO.C,R1*%
X155932776Y-96565000D02*
X156442224Y-96565000D01*
X155932776Y-97610000D02*
X156442224Y-97610000D01*
%TO.C,C4*%
X135177500Y-109941233D02*
X135177500Y-110233767D01*
X136197500Y-109941233D02*
X136197500Y-110233767D01*
%TO.C,C2*%
X129315000Y-109941233D02*
X129315000Y-110233767D01*
X130335000Y-109941233D02*
X130335000Y-110233767D01*
%TO.C,D3*%
X135582500Y-85852500D02*
X135582500Y-87322500D01*
X135582500Y-87322500D02*
X138042500Y-87322500D01*
X138042500Y-85852500D02*
X135582500Y-85852500D01*
%TO.C,J3*%
X168452831Y-94787500D02*
X168885844Y-95037500D01*
X168452831Y-95287500D02*
X168452831Y-94787500D01*
X168885844Y-95037500D02*
X168452831Y-95287500D01*
X169347169Y-85092500D02*
X179827169Y-85092500D01*
X169347169Y-116062500D02*
X169347169Y-85092500D01*
X179827169Y-116062500D02*
X169347169Y-116062500D01*
%TO.C,R8*%
X142442224Y-86065000D02*
X141932776Y-86065000D01*
X142442224Y-87110000D02*
X141932776Y-87110000D01*
D12*
%TO.C,U1*%
X134312500Y-94762500D02*
X134312500Y-95337500D01*
X134312500Y-94762500D02*
X140062500Y-94762500D01*
X134312500Y-104837500D02*
X134312500Y-105412500D01*
X134312500Y-105412500D02*
X140062500Y-105412500D01*
X140062500Y-94762500D02*
X140062500Y-95337500D01*
X140062500Y-104837500D02*
X140062500Y-105412500D01*
D14*
X133812500Y-95337500D02*
X133572500Y-95007500D01*
X134052500Y-95007500D01*
X133812500Y-95337500D01*
G36*
X133812500Y-95337500D02*
G01*
X133572500Y-95007500D01*
X134052500Y-95007500D01*
X133812500Y-95337500D01*
G37*
%TD*%
%LPC*%
D15*
%TO.C,IC1*%
X147475500Y-99182500D03*
X147475500Y-100452500D03*
X147475500Y-101722500D03*
X147475500Y-102992500D03*
X152899500Y-102992500D03*
X152899500Y-101722500D03*
X152899500Y-100452500D03*
X152899500Y-99182500D03*
%TD*%
D16*
%TO.C,D2*%
X162500000Y-103300000D03*
X162500000Y-107700000D03*
%TD*%
%TO.C,D1*%
X158000000Y-103300000D03*
X158000000Y-107700000D03*
%TD*%
D17*
%TO.C,J2*%
X124187500Y-102087500D03*
D18*
X124187500Y-99587500D03*
X122187500Y-99587500D03*
X122187500Y-102087500D03*
D19*
X119327500Y-106837500D03*
X119327500Y-94837500D03*
%TD*%
D20*
%TO.C,C3*%
X132687500Y-109225000D03*
X132687500Y-110950000D03*
%TD*%
D21*
%TO.C,R4*%
X146687500Y-96000000D03*
X146687500Y-94175000D03*
%TD*%
D22*
%TO.C,R5*%
X143687500Y-100175000D03*
X143687500Y-102000000D03*
%TD*%
D20*
%TO.C,C1*%
X127187500Y-109225000D03*
X127187500Y-110950000D03*
%TD*%
D23*
%TO.C,R2*%
X157100000Y-99087500D03*
X155275000Y-99087500D03*
%TD*%
D24*
%TO.C,R3*%
X147275000Y-107087500D03*
X149100000Y-107087500D03*
%TD*%
D23*
%TO.C,R7*%
X143100000Y-89587500D03*
X141275000Y-89587500D03*
%TD*%
D25*
%TO.C,J1*%
X159687500Y-88812500D03*
D26*
X159687500Y-91352500D03*
%TD*%
D21*
%TO.C,R6*%
X161275000Y-96500000D03*
X161275000Y-94675000D03*
%TD*%
D27*
%TO.C,D4*%
X136437500Y-89587500D03*
X138187500Y-89587500D03*
%TD*%
D24*
%TO.C,R1*%
X155275000Y-97087500D03*
X157100000Y-97087500D03*
%TD*%
D20*
%TO.C,C4*%
X135687500Y-109225000D03*
X135687500Y-110950000D03*
%TD*%
%TO.C,C2*%
X129825000Y-109225000D03*
X129825000Y-110950000D03*
%TD*%
D27*
%TO.C,D3*%
X136367500Y-86587500D03*
X138117500Y-86587500D03*
%TD*%
D19*
%TO.C,J3*%
X172407169Y-113077500D03*
X172407169Y-88077500D03*
D17*
X172107169Y-95037500D03*
D18*
X172107169Y-97807500D03*
X172107169Y-100577500D03*
X172107169Y-103347500D03*
X172107169Y-106117500D03*
X174947169Y-96422500D03*
X174947169Y-99192500D03*
X174947169Y-101962500D03*
X174947169Y-104732500D03*
%TD*%
D23*
%TO.C,R8*%
X143100000Y-86587500D03*
X141275000Y-86587500D03*
%TD*%
D28*
%TO.C,U1*%
X133587500Y-95862500D03*
X133587500Y-96512500D03*
X133587500Y-97162500D03*
X133587500Y-97812500D03*
X133587500Y-98462500D03*
X133587500Y-99112500D03*
X133587500Y-99762500D03*
X133587500Y-100412500D03*
X133587500Y-101062500D03*
X133587500Y-101712500D03*
X133587500Y-102362500D03*
X133587500Y-103012500D03*
X133587500Y-103662500D03*
X133587500Y-104312500D03*
X140787500Y-104312500D03*
X140787500Y-103662500D03*
X140787500Y-103012500D03*
X140787500Y-102362500D03*
X140787500Y-101712500D03*
X140787500Y-101062500D03*
X140787500Y-100412500D03*
X140787500Y-99762500D03*
X140787500Y-99112500D03*
X140787500Y-98462500D03*
X140787500Y-97812500D03*
X140787500Y-97162500D03*
X140787500Y-96512500D03*
X140787500Y-95862500D03*
%TD*%
%LPD*%
M02*
